M48
; DRILL file {KiCad 7.0.9-7.0.9~ubuntu23.04.1} date ti. 02. jan. 2024 kl. 14.37 +0100
; FORMAT={-:-/ absolute / inch / decimal}
; #@! TF.CreationDate,2024-01-02T14:37:17+01:00
; #@! TF.GenerationSoftware,Kicad,Pcbnew,7.0.9-7.0.9~ubuntu23.04.1
; #@! TF.FileFunction,Plated,1,4,PTH
FMAT,2
INCH
; #@! TA.AperFunction,Plated,PTH,ViaDrill
T1C0.0157
; #@! TA.AperFunction,Plated,PTH,ViaDrill
T2C0.0315
; #@! TA.AperFunction,Plated,PTH,ComponentDrill
T3C0.0315
; #@! TA.AperFunction,Plated,PTH,ComponentDrill
T4C0.0394
; #@! TA.AperFunction,Plated,PTH,ComponentDrill
T5C0.0591
%
G90
G05
T1
X1.45Y-2.5
X1.5Y-3.2
X1.575Y-3.5
X1.625Y-2.325
X1.625Y-4.75
X1.765Y-4.825
X2.025Y-3.425
X2.09Y-4.975
X2.175Y-2.175
X2.2Y-3.25
X2.275Y-3.0
X2.275Y-5.3
X2.515Y-2.4
X2.54Y-4.6
X2.7363Y-2.225
X2.74Y-2.525
X2.76Y-4.885
X2.77Y-4.125
X2.775Y-3.565
X2.79Y-2.935
X2.82Y-3.235
X2.85Y-2.175
X2.88Y-3.285
X2.92Y-4.565
X2.92Y-4.765
X2.92Y-4.965
X2.9282Y-2.445
X2.9567Y-2.285
X3.01Y-2.875
X3.06Y-5.045
X3.14Y-2.225
X3.23Y-2.015
X3.36Y-3.5935
X3.37Y-3.465
X3.4Y-3.555
X3.4Y-3.715
X3.425Y-2.1
X3.4567Y-3.595
X3.475Y-2.2
X3.57Y-4.685
X3.58Y-4.485
X3.74Y-2.185
X3.74Y-2.585
X3.75Y-5.375
X3.78Y-4.5917
X3.78Y-4.685
X3.8Y-2.925
X3.81Y-4.565
X3.82Y-4.325
X3.94Y-2.105
X3.94Y-2.505
X4.03Y-4.445
X4.07Y-4.445
X4.11Y-4.445
X4.15Y-4.645
X4.23Y-4.645
T2
X1.4Y-4.125
X1.5Y-5.075
X1.575Y-4.35
X1.7Y-3.375
X1.725Y-4.275
X1.7801Y-3.375
X1.84Y-5.065
X1.85Y-2.85
X1.9Y-4.875
X1.94Y-2.175
X2.075Y-4.25
X2.125Y-3.35
X2.275Y-3.075
X2.375Y-3.675
X2.425Y-3.15
X2.44Y-5.425
X2.48Y-3.485
X2.54Y-2.725
X2.56Y-3.345
X2.67Y-2.795
X2.69Y-4.965
X2.74Y-4.625
X2.86Y-2.685
X2.87Y-5.425
X3.0Y-3.325
X3.02Y-4.905
X3.03Y-2.675
X3.08Y-3.325
X3.08Y-4.765
X3.11Y-3.485
X3.12Y-3.565
X3.2Y-2.725
X3.26Y-5.425
X3.34Y-4.845
X3.385Y-4.495
X3.385Y-4.6926
X3.4Y-3.845
X3.42Y-5.105
X3.5Y-3.145
X3.62Y-3.805
X3.68Y-2.085
X3.7Y-3.245
X3.7287Y-3.445
X3.86Y-4.765
X3.87Y-4.555
X3.88Y-4.175
T3
X2.22Y-4.885
X2.52Y-4.885
X2.78Y-3.9158
X2.78Y-4.0142
X2.8Y-4.815
X2.8Y-5.115
T4
X1.84Y-5.44
X2.04Y-2.15
X2.14Y-1.95
X2.14Y-2.45
X2.14Y-5.34
X2.315Y-4.65
X2.34Y-5.44
X2.3402Y-2.15
X2.4402Y-1.95
X2.4402Y-2.45
X2.615Y-4.55
X2.815Y-4.65
X3.0806Y-4.3002
X3.365Y-2.3
X3.365Y-2.825
X3.3806Y-4.2002
X3.5806Y-4.3002
X3.665Y-2.2
X3.665Y-2.725
X3.865Y-2.3
X3.865Y-2.825
T5
X1.475Y-2.3
X1.475Y-3.55
X1.475Y-3.775
X1.475Y-4.0
X1.49Y-4.5449
X1.525Y-2.725
X1.525Y-2.925
X1.525Y-3.125
X1.85Y-1.845
X2.015Y-4.7449
X2.4Y-4.05
X2.42Y-4.305
X2.65Y-3.765
X2.66Y-1.845
X2.66Y-4.305
X2.74Y-5.425
X2.9Y-3.765
X3.12Y-2.535
X3.14Y-1.845
X3.16Y-5.425
X3.375Y-4.015
X3.4Y-1.845
X3.58Y-5.425
X3.66Y-1.845
X3.95Y-1.845
X4.04Y-2.365
X4.04Y-3.345
X4.04Y-3.495
X4.04Y-3.695
X4.04Y-3.895
X4.04Y-4.095
X4.24Y-3.345
X4.24Y-3.495
X4.24Y-3.695
X4.24Y-3.895
X4.24Y-4.095
X4.24Y-4.295
X4.325Y-2.14
X4.325Y-2.34
X4.325Y-2.54
X4.325Y-2.74
X4.325Y-2.94
X4.325Y-3.14
X4.33Y-4.535
X4.33Y-4.735
X4.33Y-4.935
T0
M30
