%TF.GenerationSoftware,KiCad,Pcbnew,7.0.8-7.0.8~ubuntu23.04.1*%
%TF.CreationDate,2023-11-19T22:38:12+01:00*%
%TF.ProjectId,vco_4,76636f5f-342e-46b6-9963-61645f706362,rev?*%
%TF.SameCoordinates,Original*%
%TF.FileFunction,Soldermask,Bot*%
%TF.FilePolarity,Negative*%
%FSLAX46Y46*%
G04 Gerber Fmt 4.6, Leading zero omitted, Abs format (unit mm)*
G04 Created by KiCad (PCBNEW 7.0.8-7.0.8~ubuntu23.04.1) date 2023-11-19 22:38:12*
%MOMM*%
%LPD*%
G01*
G04 APERTURE LIST*
%ADD10C,2.000000*%
%ADD11C,1.440000*%
%ADD12C,4.300000*%
%ADD13C,1.600000*%
%ADD14O,1.600000X1.600000*%
G04 APERTURE END LIST*
D10*
%TO.C,TP7*%
X141224000Y-110236000D03*
%TD*%
%TO.C,SW2*%
X181356000Y-85852000D03*
X181356000Y-89662000D03*
X181356000Y-94742000D03*
X181356000Y-99822000D03*
X181356000Y-104902000D03*
X181356000Y-109982000D03*
X176276000Y-85852000D03*
X176276000Y-89662000D03*
X176276000Y-94742000D03*
X176276000Y-99822000D03*
X176276000Y-104902000D03*
%TD*%
%TO.C,J10*%
X128016000Y-47752000D03*
%TD*%
D11*
%TO.C,RV8*%
X127000000Y-52822000D03*
X127000000Y-55362000D03*
X127000000Y-57902000D03*
%TD*%
%TO.C,RV6*%
X163586000Y-59944000D03*
X161046000Y-59944000D03*
X158506000Y-59944000D03*
%TD*%
D12*
%TO.C,REF\u002A\u002A*%
X111760000Y-48260000D03*
%TD*%
D10*
%TO.C,TP9*%
X160020000Y-47752000D03*
%TD*%
%TO.C,TP4*%
X127000000Y-73914000D03*
%TD*%
D12*
%TO.C,REF\u002A\u002A*%
X182245000Y-48260000D03*
%TD*%
D11*
%TO.C,RV4*%
X144272000Y-117856000D03*
X141732000Y-117856000D03*
X139192000Y-117856000D03*
%TD*%
%TO.C,RV5*%
X154432000Y-110236000D03*
X154432000Y-112776000D03*
X154432000Y-115316000D03*
%TD*%
D10*
%TO.C,TP11*%
X147320000Y-96520000D03*
%TD*%
%TO.C,J2*%
X183515000Y-80645000D03*
X183515000Y-75565000D03*
X183515000Y-70485000D03*
%TD*%
%TO.C,J6*%
X153416000Y-47752000D03*
%TD*%
%TO.C,TP10*%
X140970000Y-96520000D03*
%TD*%
%TO.C,RV2*%
X183642000Y-126238000D03*
X183642000Y-121158000D03*
X183642000Y-116078000D03*
%TD*%
%TO.C,J3*%
X164592000Y-138684000D03*
%TD*%
%TO.C,TP1*%
X176276000Y-60960000D03*
%TD*%
D11*
%TO.C,RV9*%
X134620000Y-52832000D03*
X134620000Y-55372000D03*
X134620000Y-57912000D03*
%TD*%
D10*
%TO.C,J4*%
X153924000Y-138684000D03*
%TD*%
%TO.C,J1*%
X183515000Y-65405000D03*
X183515000Y-60325000D03*
X183515000Y-55245000D03*
%TD*%
D13*
%TO.C,R6*%
X144780000Y-130810000D03*
D14*
X144780000Y-123190000D03*
%TD*%
D10*
%TO.C,TP6*%
X135128000Y-110236000D03*
%TD*%
%TO.C,J9*%
X120396000Y-106172000D03*
%TD*%
D11*
%TO.C,RV7*%
X163576000Y-72644000D03*
X161036000Y-72644000D03*
X158496000Y-72644000D03*
%TD*%
D13*
%TO.C,C13*%
X144272000Y-102850000D03*
X144272000Y-100350000D03*
%TD*%
D10*
%TO.C,TP3*%
X173990000Y-47752000D03*
%TD*%
%TO.C,J7*%
X134620000Y-47752000D03*
%TD*%
%TO.C,TP13*%
X120396000Y-112268000D03*
%TD*%
%TO.C,J5*%
X143256000Y-138684000D03*
%TD*%
%TO.C,TP5*%
X120418000Y-100076000D03*
%TD*%
D13*
%TO.C,R32*%
X130048000Y-124968000D03*
D14*
X137668000Y-124968000D03*
%TD*%
D11*
%TO.C,RV3*%
X128534000Y-136652000D03*
X125994000Y-136652000D03*
X123454000Y-136652000D03*
%TD*%
D10*
%TO.C,TP14*%
X127254000Y-66802000D03*
%TD*%
%TO.C,TP2*%
X166624000Y-47752000D03*
%TD*%
%TO.C,TP8*%
X152908000Y-65278000D03*
%TD*%
%TO.C,J8*%
X114300000Y-67056000D03*
%TD*%
%TO.C,TP12*%
X141224000Y-47752000D03*
%TD*%
D12*
%TO.C,REF\u002A\u002A*%
X182245000Y-137795000D03*
%TD*%
%TO.C,REF\u002A\u002A*%
X111760000Y-137795000D03*
%TD*%
D10*
%TO.C,RV10*%
X115570000Y-81534000D03*
X115570000Y-76454000D03*
X115570000Y-71374000D03*
%TD*%
%TO.C,J11*%
X159385000Y-102870000D03*
%TD*%
M02*
