%TF.GenerationSoftware,KiCad,Pcbnew,7.0.8-7.0.8~ubuntu23.04.1*%
%TF.CreationDate,2023-11-19T22:38:12+01:00*%
%TF.ProjectId,vco_4,76636f5f-342e-46b6-9963-61645f706362,rev?*%
%TF.SameCoordinates,Original*%
%TF.FileFunction,Paste,Top*%
%TF.FilePolarity,Positive*%
%FSLAX46Y46*%
G04 Gerber Fmt 4.6, Leading zero omitted, Abs format (unit mm)*
G04 Created by KiCad (PCBNEW 7.0.8-7.0.8~ubuntu23.04.1) date 2023-11-19 22:38:12*
%MOMM*%
%LPD*%
G01*
G04 APERTURE LIST*
G04 Aperture macros list*
%AMRoundRect*
0 Rectangle with rounded corners*
0 $1 Rounding radius*
0 $2 $3 $4 $5 $6 $7 $8 $9 X,Y pos of 4 corners*
0 Add a 4 corners polygon primitive as box body*
4,1,4,$2,$3,$4,$5,$6,$7,$8,$9,$2,$3,0*
0 Add four circle primitives for the rounded corners*
1,1,$1+$1,$2,$3*
1,1,$1+$1,$4,$5*
1,1,$1+$1,$6,$7*
1,1,$1+$1,$8,$9*
0 Add four rect primitives between the rounded corners*
20,1,$1+$1,$2,$3,$4,$5,0*
20,1,$1+$1,$4,$5,$6,$7,0*
20,1,$1+$1,$6,$7,$8,$9,0*
20,1,$1+$1,$8,$9,$2,$3,0*%
G04 Aperture macros list end*
%ADD10RoundRect,0.250000X-0.337500X-0.475000X0.337500X-0.475000X0.337500X0.475000X-0.337500X0.475000X0*%
%ADD11RoundRect,0.250000X0.350000X0.450000X-0.350000X0.450000X-0.350000X-0.450000X0.350000X-0.450000X0*%
%ADD12RoundRect,0.250000X-0.350000X-0.450000X0.350000X-0.450000X0.350000X0.450000X-0.350000X0.450000X0*%
%ADD13RoundRect,0.250000X0.450000X-0.350000X0.450000X0.350000X-0.450000X0.350000X-0.450000X-0.350000X0*%
%ADD14RoundRect,0.250000X0.337500X0.475000X-0.337500X0.475000X-0.337500X-0.475000X0.337500X-0.475000X0*%
%ADD15RoundRect,0.250000X0.475000X-0.337500X0.475000X0.337500X-0.475000X0.337500X-0.475000X-0.337500X0*%
%ADD16RoundRect,0.250000X-1.050000X-0.550000X1.050000X-0.550000X1.050000X0.550000X-1.050000X0.550000X0*%
%ADD17RoundRect,0.250000X-0.475000X0.337500X-0.475000X-0.337500X0.475000X-0.337500X0.475000X0.337500X0*%
%ADD18RoundRect,0.250000X-0.550000X1.050000X-0.550000X-1.050000X0.550000X-1.050000X0.550000X1.050000X0*%
%ADD19RoundRect,0.150000X-0.825000X-0.150000X0.825000X-0.150000X0.825000X0.150000X-0.825000X0.150000X0*%
%ADD20RoundRect,0.150000X-0.512500X-0.150000X0.512500X-0.150000X0.512500X0.150000X-0.512500X0.150000X0*%
%ADD21RoundRect,0.250000X-0.300000X-0.300000X0.300000X-0.300000X0.300000X0.300000X-0.300000X0.300000X0*%
%ADD22RoundRect,0.150000X0.150000X-0.587500X0.150000X0.587500X-0.150000X0.587500X-0.150000X-0.587500X0*%
%ADD23RoundRect,0.250000X-0.450000X0.350000X-0.450000X-0.350000X0.450000X-0.350000X0.450000X0.350000X0*%
%ADD24RoundRect,0.150000X-0.587500X-0.150000X0.587500X-0.150000X0.587500X0.150000X-0.587500X0.150000X0*%
%ADD25RoundRect,0.250000X1.050000X0.550000X-1.050000X0.550000X-1.050000X-0.550000X1.050000X-0.550000X0*%
%ADD26R,1.500000X0.400000*%
%ADD27RoundRect,0.250000X0.300000X0.300000X-0.300000X0.300000X-0.300000X-0.300000X0.300000X-0.300000X0*%
%ADD28RoundRect,0.150000X-0.150000X0.587500X-0.150000X-0.587500X0.150000X-0.587500X0.150000X0.587500X0*%
%ADD29RoundRect,0.150000X0.150000X-0.825000X0.150000X0.825000X-0.150000X0.825000X-0.150000X-0.825000X0*%
%ADD30RoundRect,0.250000X0.550000X-1.050000X0.550000X1.050000X-0.550000X1.050000X-0.550000X-1.050000X0*%
G04 APERTURE END LIST*
D10*
%TO.C,C18*%
X162560000Y-82550000D03*
X164635000Y-82550000D03*
%TD*%
D11*
%TO.C,R45*%
X146272000Y-54864000D03*
X144272000Y-54864000D03*
%TD*%
D12*
%TO.C,R1*%
X125006000Y-100584000D03*
X127006000Y-100584000D03*
%TD*%
D11*
%TO.C,R23*%
X160528000Y-134620000D03*
X158528000Y-134620000D03*
%TD*%
D13*
%TO.C,R18*%
X172212000Y-82788000D03*
X172212000Y-80788000D03*
%TD*%
D11*
%TO.C,R21*%
X149860000Y-138684000D03*
X147860000Y-138684000D03*
%TD*%
D10*
%TO.C,C29*%
X163068000Y-53848000D03*
X165143000Y-53848000D03*
%TD*%
D14*
%TO.C,C8*%
X155469500Y-133096000D03*
X153394500Y-133096000D03*
%TD*%
D15*
%TO.C,C15*%
X138684000Y-89408000D03*
X138684000Y-87333000D03*
%TD*%
D13*
%TO.C,R56*%
X174498000Y-138652000D03*
X174498000Y-136652000D03*
%TD*%
D10*
%TO.C,C20*%
X166370000Y-90170000D03*
X168445000Y-90170000D03*
%TD*%
D13*
%TO.C,R16*%
X172212000Y-93964000D03*
X172212000Y-91964000D03*
%TD*%
%TO.C,R19*%
X172212000Y-77184000D03*
X172212000Y-75184000D03*
%TD*%
D16*
%TO.C,C3*%
X130048000Y-94996000D03*
X133648000Y-94996000D03*
%TD*%
D17*
%TO.C,C10*%
X160528000Y-126978500D03*
X160528000Y-129053500D03*
%TD*%
D11*
%TO.C,R25*%
X166878000Y-131826000D03*
X164878000Y-131826000D03*
%TD*%
D18*
%TO.C,C2*%
X170815000Y-52810000D03*
X170815000Y-56410000D03*
%TD*%
D14*
%TO.C,C16*%
X126768000Y-83312000D03*
X124693000Y-83312000D03*
%TD*%
D19*
%TO.C,U2*%
X118197000Y-85852000D03*
X118197000Y-87122000D03*
X118197000Y-88392000D03*
X118197000Y-89662000D03*
X118197000Y-90932000D03*
X118197000Y-92202000D03*
X118197000Y-93472000D03*
X123147000Y-93472000D03*
X123147000Y-92202000D03*
X123147000Y-90932000D03*
X123147000Y-89662000D03*
X123147000Y-88392000D03*
X123147000Y-87122000D03*
X123147000Y-85852000D03*
%TD*%
D15*
%TO.C,C23*%
X120904000Y-54399000D03*
X120904000Y-52324000D03*
%TD*%
D19*
%TO.C,U5*%
X141797000Y-85471000D03*
X141797000Y-86741000D03*
X141797000Y-88011000D03*
X141797000Y-89281000D03*
X146747000Y-89281000D03*
X146747000Y-88011000D03*
X146747000Y-86741000D03*
X146747000Y-85471000D03*
%TD*%
D11*
%TO.C,R20*%
X166878000Y-127381000D03*
X164878000Y-127381000D03*
%TD*%
D12*
%TO.C,R42*%
X158115000Y-97155000D03*
X160115000Y-97155000D03*
%TD*%
D20*
%TO.C,Q2*%
X175525000Y-64455000D03*
X175525000Y-66355000D03*
X177800000Y-65405000D03*
%TD*%
D21*
%TO.C,D2*%
X144012000Y-62992000D03*
X146812000Y-62992000D03*
%TD*%
D13*
%TO.C,R15*%
X172212000Y-99536000D03*
X172212000Y-97536000D03*
%TD*%
D17*
%TO.C,C19*%
X154432000Y-89408000D03*
X154432000Y-91483000D03*
%TD*%
D12*
%TO.C,R44*%
X166370000Y-86360000D03*
X168370000Y-86360000D03*
%TD*%
D22*
%TO.C,U1*%
X130898000Y-100505500D03*
X132798000Y-100505500D03*
X131848000Y-98630500D03*
%TD*%
D23*
%TO.C,R29*%
X134112000Y-117856000D03*
X134112000Y-119856000D03*
%TD*%
D12*
%TO.C,R36*%
X151416000Y-52324000D03*
X153416000Y-52324000D03*
%TD*%
D11*
%TO.C,R38*%
X153416000Y-59944000D03*
X151416000Y-59944000D03*
%TD*%
D24*
%TO.C,Q3*%
X151541000Y-100650000D03*
X151541000Y-102550000D03*
X153416000Y-101600000D03*
%TD*%
D21*
%TO.C,D4*%
X132836000Y-73660000D03*
X135636000Y-73660000D03*
%TD*%
D12*
%TO.C,R62*%
X119920000Y-69596000D03*
X121920000Y-69596000D03*
%TD*%
D15*
%TO.C,C24*%
X159639000Y-118618000D03*
X159639000Y-116543000D03*
%TD*%
D11*
%TO.C,R7*%
X139192000Y-134620000D03*
X137192000Y-134620000D03*
%TD*%
D12*
%TO.C,R47*%
X139192000Y-58928000D03*
X141192000Y-58928000D03*
%TD*%
%TO.C,R30*%
X145920000Y-108712000D03*
X147920000Y-108712000D03*
%TD*%
D13*
%TO.C,R12*%
X174498000Y-116300000D03*
X174498000Y-114300000D03*
%TD*%
D14*
%TO.C,C22*%
X146347000Y-50800000D03*
X144272000Y-50800000D03*
%TD*%
D20*
%TO.C,Q1*%
X175525000Y-54295000D03*
X175525000Y-56195000D03*
X177800000Y-55245000D03*
%TD*%
D14*
%TO.C,C11*%
X156507000Y-120904000D03*
X154432000Y-120904000D03*
%TD*%
D13*
%TO.C,R13*%
X172212000Y-110712000D03*
X172212000Y-108712000D03*
%TD*%
D14*
%TO.C,C28*%
X165735000Y-102870000D03*
X163660000Y-102870000D03*
%TD*%
D12*
%TO.C,R37*%
X156972000Y-53848000D03*
X158972000Y-53848000D03*
%TD*%
D25*
%TO.C,C30*%
X133648000Y-88392000D03*
X130048000Y-88392000D03*
%TD*%
D13*
%TO.C,R14*%
X172212000Y-105124000D03*
X172212000Y-103124000D03*
%TD*%
D23*
%TO.C,R27*%
X134122000Y-136652000D03*
X134122000Y-138652000D03*
%TD*%
D19*
%TO.C,U8*%
X162944000Y-114808000D03*
X162944000Y-116078000D03*
X162944000Y-117348000D03*
X162944000Y-118618000D03*
X162944000Y-119888000D03*
X162944000Y-121158000D03*
X162944000Y-122428000D03*
X167894000Y-122428000D03*
X167894000Y-121158000D03*
X167894000Y-119888000D03*
X167894000Y-118618000D03*
X167894000Y-117348000D03*
X167894000Y-116078000D03*
X167894000Y-114808000D03*
%TD*%
D11*
%TO.C,R55*%
X115300000Y-101092000D03*
X113300000Y-101092000D03*
%TD*%
%TO.C,R22*%
X160512000Y-138684000D03*
X158512000Y-138684000D03*
%TD*%
D15*
%TO.C,C9*%
X150368000Y-123952000D03*
X150368000Y-121877000D03*
%TD*%
D12*
%TO.C,R53*%
X113300000Y-97536000D03*
X115300000Y-97536000D03*
%TD*%
D13*
%TO.C,R17*%
X172212000Y-88376000D03*
X172212000Y-86376000D03*
%TD*%
D11*
%TO.C,R54*%
X115300000Y-104648000D03*
X113300000Y-104648000D03*
%TD*%
D15*
%TO.C,C6*%
X114576000Y-89662000D03*
X114576000Y-87587000D03*
%TD*%
D10*
%TO.C,C14*%
X149860000Y-86868000D03*
X151935000Y-86868000D03*
%TD*%
D12*
%TO.C,R28*%
X133112000Y-132080000D03*
X135112000Y-132080000D03*
%TD*%
%TO.C,R49*%
X139224000Y-51816000D03*
X141224000Y-51816000D03*
%TD*%
D10*
%TO.C,C27*%
X124968500Y-97028000D03*
X127043500Y-97028000D03*
%TD*%
D15*
%TO.C,C25*%
X171704000Y-120693000D03*
X171704000Y-118618000D03*
%TD*%
D12*
%TO.C,R59*%
X133096000Y-69596000D03*
X135096000Y-69596000D03*
%TD*%
D11*
%TO.C,R61*%
X121920000Y-76454000D03*
X119920000Y-76454000D03*
%TD*%
D15*
%TO.C,C7*%
X126768000Y-91737000D03*
X126768000Y-89662000D03*
%TD*%
D10*
%TO.C,C26*%
X143256000Y-81788000D03*
X145331000Y-81788000D03*
%TD*%
D12*
%TO.C,R52*%
X119920000Y-66294000D03*
X121920000Y-66294000D03*
%TD*%
%TO.C,R50*%
X119888000Y-80010000D03*
X121888000Y-80010000D03*
%TD*%
D26*
%TO.C,U4*%
X143450000Y-126350000D03*
X143450000Y-127000000D03*
X143450000Y-127650000D03*
X146110000Y-127650000D03*
X146110000Y-127000000D03*
X146110000Y-126350000D03*
%TD*%
D13*
%TO.C,R11*%
X174498000Y-121888000D03*
X174498000Y-119888000D03*
%TD*%
D12*
%TO.C,R39*%
X151416000Y-55880000D03*
X153416000Y-55880000D03*
%TD*%
D13*
%TO.C,R31*%
X149860000Y-118348000D03*
X149860000Y-116348000D03*
%TD*%
D12*
%TO.C,R57*%
X163735000Y-95504000D03*
X165735000Y-95504000D03*
%TD*%
%TO.C,R33*%
X156972000Y-66548000D03*
X158972000Y-66548000D03*
%TD*%
D11*
%TO.C,R41*%
X160115000Y-93345000D03*
X158115000Y-93345000D03*
%TD*%
D13*
%TO.C,R10*%
X174498000Y-127476000D03*
X174498000Y-125476000D03*
%TD*%
D12*
%TO.C,R35*%
X163068000Y-66548000D03*
X165068000Y-66548000D03*
%TD*%
D11*
%TO.C,R46*%
X141192000Y-62992000D03*
X139192000Y-62992000D03*
%TD*%
D19*
%TO.C,U6*%
X157545000Y-85471000D03*
X157545000Y-86741000D03*
X157545000Y-88011000D03*
X157545000Y-89281000D03*
X162495000Y-89281000D03*
X162495000Y-88011000D03*
X162495000Y-86741000D03*
X162495000Y-85471000D03*
%TD*%
D12*
%TO.C,R58*%
X163735000Y-99060000D03*
X165735000Y-99060000D03*
%TD*%
D13*
%TO.C,R9*%
X174498000Y-133064000D03*
X174498000Y-131064000D03*
%TD*%
D17*
%TO.C,C12*%
X139700000Y-70082500D03*
X139700000Y-72157500D03*
%TD*%
D12*
%TO.C,R34*%
X151400000Y-74168000D03*
X153400000Y-74168000D03*
%TD*%
D19*
%TO.C,U7*%
X143386000Y-66294000D03*
X143386000Y-67564000D03*
X143386000Y-68834000D03*
X143386000Y-70104000D03*
X143386000Y-71374000D03*
X143386000Y-72644000D03*
X143386000Y-73914000D03*
X148336000Y-73914000D03*
X148336000Y-72644000D03*
X148336000Y-71374000D03*
X148336000Y-70104000D03*
X148336000Y-68834000D03*
X148336000Y-67564000D03*
X148336000Y-66294000D03*
%TD*%
D11*
%TO.C,R8*%
X139144000Y-138684000D03*
X137144000Y-138684000D03*
%TD*%
D27*
%TO.C,D1*%
X148720000Y-112776000D03*
X145920000Y-112776000D03*
%TD*%
D28*
%TO.C,U11*%
X132798000Y-81358500D03*
X130898000Y-81358500D03*
X131848000Y-83233500D03*
%TD*%
D12*
%TO.C,R40*%
X148336000Y-81788000D03*
X150336000Y-81788000D03*
%TD*%
D10*
%TO.C,C17*%
X155405000Y-78740000D03*
X157480000Y-78740000D03*
%TD*%
D11*
%TO.C,R26*%
X125444000Y-131064000D03*
X123444000Y-131064000D03*
%TD*%
D13*
%TO.C,R48*%
X120904000Y-49244000D03*
X120904000Y-47244000D03*
%TD*%
D12*
%TO.C,R51*%
X119888000Y-72898000D03*
X121888000Y-72898000D03*
%TD*%
D21*
%TO.C,D3*%
X144012000Y-58928000D03*
X146812000Y-58928000D03*
%TD*%
D12*
%TO.C,R60*%
X133096000Y-66040000D03*
X135096000Y-66040000D03*
%TD*%
D14*
%TO.C,C21*%
X153459000Y-70104000D03*
X151384000Y-70104000D03*
%TD*%
D29*
%TO.C,U3*%
X153035000Y-128967000D03*
X154305000Y-128967000D03*
X155575000Y-128967000D03*
X156845000Y-128967000D03*
X156845000Y-124017000D03*
X155575000Y-124017000D03*
X154305000Y-124017000D03*
X153035000Y-124017000D03*
%TD*%
D11*
%TO.C,R43*%
X126768000Y-79756000D03*
X124768000Y-79756000D03*
%TD*%
D30*
%TO.C,C1*%
X170815000Y-66570000D03*
X170815000Y-62970000D03*
%TD*%
D11*
%TO.C,R24*%
X149860000Y-134620000D03*
X147860000Y-134620000D03*
%TD*%
M02*
