%TF.GenerationSoftware,KiCad,Pcbnew,7.0.9-7.0.9~ubuntu23.04.1*%
%TF.CreationDate,2024-01-02T14:37:14+01:00*%
%TF.ProjectId,vco_1,76636f5f-312e-46b6-9963-61645f706362,rev?*%
%TF.SameCoordinates,Original*%
%TF.FileFunction,Soldermask,Bot*%
%TF.FilePolarity,Negative*%
%FSLAX46Y46*%
G04 Gerber Fmt 4.6, Leading zero omitted, Abs format (unit mm)*
G04 Created by KiCad (PCBNEW 7.0.9-7.0.9~ubuntu23.04.1) date 2024-01-02 14:37:14*
%MOMM*%
%LPD*%
G01*
G04 APERTURE LIST*
%ADD10C,2.000000*%
%ADD11C,4.300000*%
%ADD12C,1.600000*%
%ADD13O,1.600000X1.600000*%
%ADD14C,1.800000*%
G04 APERTURE END LIST*
D10*
%TO.C,TP7*%
X67564000Y-109347000D03*
%TD*%
%TO.C,SW2*%
X107696000Y-84963000D03*
X107696000Y-88773000D03*
X107696000Y-93853000D03*
X107696000Y-98933000D03*
X107696000Y-104013000D03*
X107696000Y-109093000D03*
X102616000Y-84963000D03*
X102616000Y-88773000D03*
X102616000Y-93853000D03*
X102616000Y-98933000D03*
X102616000Y-104013000D03*
%TD*%
%TO.C,J10*%
X37465000Y-101600000D03*
%TD*%
D11*
%TO.C,REF\u002A\u002A*%
X38100000Y-47371000D03*
%TD*%
D12*
%TO.C,TH1*%
X71120000Y-122301000D03*
D13*
X71120000Y-129921000D03*
%TD*%
D10*
%TO.C,TP9*%
X86360000Y-46863000D03*
%TD*%
%TO.C,TP4*%
X51181000Y-120520000D03*
%TD*%
D11*
%TO.C,REF\u002A\u002A*%
X108585000Y-47371000D03*
%TD*%
D10*
%TO.C,TP11*%
X73660000Y-95631000D03*
%TD*%
%TO.C,J2*%
X109855000Y-79756000D03*
X109855000Y-74676000D03*
X109855000Y-69596000D03*
%TD*%
%TO.C,J6*%
X79756000Y-46863000D03*
%TD*%
%TO.C,TP10*%
X67310000Y-95631000D03*
%TD*%
%TO.C,RV2*%
X109982000Y-125349000D03*
X109982000Y-120269000D03*
X109982000Y-115189000D03*
%TD*%
%TO.C,J3*%
X90932000Y-137795000D03*
%TD*%
%TO.C,TP1*%
X102616000Y-60071000D03*
%TD*%
%TO.C,J4*%
X80264000Y-137795000D03*
%TD*%
%TO.C,J1*%
X109855000Y-64516000D03*
X109855000Y-59436000D03*
X109855000Y-54356000D03*
%TD*%
%TO.C,TP6*%
X61468000Y-109347000D03*
%TD*%
%TO.C,J9*%
X37465000Y-90170000D03*
%TD*%
D12*
%TO.C,C13*%
X70612000Y-101961000D03*
X70612000Y-99461000D03*
%TD*%
D10*
%TO.C,TP3*%
X100330000Y-46863000D03*
%TD*%
%TO.C,J7*%
X46990000Y-46863000D03*
%TD*%
%TO.C,TP13*%
X37465000Y-95885000D03*
%TD*%
%TO.C,J5*%
X69596000Y-137795000D03*
%TD*%
%TO.C,TP5*%
X37846000Y-115440000D03*
%TD*%
D12*
%TO.C,R32*%
X56388000Y-124079000D03*
D13*
X64008000Y-124079000D03*
%TD*%
D10*
%TO.C,TP14*%
X60960000Y-102870000D03*
%TD*%
%TO.C,TP2*%
X92964000Y-46863000D03*
%TD*%
%TO.C,TP8*%
X79248000Y-64389000D03*
%TD*%
%TO.C,J8*%
X37465000Y-58420000D03*
%TD*%
%TO.C,TP12*%
X67564000Y-46863000D03*
%TD*%
D11*
%TO.C,REF\u002A\u002A*%
X108585000Y-136906000D03*
%TD*%
%TO.C,REF\u002A\u002A*%
X38100000Y-136906000D03*
%TD*%
D10*
%TO.C,RV10*%
X38735000Y-79375000D03*
X38735000Y-74295000D03*
X38735000Y-69215000D03*
%TD*%
%TO.C,J11*%
X85725000Y-101981000D03*
%TD*%
D14*
%TO.C,RV6*%
X85471000Y-58420000D03*
X93091000Y-55880000D03*
X98171000Y-58420000D03*
%TD*%
%TO.C,RV7*%
X85471000Y-71755000D03*
X93091000Y-69215000D03*
X98171000Y-71755000D03*
%TD*%
%TO.C,RV4*%
X58801000Y-118110000D03*
X66421000Y-115570000D03*
X71501000Y-118110000D03*
%TD*%
%TO.C,RV9*%
X61981000Y-62230000D03*
X59441000Y-54610000D03*
X61981000Y-49530000D03*
%TD*%
%TO.C,RV3*%
X46736000Y-138176000D03*
X54356000Y-135636000D03*
X59436000Y-138176000D03*
%TD*%
%TO.C,RV8*%
X54356000Y-62230000D03*
X51816000Y-54610000D03*
X54356000Y-49530000D03*
%TD*%
%TO.C,RV5*%
X78246000Y-109225000D03*
X85866000Y-106685000D03*
X90946000Y-109225000D03*
%TD*%
M02*
