%TF.GenerationSoftware,KiCad,Pcbnew,7.0.9-7.0.9~ubuntu23.04.1*%
%TF.CreationDate,2024-01-02T14:37:14+01:00*%
%TF.ProjectId,vco_1,76636f5f-312e-46b6-9963-61645f706362,rev?*%
%TF.SameCoordinates,Original*%
%TF.FileFunction,Soldermask,Top*%
%TF.FilePolarity,Negative*%
%FSLAX46Y46*%
G04 Gerber Fmt 4.6, Leading zero omitted, Abs format (unit mm)*
G04 Created by KiCad (PCBNEW 7.0.9-7.0.9~ubuntu23.04.1) date 2024-01-02 14:37:14*
%MOMM*%
%LPD*%
G01*
G04 APERTURE LIST*
G04 Aperture macros list*
%AMRoundRect*
0 Rectangle with rounded corners*
0 $1 Rounding radius*
0 $2 $3 $4 $5 $6 $7 $8 $9 X,Y pos of 4 corners*
0 Add a 4 corners polygon primitive as box body*
4,1,4,$2,$3,$4,$5,$6,$7,$8,$9,$2,$3,0*
0 Add four circle primitives for the rounded corners*
1,1,$1+$1,$2,$3*
1,1,$1+$1,$4,$5*
1,1,$1+$1,$6,$7*
1,1,$1+$1,$8,$9*
0 Add four rect primitives between the rounded corners*
20,1,$1+$1,$2,$3,$4,$5,0*
20,1,$1+$1,$4,$5,$6,$7,0*
20,1,$1+$1,$6,$7,$8,$9,0*
20,1,$1+$1,$8,$9,$2,$3,0*%
G04 Aperture macros list end*
%ADD10C,2.000000*%
%ADD11RoundRect,0.250000X-0.337500X-0.475000X0.337500X-0.475000X0.337500X0.475000X-0.337500X0.475000X0*%
%ADD12RoundRect,0.250000X0.350000X0.450000X-0.350000X0.450000X-0.350000X-0.450000X0.350000X-0.450000X0*%
%ADD13RoundRect,0.250000X-0.350000X-0.450000X0.350000X-0.450000X0.350000X0.450000X-0.350000X0.450000X0*%
%ADD14RoundRect,0.250000X0.450000X-0.350000X0.450000X0.350000X-0.450000X0.350000X-0.450000X-0.350000X0*%
%ADD15RoundRect,0.250000X0.337500X0.475000X-0.337500X0.475000X-0.337500X-0.475000X0.337500X-0.475000X0*%
%ADD16RoundRect,0.250000X0.475000X-0.337500X0.475000X0.337500X-0.475000X0.337500X-0.475000X-0.337500X0*%
%ADD17C,4.300000*%
%ADD18RoundRect,0.250000X1.050000X0.550000X-1.050000X0.550000X-1.050000X-0.550000X1.050000X-0.550000X0*%
%ADD19RoundRect,0.250000X-0.475000X0.337500X-0.475000X-0.337500X0.475000X-0.337500X0.475000X0.337500X0*%
%ADD20RoundRect,0.150000X-0.825000X-0.150000X0.825000X-0.150000X0.825000X0.150000X-0.825000X0.150000X0*%
%ADD21C,1.600000*%
%ADD22O,1.600000X1.600000*%
%ADD23RoundRect,0.150000X0.150000X-0.825000X0.150000X0.825000X-0.150000X0.825000X-0.150000X-0.825000X0*%
%ADD24RoundRect,0.250000X-0.550000X1.050000X-0.550000X-1.050000X0.550000X-1.050000X0.550000X1.050000X0*%
%ADD25RoundRect,0.150000X-0.512500X-0.150000X0.512500X-0.150000X0.512500X0.150000X-0.512500X0.150000X0*%
%ADD26RoundRect,0.250000X-0.300000X-0.300000X0.300000X-0.300000X0.300000X0.300000X-0.300000X0.300000X0*%
%ADD27RoundRect,0.150000X0.587500X0.150000X-0.587500X0.150000X-0.587500X-0.150000X0.587500X-0.150000X0*%
%ADD28RoundRect,0.150000X-0.587500X-0.150000X0.587500X-0.150000X0.587500X0.150000X-0.587500X0.150000X0*%
%ADD29RoundRect,0.250000X0.300000X0.300000X-0.300000X0.300000X-0.300000X-0.300000X0.300000X-0.300000X0*%
%ADD30RoundRect,0.250000X-1.050000X-0.550000X1.050000X-0.550000X1.050000X0.550000X-1.050000X0.550000X0*%
%ADD31RoundRect,0.250000X-0.450000X0.350000X-0.450000X-0.350000X0.450000X-0.350000X0.450000X0.350000X0*%
%ADD32R,1.500000X0.400000*%
%ADD33RoundRect,0.250000X0.550000X-1.050000X0.550000X1.050000X-0.550000X1.050000X-0.550000X-1.050000X0*%
%ADD34C,1.800000*%
G04 APERTURE END LIST*
D10*
%TO.C,TP7*%
X67564000Y-109347000D03*
%TD*%
D11*
%TO.C,C18*%
X88900000Y-81661000D03*
X90975000Y-81661000D03*
%TD*%
D12*
%TO.C,R45*%
X72612000Y-53975000D03*
X70612000Y-53975000D03*
%TD*%
D13*
%TO.C,R1*%
X45698500Y-112265000D03*
X47698500Y-112265000D03*
%TD*%
D10*
%TO.C,SW2*%
X107696000Y-84963000D03*
X107696000Y-88773000D03*
X107696000Y-93853000D03*
X107696000Y-98933000D03*
X107696000Y-104013000D03*
X107696000Y-109093000D03*
X102616000Y-84963000D03*
X102616000Y-88773000D03*
X102616000Y-93853000D03*
X102616000Y-98933000D03*
X102616000Y-104013000D03*
%TD*%
D12*
%TO.C,R23*%
X86868000Y-133731000D03*
X84868000Y-133731000D03*
%TD*%
D14*
%TO.C,R18*%
X98552000Y-81899000D03*
X98552000Y-79899000D03*
%TD*%
D12*
%TO.C,R21*%
X76200000Y-137795000D03*
X74200000Y-137795000D03*
%TD*%
D10*
%TO.C,J10*%
X37465000Y-101600000D03*
%TD*%
D11*
%TO.C,C29*%
X89408000Y-52959000D03*
X91483000Y-52959000D03*
%TD*%
D15*
%TO.C,C8*%
X81809500Y-132207000D03*
X79734500Y-132207000D03*
%TD*%
D16*
%TO.C,C15*%
X65024000Y-88519000D03*
X65024000Y-86444000D03*
%TD*%
D14*
%TO.C,R56*%
X100838000Y-137763000D03*
X100838000Y-135763000D03*
%TD*%
D11*
%TO.C,C20*%
X92710000Y-89281000D03*
X94785000Y-89281000D03*
%TD*%
D14*
%TO.C,R16*%
X98552000Y-93075000D03*
X98552000Y-91075000D03*
%TD*%
%TO.C,R19*%
X98552000Y-76295000D03*
X98552000Y-74295000D03*
%TD*%
D17*
%TO.C,REF\u002A\u002A*%
X38100000Y-47371000D03*
%TD*%
D18*
%TO.C,C3*%
X39646000Y-107820000D03*
X36046000Y-107820000D03*
%TD*%
D19*
%TO.C,C10*%
X86868000Y-126089500D03*
X86868000Y-128164500D03*
%TD*%
D20*
%TO.C,U10*%
X49025000Y-80010000D03*
X49025000Y-81280000D03*
X49025000Y-82550000D03*
X49025000Y-83820000D03*
X53975000Y-83820000D03*
X53975000Y-82550000D03*
X53975000Y-81280000D03*
X53975000Y-80010000D03*
%TD*%
D21*
%TO.C,TH1*%
X71120000Y-122301000D03*
D22*
X71120000Y-129921000D03*
%TD*%
D20*
%TO.C,U9*%
X69726000Y-65405000D03*
X69726000Y-66675000D03*
X69726000Y-67945000D03*
X69726000Y-69215000D03*
X69726000Y-70485000D03*
X69726000Y-71755000D03*
X69726000Y-73025000D03*
X74676000Y-73025000D03*
X74676000Y-71755000D03*
X74676000Y-70485000D03*
X74676000Y-69215000D03*
X74676000Y-67945000D03*
X74676000Y-66675000D03*
X74676000Y-65405000D03*
%TD*%
D10*
%TO.C,TP9*%
X86360000Y-46863000D03*
%TD*%
D23*
%TO.C,U3*%
X42926000Y-120520000D03*
X44196000Y-120520000D03*
X45466000Y-120520000D03*
X46736000Y-120520000D03*
X46736000Y-115570000D03*
X45466000Y-115570000D03*
X44196000Y-115570000D03*
X42926000Y-115570000D03*
%TD*%
D12*
%TO.C,R25*%
X93218000Y-130937000D03*
X91218000Y-130937000D03*
%TD*%
D24*
%TO.C,C2*%
X97155000Y-51921000D03*
X97155000Y-55521000D03*
%TD*%
D11*
%TO.C,C16*%
X40851000Y-128521000D03*
X42926000Y-128521000D03*
%TD*%
D10*
%TO.C,TP4*%
X51181000Y-120520000D03*
%TD*%
D16*
%TO.C,C23*%
X47244000Y-55415000D03*
X47244000Y-53340000D03*
%TD*%
D20*
%TO.C,U7*%
X68137000Y-84582000D03*
X68137000Y-85852000D03*
X68137000Y-87122000D03*
X68137000Y-88392000D03*
X73087000Y-88392000D03*
X73087000Y-87122000D03*
X73087000Y-85852000D03*
X73087000Y-84582000D03*
%TD*%
D12*
%TO.C,R20*%
X93218000Y-126492000D03*
X91218000Y-126492000D03*
%TD*%
D17*
%TO.C,REF\u002A\u002A*%
X108585000Y-47371000D03*
%TD*%
D13*
%TO.C,R42*%
X84455000Y-96266000D03*
X86455000Y-96266000D03*
%TD*%
D25*
%TO.C,Q2*%
X101865000Y-63566000D03*
X101865000Y-65466000D03*
X104140000Y-64516000D03*
%TD*%
D26*
%TO.C,D2*%
X70352000Y-62103000D03*
X73152000Y-62103000D03*
%TD*%
D14*
%TO.C,R15*%
X98552000Y-98647000D03*
X98552000Y-96647000D03*
%TD*%
D19*
%TO.C,C19*%
X80772000Y-88519000D03*
X80772000Y-90594000D03*
%TD*%
D13*
%TO.C,R44*%
X92710000Y-85471000D03*
X94710000Y-85471000D03*
%TD*%
D27*
%TO.C,U1*%
X52118500Y-111945000D03*
X52118500Y-110045000D03*
X50243500Y-110995000D03*
%TD*%
D12*
%TO.C,R29*%
X71501000Y-115570000D03*
X69501000Y-115570000D03*
%TD*%
D13*
%TO.C,R36*%
X77756000Y-51435000D03*
X79756000Y-51435000D03*
%TD*%
D12*
%TO.C,R38*%
X79756000Y-59055000D03*
X77756000Y-59055000D03*
%TD*%
D28*
%TO.C,Q3*%
X77881000Y-99761000D03*
X77881000Y-101661000D03*
X79756000Y-100711000D03*
%TD*%
D29*
%TO.C,D4*%
X60455000Y-83820000D03*
X57655000Y-83820000D03*
%TD*%
D13*
%TO.C,R62*%
X43320000Y-72390000D03*
X45320000Y-72390000D03*
%TD*%
D16*
%TO.C,C24*%
X85979000Y-117729000D03*
X85979000Y-115654000D03*
%TD*%
D12*
%TO.C,R7*%
X65532000Y-133731000D03*
X63532000Y-133731000D03*
%TD*%
D13*
%TO.C,R47*%
X65532000Y-58039000D03*
X67532000Y-58039000D03*
%TD*%
%TO.C,R30*%
X72260000Y-107823000D03*
X74260000Y-107823000D03*
%TD*%
D14*
%TO.C,R12*%
X100838000Y-115411000D03*
X100838000Y-113411000D03*
%TD*%
D15*
%TO.C,C22*%
X72687000Y-49911000D03*
X70612000Y-49911000D03*
%TD*%
D10*
%TO.C,TP11*%
X73660000Y-95631000D03*
%TD*%
D25*
%TO.C,Q1*%
X101865000Y-53406000D03*
X101865000Y-55306000D03*
X104140000Y-54356000D03*
%TD*%
D15*
%TO.C,C11*%
X82847000Y-120015000D03*
X80772000Y-120015000D03*
%TD*%
D14*
%TO.C,R13*%
X98552000Y-109823000D03*
X98552000Y-107823000D03*
%TD*%
D15*
%TO.C,C28*%
X92075000Y-101981000D03*
X90000000Y-101981000D03*
%TD*%
D13*
%TO.C,R37*%
X83312000Y-52959000D03*
X85312000Y-52959000D03*
%TD*%
D30*
%TO.C,C30*%
X49381000Y-128775000D03*
X52981000Y-128775000D03*
%TD*%
D14*
%TO.C,R14*%
X98552000Y-104235000D03*
X98552000Y-102235000D03*
%TD*%
D13*
%TO.C,R27*%
X49546000Y-138176000D03*
X51546000Y-138176000D03*
%TD*%
D20*
%TO.C,U4*%
X89284000Y-113919000D03*
X89284000Y-115189000D03*
X89284000Y-116459000D03*
X89284000Y-117729000D03*
X89284000Y-118999000D03*
X89284000Y-120269000D03*
X89284000Y-121539000D03*
X94234000Y-121539000D03*
X94234000Y-120269000D03*
X94234000Y-118999000D03*
X94234000Y-117729000D03*
X94234000Y-116459000D03*
X94234000Y-115189000D03*
X94234000Y-113919000D03*
%TD*%
D31*
%TO.C,R55*%
X62230000Y-74295000D03*
X62230000Y-76295000D03*
%TD*%
D10*
%TO.C,J2*%
X109855000Y-79756000D03*
X109855000Y-74676000D03*
X109855000Y-69596000D03*
%TD*%
D12*
%TO.C,R22*%
X86852000Y-137795000D03*
X84852000Y-137795000D03*
%TD*%
D16*
%TO.C,C9*%
X76708000Y-123063000D03*
X76708000Y-120988000D03*
%TD*%
D10*
%TO.C,J6*%
X79756000Y-46863000D03*
%TD*%
%TO.C,TP10*%
X67310000Y-95631000D03*
%TD*%
D13*
%TO.C,R53*%
X60230000Y-70485000D03*
X62230000Y-70485000D03*
%TD*%
D14*
%TO.C,R17*%
X98552000Y-87487000D03*
X98552000Y-85487000D03*
%TD*%
D10*
%TO.C,RV2*%
X109982000Y-125349000D03*
X109982000Y-120269000D03*
X109982000Y-115189000D03*
%TD*%
D31*
%TO.C,R54*%
X66040000Y-74295000D03*
X66040000Y-76295000D03*
%TD*%
D16*
%TO.C,C6*%
X42926000Y-112330000D03*
X42926000Y-110255000D03*
%TD*%
D10*
%TO.C,J3*%
X90932000Y-137795000D03*
%TD*%
%TO.C,TP1*%
X102616000Y-60071000D03*
%TD*%
D11*
%TO.C,C14*%
X76200000Y-85979000D03*
X78275000Y-85979000D03*
%TD*%
D13*
%TO.C,R28*%
X59452000Y-131191000D03*
X61452000Y-131191000D03*
%TD*%
D10*
%TO.C,J4*%
X80264000Y-137795000D03*
%TD*%
D13*
%TO.C,R49*%
X65564000Y-50927000D03*
X67564000Y-50927000D03*
%TD*%
D11*
%TO.C,C27*%
X45698500Y-108455000D03*
X47773500Y-108455000D03*
%TD*%
D16*
%TO.C,C25*%
X98044000Y-119804000D03*
X98044000Y-117729000D03*
%TD*%
D12*
%TO.C,R59*%
X60055000Y-87630000D03*
X58055000Y-87630000D03*
%TD*%
%TO.C,R61*%
X45320000Y-80010000D03*
X43320000Y-80010000D03*
%TD*%
D10*
%TO.C,J1*%
X109855000Y-64516000D03*
X109855000Y-59436000D03*
X109855000Y-54356000D03*
%TD*%
D16*
%TO.C,C7*%
X46736000Y-125835000D03*
X46736000Y-123760000D03*
%TD*%
D10*
%TO.C,TP6*%
X61468000Y-109347000D03*
%TD*%
%TO.C,J9*%
X37465000Y-90170000D03*
%TD*%
D11*
%TO.C,C26*%
X69596000Y-80899000D03*
X71671000Y-80899000D03*
%TD*%
D13*
%TO.C,R52*%
X43320000Y-76200000D03*
X45320000Y-76200000D03*
%TD*%
D12*
%TO.C,R50*%
X39100000Y-84455000D03*
X37100000Y-84455000D03*
%TD*%
D21*
%TO.C,C13*%
X70612000Y-101961000D03*
X70612000Y-99461000D03*
%TD*%
D32*
%TO.C,U6*%
X69790000Y-125461000D03*
X69790000Y-126111000D03*
X69790000Y-126761000D03*
X72450000Y-126761000D03*
X72450000Y-126111000D03*
X72450000Y-125461000D03*
%TD*%
D10*
%TO.C,TP3*%
X100330000Y-46863000D03*
%TD*%
%TO.C,J7*%
X46990000Y-46863000D03*
%TD*%
%TO.C,TP13*%
X37465000Y-95885000D03*
%TD*%
D14*
%TO.C,R11*%
X100838000Y-120999000D03*
X100838000Y-118999000D03*
%TD*%
D13*
%TO.C,R39*%
X77756000Y-54991000D03*
X79756000Y-54991000D03*
%TD*%
D10*
%TO.C,J5*%
X69596000Y-137795000D03*
%TD*%
D14*
%TO.C,R31*%
X76200000Y-117459000D03*
X76200000Y-115459000D03*
%TD*%
D13*
%TO.C,R57*%
X90075000Y-94615000D03*
X92075000Y-94615000D03*
%TD*%
D10*
%TO.C,TP5*%
X37846000Y-115440000D03*
%TD*%
D13*
%TO.C,R33*%
X83312000Y-65659000D03*
X85312000Y-65659000D03*
%TD*%
D21*
%TO.C,R32*%
X56388000Y-124079000D03*
D22*
X64008000Y-124079000D03*
%TD*%
D12*
%TO.C,R41*%
X86455000Y-92456000D03*
X84455000Y-92456000D03*
%TD*%
D11*
%TO.C,C4*%
X57850000Y-80010000D03*
X59925000Y-80010000D03*
%TD*%
D14*
%TO.C,R10*%
X100838000Y-126587000D03*
X100838000Y-124587000D03*
%TD*%
D13*
%TO.C,R35*%
X89408000Y-65659000D03*
X91408000Y-65659000D03*
%TD*%
D12*
%TO.C,R46*%
X67532000Y-62103000D03*
X65532000Y-62103000D03*
%TD*%
D20*
%TO.C,U8*%
X83885000Y-84582000D03*
X83885000Y-85852000D03*
X83885000Y-87122000D03*
X83885000Y-88392000D03*
X88835000Y-88392000D03*
X88835000Y-87122000D03*
X88835000Y-85852000D03*
X88835000Y-84582000D03*
%TD*%
D13*
%TO.C,R58*%
X90075000Y-98171000D03*
X92075000Y-98171000D03*
%TD*%
D14*
%TO.C,R9*%
X100838000Y-132175000D03*
X100838000Y-130175000D03*
%TD*%
D19*
%TO.C,C12*%
X66040000Y-69193500D03*
X66040000Y-71268500D03*
%TD*%
D13*
%TO.C,R34*%
X77740000Y-73279000D03*
X79740000Y-73279000D03*
%TD*%
D12*
%TO.C,R8*%
X65484000Y-137795000D03*
X63484000Y-137795000D03*
%TD*%
D29*
%TO.C,D1*%
X75060000Y-111887000D03*
X72260000Y-111887000D03*
%TD*%
D27*
%TO.C,U2*%
X38148500Y-127185000D03*
X38148500Y-125285000D03*
X36273500Y-126235000D03*
%TD*%
D10*
%TO.C,TP14*%
X60960000Y-102870000D03*
%TD*%
%TO.C,TP2*%
X92964000Y-46863000D03*
%TD*%
D13*
%TO.C,R40*%
X74676000Y-80899000D03*
X76676000Y-80899000D03*
%TD*%
D11*
%TO.C,C17*%
X81745000Y-77851000D03*
X83820000Y-77851000D03*
%TD*%
D13*
%TO.C,R26*%
X54896000Y-138176000D03*
X56896000Y-138176000D03*
%TD*%
D14*
%TO.C,R48*%
X47244000Y-60690000D03*
X47244000Y-58690000D03*
%TD*%
D12*
%TO.C,R51*%
X38465000Y-65405000D03*
X36465000Y-65405000D03*
%TD*%
D10*
%TO.C,TP8*%
X79248000Y-64389000D03*
%TD*%
%TO.C,J8*%
X37465000Y-58420000D03*
%TD*%
D26*
%TO.C,D3*%
X70352000Y-58039000D03*
X73152000Y-58039000D03*
%TD*%
D10*
%TO.C,TP12*%
X67564000Y-46863000D03*
%TD*%
D17*
%TO.C,REF\u002A\u002A*%
X108585000Y-136906000D03*
%TD*%
D13*
%TO.C,R60*%
X58055000Y-91440000D03*
X60055000Y-91440000D03*
%TD*%
D15*
%TO.C,C21*%
X79799000Y-69215000D03*
X77724000Y-69215000D03*
%TD*%
D17*
%TO.C,REF\u002A\u002A*%
X38100000Y-136906000D03*
%TD*%
D23*
%TO.C,U5*%
X79375000Y-128078000D03*
X80645000Y-128078000D03*
X81915000Y-128078000D03*
X83185000Y-128078000D03*
X83185000Y-123128000D03*
X81915000Y-123128000D03*
X80645000Y-123128000D03*
X79375000Y-123128000D03*
%TD*%
D10*
%TO.C,RV10*%
X38735000Y-79375000D03*
X38735000Y-74295000D03*
X38735000Y-69215000D03*
%TD*%
%TO.C,J11*%
X85725000Y-101981000D03*
%TD*%
D13*
%TO.C,R43*%
X40926000Y-124965000D03*
X42926000Y-124965000D03*
%TD*%
D11*
%TO.C,C5*%
X43282500Y-83820000D03*
X45357500Y-83820000D03*
%TD*%
D33*
%TO.C,C1*%
X97155000Y-65681000D03*
X97155000Y-62081000D03*
%TD*%
D12*
%TO.C,R24*%
X76200000Y-133731000D03*
X74200000Y-133731000D03*
%TD*%
D34*
%TO.C,RV6*%
X85471000Y-58420000D03*
X93091000Y-55880000D03*
X98171000Y-58420000D03*
%TD*%
%TO.C,RV7*%
X85471000Y-71755000D03*
X93091000Y-69215000D03*
X98171000Y-71755000D03*
%TD*%
%TO.C,RV4*%
X58801000Y-118110000D03*
X66421000Y-115570000D03*
X71501000Y-118110000D03*
%TD*%
%TO.C,RV9*%
X61981000Y-62230000D03*
X59441000Y-54610000D03*
X61981000Y-49530000D03*
%TD*%
%TO.C,RV3*%
X46736000Y-138176000D03*
X54356000Y-135636000D03*
X59436000Y-138176000D03*
%TD*%
%TO.C,RV8*%
X54356000Y-62230000D03*
X51816000Y-54610000D03*
X54356000Y-49530000D03*
%TD*%
%TO.C,RV5*%
X78246000Y-109225000D03*
X85866000Y-106685000D03*
X90946000Y-109225000D03*
%TD*%
M02*
