%TF.GenerationSoftware,KiCad,Pcbnew,7.0.8-7.0.8~ubuntu23.04.1*%
%TF.CreationDate,2023-11-19T22:38:12+01:00*%
%TF.ProjectId,vco_4,76636f5f-342e-46b6-9963-61645f706362,rev?*%
%TF.SameCoordinates,Original*%
%TF.FileFunction,Copper,L2,Inr*%
%TF.FilePolarity,Positive*%
%FSLAX46Y46*%
G04 Gerber Fmt 4.6, Leading zero omitted, Abs format (unit mm)*
G04 Created by KiCad (PCBNEW 7.0.8-7.0.8~ubuntu23.04.1) date 2023-11-19 22:38:12*
%MOMM*%
%LPD*%
G01*
G04 APERTURE LIST*
%TA.AperFunction,ComponentPad*%
%ADD10C,2.000000*%
%TD*%
%TA.AperFunction,ComponentPad*%
%ADD11C,1.440000*%
%TD*%
%TA.AperFunction,ComponentPad*%
%ADD12C,1.600000*%
%TD*%
%TA.AperFunction,ComponentPad*%
%ADD13O,1.600000X1.600000*%
%TD*%
%TA.AperFunction,ViaPad*%
%ADD14C,1.200000*%
%TD*%
%TA.AperFunction,ViaPad*%
%ADD15C,0.800000*%
%TD*%
%TA.AperFunction,Conductor*%
%ADD16C,1.000000*%
%TD*%
G04 APERTURE END LIST*
D10*
%TO.N,Net-(R31-Pad1)*%
%TO.C,TP7*%
X141224000Y-110236000D03*
%TD*%
%TO.N,Net-(U8B-+)*%
%TO.C,SW2*%
X181356000Y-85852000D03*
%TO.N,Net-(R18-Pad2)*%
X181356000Y-89662000D03*
%TO.N,Net-(R17-Pad2)*%
X181356000Y-94742000D03*
%TO.N,Net-(R16-Pad2)*%
X181356000Y-99822000D03*
%TO.N,Net-(R15-Pad2)*%
X181356000Y-104902000D03*
%TO.N,Net-(U8D-+)*%
X181356000Y-109982000D03*
%TO.N,GND*%
X176276000Y-85852000D03*
%TO.N,Net-(U8A-+)*%
X176276000Y-89662000D03*
%TO.N,Net-(R11-Pad2)*%
X176276000Y-94742000D03*
%TO.N,Net-(R10-Pad2)*%
X176276000Y-99822000D03*
%TO.N,Net-(R10-Pad1)*%
X176276000Y-104902000D03*
%TD*%
%TO.N,Net-(J10-Pin_1)*%
%TO.C,J10*%
X128016000Y-47752000D03*
%TD*%
D11*
%TO.N,Net-(R48-Pad1)*%
%TO.C,RV8*%
X127000000Y-52822000D03*
%TO.N,Net-(U7A-+)*%
X127000000Y-55362000D03*
%TO.N,GND*%
X127000000Y-57902000D03*
%TD*%
%TO.N,GND*%
%TO.C,RV6*%
X163586000Y-59944000D03*
%TO.N,Net-(C29-Pad1)*%
X161046000Y-59944000D03*
%TO.N,Net-(R37-Pad1)*%
X158506000Y-59944000D03*
%TD*%
D10*
%TO.N,Net-(D3-A)*%
%TO.C,TP9*%
X160020000Y-47752000D03*
%TD*%
%TO.N,-10V*%
%TO.C,TP4*%
X127000000Y-73914000D03*
%TD*%
D11*
%TO.N,/Core/summed_input*%
%TO.C,RV4*%
X144272000Y-117856000D03*
%TO.N,Net-(D1-A)*%
X141732000Y-117856000D03*
%TO.N,Net-(R29-Pad1)*%
X139192000Y-117856000D03*
%TD*%
%TO.N,Net-(R30-Pad2)*%
%TO.C,RV5*%
X154432000Y-110236000D03*
%TO.N,Net-(C11-Pad2)*%
X154432000Y-112776000D03*
X154432000Y-115316000D03*
%TD*%
D10*
%TO.N,Net-(Q3-G)*%
%TO.C,TP11*%
X147320000Y-96520000D03*
%TD*%
%TO.N,Net-(J1-Pin_1)*%
%TO.C,J2*%
X183515000Y-80645000D03*
%TO.N,GND*%
X183515000Y-75565000D03*
%TO.N,Net-(J1-Pin_3)*%
X183515000Y-70485000D03*
%TD*%
%TO.N,Net-(D3-A)*%
%TO.C,J6*%
X153416000Y-47752000D03*
%TD*%
%TO.N,/Core/raw_saw*%
%TO.C,TP10*%
X140970000Y-96520000D03*
%TD*%
%TO.N,Net-(U8D--)*%
%TO.C,RV2*%
X183642000Y-126238000D03*
%TO.N,Net-(U8C-+)*%
X183642000Y-121158000D03*
%TO.N,Net-(U8A--)*%
X183642000Y-116078000D03*
%TD*%
%TO.N,Net-(J3-Pin_1)*%
%TO.C,J3*%
X164592000Y-138684000D03*
%TD*%
%TO.N,+12V*%
%TO.C,TP1*%
X176276000Y-60960000D03*
%TD*%
D11*
%TO.N,Net-(J7-Pin_1)*%
%TO.C,RV9*%
X134620000Y-52832000D03*
X134620000Y-55372000D03*
%TO.N,Net-(R47-Pad2)*%
X134620000Y-57912000D03*
%TD*%
D10*
%TO.N,Net-(J4-Pin_1)*%
%TO.C,J4*%
X153924000Y-138684000D03*
%TD*%
%TO.N,Net-(J1-Pin_1)*%
%TO.C,J1*%
X183515000Y-65405000D03*
%TO.N,GND*%
X183515000Y-60325000D03*
%TO.N,Net-(J1-Pin_3)*%
X183515000Y-55245000D03*
%TD*%
D12*
%TO.N,Net-(U3A-+)*%
%TO.C,R6*%
X144780000Y-130810000D03*
D13*
%TO.N,/Core/summed_input*%
X144780000Y-123190000D03*
%TD*%
D10*
%TO.N,Net-(D1-A)*%
%TO.C,TP6*%
X135128000Y-110236000D03*
%TD*%
%TO.N,Net-(J9-Pin_1)*%
%TO.C,J9*%
X120396000Y-106172000D03*
%TD*%
D11*
%TO.N,Net-(R35-Pad2)*%
%TO.C,RV7*%
X163576000Y-72644000D03*
%TO.N,Net-(D2-A)*%
X161036000Y-72644000D03*
X158496000Y-72644000D03*
%TD*%
D12*
%TO.N,Net-(Q3-S)*%
%TO.C,C13*%
X144272000Y-102850000D03*
%TO.N,/Core/raw_saw*%
X144272000Y-100350000D03*
%TD*%
D10*
%TO.N,-12V*%
%TO.C,TP3*%
X173990000Y-47752000D03*
%TD*%
%TO.N,Net-(J7-Pin_1)*%
%TO.C,J7*%
X134620000Y-47752000D03*
%TD*%
%TO.N,Net-(J9-Pin_1)*%
%TO.C,TP13*%
X120396000Y-112268000D03*
%TD*%
%TO.N,Net-(J5-Pin_1)*%
%TO.C,J5*%
X143256000Y-138684000D03*
%TD*%
%TO.N,+10V*%
%TO.C,TP5*%
X120418000Y-100076000D03*
%TD*%
D12*
%TO.N,+10V*%
%TO.C,R32*%
X130048000Y-124968000D03*
D13*
%TO.N,Net-(U3B--)*%
X137668000Y-124968000D03*
%TD*%
D11*
%TO.N,Net-(R27-Pad1)*%
%TO.C,RV3*%
X128534000Y-136652000D03*
%TO.N,Net-(R28-Pad1)*%
X125994000Y-136652000D03*
%TO.N,Net-(R26-Pad2)*%
X123454000Y-136652000D03*
%TD*%
D10*
%TO.N,GND*%
%TO.C,TP14*%
X127254000Y-66802000D03*
%TD*%
%TO.N,GND*%
%TO.C,TP2*%
X166624000Y-47752000D03*
%TD*%
%TO.N,Net-(D2-A)*%
%TO.C,TP8*%
X152908000Y-65278000D03*
%TD*%
%TO.N,Net-(J8-Pin_1)*%
%TO.C,J8*%
X114300000Y-67056000D03*
%TD*%
%TO.N,Net-(J7-Pin_1)*%
%TO.C,TP12*%
X141224000Y-47752000D03*
%TD*%
%TO.N,Net-(R50-Pad1)*%
%TO.C,RV10*%
X115570000Y-81534000D03*
%TO.N,Net-(R61-Pad2)*%
X115570000Y-76454000D03*
%TO.N,Net-(R51-Pad1)*%
X115570000Y-71374000D03*
%TD*%
%TO.N,Net-(J11-Pin_1)*%
%TO.C,J11*%
X159385000Y-102870000D03*
%TD*%
D14*
%TO.N,+12V*%
X159639000Y-120080000D03*
D15*
X168656000Y-66548000D03*
D14*
X138176000Y-70104000D03*
X149860000Y-85344000D03*
X114554000Y-91186000D03*
X150368000Y-125476000D03*
X125006000Y-98806000D03*
X162560000Y-80772000D03*
%TO.N,GND*%
X171704000Y-121920000D03*
X154432000Y-131064000D03*
X165608000Y-97536000D03*
X158496000Y-123952000D03*
X126746000Y-93218000D03*
X141986000Y-127000000D03*
X116332000Y-87630000D03*
X151892000Y-85344000D03*
X167132000Y-53848000D03*
X138684000Y-85852000D03*
X168370000Y-88392000D03*
X146558000Y-138684000D03*
X159638500Y-115062000D03*
X116332000Y-90961500D03*
X151892000Y-121920000D03*
D15*
X173736000Y-64516000D03*
D14*
X156464000Y-138684000D03*
X154940000Y-70104000D03*
X136652000Y-66040000D03*
X167640000Y-83312000D03*
D15*
X173736000Y-54356000D03*
D14*
X141478000Y-71882000D03*
X134366000Y-81280000D03*
X135636000Y-138684000D03*
X152908000Y-91440000D03*
X146304000Y-69088000D03*
X133648000Y-97790000D03*
X172212000Y-106934000D03*
X135636000Y-119888000D03*
X160020000Y-98552000D03*
%TO.N,-12V*%
X152654000Y-89408000D03*
X171958000Y-116586000D03*
X150622000Y-68834000D03*
X160528000Y-130556000D03*
X124768000Y-81280000D03*
D15*
X168656000Y-56388000D03*
D14*
X128396782Y-90424000D03*
X136652000Y-89408000D03*
D15*
%TO.N,+10V*%
X118364000Y-74930000D03*
X144018000Y-105664000D03*
X160020000Y-95250000D03*
X124206000Y-66294000D03*
X160020000Y-91186000D03*
X121412000Y-92202000D03*
X170180000Y-75184000D03*
X124206000Y-72898000D03*
X132112000Y-138652000D03*
X139192000Y-55880000D03*
X142748000Y-53340000D03*
X155702000Y-52070000D03*
%TO.N,-10V*%
X131572000Y-129286000D03*
X146050000Y-56134000D03*
X125476000Y-109728000D03*
X124968000Y-87122000D03*
X168910000Y-137414000D03*
%TO.N,/Core/summed_input*%
X151384000Y-129032000D03*
%TO.N,Net-(U3B--)*%
X143764000Y-124968000D03*
%TO.N,Net-(U5-STRB)*%
X146812000Y-84328000D03*
X145288000Y-83058000D03*
%TO.N,Net-(D1-A)*%
X141732000Y-122936000D03*
%TO.N,Net-(D2-A)*%
X148036000Y-62992000D03*
X150114000Y-73914000D03*
%TO.N,Net-(D3-A)*%
X144526000Y-75438000D03*
X153416000Y-57404000D03*
X148760500Y-58928000D03*
X120737500Y-85852000D03*
%TO.N,Net-(J10-Pin_1)*%
X133096000Y-63500000D03*
%TO.N,Net-(R10-Pad1)*%
X178054000Y-113792000D03*
%TO.N,Net-(R10-Pad2)*%
X177038000Y-113792000D03*
%TO.N,Net-(R11-Pad2)*%
X176022000Y-113792000D03*
%TO.N,Net-(R31-Pad1)*%
X147828000Y-121920000D03*
X147828000Y-127000000D03*
X147828000Y-116840000D03*
%TO.N,Net-(U6--)*%
X159004000Y-92164500D03*
X161460500Y-92202000D03*
X159258000Y-88900000D03*
%TO.N,Net-(R49-Pad1)*%
X139224000Y-53308000D03*
X143256000Y-64516000D03*
%TO.N,Net-(Q3-S)*%
X144145000Y-91440000D03*
X140208000Y-122936000D03*
%TO.N,Net-(U2A-+)*%
X123190000Y-76454000D03*
X119888000Y-88392000D03*
X123190000Y-66294000D03*
%TO.N,Net-(U8B-+)*%
X164338000Y-119888000D03*
%TO.N,Net-(U8C-+)*%
X169672000Y-119888000D03*
%TO.N,Net-(U8A--)*%
X164592000Y-114808000D03*
%TO.N,Net-(U8D--)*%
X170434000Y-116840000D03*
X181102000Y-118872000D03*
%TO.N,Net-(U8D-+)*%
X179070000Y-118872000D03*
X169672000Y-117518500D03*
%TO.N,Net-(U8A-+)*%
X170688000Y-110744000D03*
%TD*%
D16*
%TO.N,+12V*%
X161036000Y-114300000D02*
X169926000Y-105410000D01*
X125006000Y-98806000D02*
X125006000Y-100038000D01*
X162560000Y-104275836D02*
X156972000Y-109863836D01*
X161036000Y-118683000D02*
X161036000Y-114300000D01*
X150368000Y-125476000D02*
X150368000Y-91948000D01*
X125006000Y-100038000D02*
X121158000Y-103886000D01*
X149352000Y-126492000D02*
X149352000Y-136144000D01*
X150368000Y-91948000D02*
X149860000Y-91440000D01*
X121158000Y-103886000D02*
X114554000Y-103886000D01*
X159639000Y-120080000D02*
X161036000Y-118683000D01*
X150368000Y-136144000D02*
X156972000Y-136144000D01*
X149860000Y-91440000D02*
X149860000Y-85344000D01*
X150368000Y-125476000D02*
X149352000Y-126492000D01*
X168656000Y-66548000D02*
X174244000Y-60960000D01*
X149352000Y-136144000D02*
X150368000Y-136144000D01*
X121158000Y-134620000D02*
X142494000Y-134620000D01*
X142494000Y-134620000D02*
X144018000Y-136144000D01*
X138176000Y-73660000D02*
X149860000Y-85344000D01*
X162560000Y-80772000D02*
X162560000Y-104275836D01*
X114554000Y-91186000D02*
X114554000Y-103886000D01*
X162560000Y-136144000D02*
X163830000Y-134874000D01*
X174244000Y-60960000D02*
X176276000Y-60960000D01*
X162560000Y-136144000D02*
X156972000Y-136144000D01*
X156972000Y-109863836D02*
X156972000Y-136144000D01*
X169926000Y-81661000D02*
X168656000Y-80391000D01*
X163830000Y-124271000D02*
X163830000Y-134874000D01*
X138176000Y-70104000D02*
X138176000Y-73660000D01*
X169926000Y-105410000D02*
X169926000Y-81661000D01*
X114554000Y-128016000D02*
X121158000Y-134620000D01*
X114554000Y-103886000D02*
X114554000Y-128016000D01*
X159639000Y-120080000D02*
X163830000Y-124271000D01*
X168656000Y-80391000D02*
X168656000Y-66548000D01*
X144018000Y-136144000D02*
X149352000Y-136144000D01*
%TO.N,-12V*%
X166116000Y-91948000D02*
X164084000Y-93980000D01*
X130556000Y-72644000D02*
X130556000Y-50546000D01*
X155448000Y-84074000D02*
X155448000Y-73914000D01*
X130556000Y-75492000D02*
X130556000Y-72644000D01*
X174244000Y-85479836D02*
X179070000Y-80653836D01*
X136652000Y-78740000D02*
X130556000Y-72644000D01*
X179070000Y-80653836D02*
X179070000Y-80010000D01*
X164084000Y-107696000D02*
X158339000Y-113441000D01*
X128396782Y-90424000D02*
X128396782Y-84908782D01*
X130556000Y-50546000D02*
X132334000Y-50546000D01*
X128396782Y-84908782D02*
X124768000Y-81280000D01*
X168664000Y-50546000D02*
X168664000Y-48633000D01*
X149860000Y-68072000D02*
X150622000Y-68834000D01*
X168664000Y-48633000D02*
X169545000Y-47752000D01*
X171958000Y-109982000D02*
X174244000Y-107696000D01*
X168656000Y-62484000D02*
X166116000Y-65024000D01*
X164084000Y-93980000D02*
X164084000Y-107696000D01*
X149860000Y-50546000D02*
X149860000Y-68072000D01*
X169545000Y-47752000D02*
X173990000Y-47752000D01*
X168656000Y-56388000D02*
X168664000Y-56380000D01*
X124768000Y-81280000D02*
X130556000Y-75492000D01*
X132334000Y-50546000D02*
X149860000Y-50546000D01*
X160528000Y-123444000D02*
X160528000Y-130556000D01*
X174244000Y-107696000D02*
X174244000Y-85479836D01*
X152654000Y-89408000D02*
X152654000Y-86868000D01*
X168664000Y-56380000D02*
X168664000Y-50546000D01*
X136652000Y-89408000D02*
X136652000Y-78740000D01*
X173990000Y-47752000D02*
X179070000Y-52832000D01*
X158339000Y-113441000D02*
X158339000Y-121255000D01*
X150622000Y-68834000D02*
X155448000Y-73660000D01*
X158339000Y-121255000D02*
X160528000Y-123444000D01*
X155448000Y-73660000D02*
X155448000Y-73914000D01*
X166116000Y-65024000D02*
X166116000Y-91948000D01*
X171958000Y-116586000D02*
X171958000Y-109982000D01*
X152654000Y-86868000D02*
X155448000Y-84074000D01*
X179070000Y-52832000D02*
X179070000Y-80010000D01*
X149860000Y-50546000D02*
X168664000Y-50546000D01*
X168656000Y-56388000D02*
X168656000Y-62484000D01*
%TO.N,Net-(J1-Pin_1)*%
X185215000Y-67105000D02*
X183515000Y-65405000D01*
X185215000Y-78945000D02*
X185215000Y-67105000D01*
X183515000Y-80645000D02*
X185215000Y-78945000D01*
%TO.N,Net-(J1-Pin_3)*%
X181815000Y-56945000D02*
X183515000Y-55245000D01*
X183515000Y-70485000D02*
X181815000Y-68785000D01*
X181815000Y-68785000D02*
X181815000Y-56945000D01*
%TD*%
M02*
