%TF.GenerationSoftware,KiCad,Pcbnew,7.0.9-7.0.9~ubuntu23.04.1*%
%TF.CreationDate,2024-01-02T14:37:14+01:00*%
%TF.ProjectId,vco_1,76636f5f-312e-46b6-9963-61645f706362,rev?*%
%TF.SameCoordinates,Original*%
%TF.FileFunction,Legend,Bot*%
%TF.FilePolarity,Positive*%
%FSLAX46Y46*%
G04 Gerber Fmt 4.6, Leading zero omitted, Abs format (unit mm)*
G04 Created by KiCad (PCBNEW 7.0.9-7.0.9~ubuntu23.04.1) date 2024-01-02 14:37:14*
%MOMM*%
%LPD*%
G01*
G04 APERTURE LIST*
%ADD10C,0.150000*%
%ADD11C,0.120000*%
G04 APERTURE END LIST*
D10*
X93301238Y-53939819D02*
X93634571Y-53463628D01*
X93872666Y-53939819D02*
X93872666Y-52939819D01*
X93872666Y-52939819D02*
X93491714Y-52939819D01*
X93491714Y-52939819D02*
X93396476Y-52987438D01*
X93396476Y-52987438D02*
X93348857Y-53035057D01*
X93348857Y-53035057D02*
X93301238Y-53130295D01*
X93301238Y-53130295D02*
X93301238Y-53273152D01*
X93301238Y-53273152D02*
X93348857Y-53368390D01*
X93348857Y-53368390D02*
X93396476Y-53416009D01*
X93396476Y-53416009D02*
X93491714Y-53463628D01*
X93491714Y-53463628D02*
X93872666Y-53463628D01*
X93015523Y-52939819D02*
X92682190Y-53939819D01*
X92682190Y-53939819D02*
X92348857Y-52939819D01*
X91586952Y-52939819D02*
X91777428Y-52939819D01*
X91777428Y-52939819D02*
X91872666Y-52987438D01*
X91872666Y-52987438D02*
X91920285Y-53035057D01*
X91920285Y-53035057D02*
X92015523Y-53177914D01*
X92015523Y-53177914D02*
X92063142Y-53368390D01*
X92063142Y-53368390D02*
X92063142Y-53749342D01*
X92063142Y-53749342D02*
X92015523Y-53844580D01*
X92015523Y-53844580D02*
X91967904Y-53892200D01*
X91967904Y-53892200D02*
X91872666Y-53939819D01*
X91872666Y-53939819D02*
X91682190Y-53939819D01*
X91682190Y-53939819D02*
X91586952Y-53892200D01*
X91586952Y-53892200D02*
X91539333Y-53844580D01*
X91539333Y-53844580D02*
X91491714Y-53749342D01*
X91491714Y-53749342D02*
X91491714Y-53511247D01*
X91491714Y-53511247D02*
X91539333Y-53416009D01*
X91539333Y-53416009D02*
X91586952Y-53368390D01*
X91586952Y-53368390D02*
X91682190Y-53320771D01*
X91682190Y-53320771D02*
X91872666Y-53320771D01*
X91872666Y-53320771D02*
X91967904Y-53368390D01*
X91967904Y-53368390D02*
X92015523Y-53416009D01*
X92015523Y-53416009D02*
X92063142Y-53511247D01*
X93301238Y-67274819D02*
X93634571Y-66798628D01*
X93872666Y-67274819D02*
X93872666Y-66274819D01*
X93872666Y-66274819D02*
X93491714Y-66274819D01*
X93491714Y-66274819D02*
X93396476Y-66322438D01*
X93396476Y-66322438D02*
X93348857Y-66370057D01*
X93348857Y-66370057D02*
X93301238Y-66465295D01*
X93301238Y-66465295D02*
X93301238Y-66608152D01*
X93301238Y-66608152D02*
X93348857Y-66703390D01*
X93348857Y-66703390D02*
X93396476Y-66751009D01*
X93396476Y-66751009D02*
X93491714Y-66798628D01*
X93491714Y-66798628D02*
X93872666Y-66798628D01*
X93015523Y-66274819D02*
X92682190Y-67274819D01*
X92682190Y-67274819D02*
X92348857Y-66274819D01*
X92110761Y-66274819D02*
X91444095Y-66274819D01*
X91444095Y-66274819D02*
X91872666Y-67274819D01*
X66631238Y-113629819D02*
X66964571Y-113153628D01*
X67202666Y-113629819D02*
X67202666Y-112629819D01*
X67202666Y-112629819D02*
X66821714Y-112629819D01*
X66821714Y-112629819D02*
X66726476Y-112677438D01*
X66726476Y-112677438D02*
X66678857Y-112725057D01*
X66678857Y-112725057D02*
X66631238Y-112820295D01*
X66631238Y-112820295D02*
X66631238Y-112963152D01*
X66631238Y-112963152D02*
X66678857Y-113058390D01*
X66678857Y-113058390D02*
X66726476Y-113106009D01*
X66726476Y-113106009D02*
X66821714Y-113153628D01*
X66821714Y-113153628D02*
X67202666Y-113153628D01*
X66345523Y-112629819D02*
X66012190Y-113629819D01*
X66012190Y-113629819D02*
X65678857Y-112629819D01*
X64916952Y-112963152D02*
X64916952Y-113629819D01*
X65155047Y-112582200D02*
X65393142Y-113296485D01*
X65393142Y-113296485D02*
X64774095Y-113296485D01*
X57500819Y-54399761D02*
X57024628Y-54066428D01*
X57500819Y-53828333D02*
X56500819Y-53828333D01*
X56500819Y-53828333D02*
X56500819Y-54209285D01*
X56500819Y-54209285D02*
X56548438Y-54304523D01*
X56548438Y-54304523D02*
X56596057Y-54352142D01*
X56596057Y-54352142D02*
X56691295Y-54399761D01*
X56691295Y-54399761D02*
X56834152Y-54399761D01*
X56834152Y-54399761D02*
X56929390Y-54352142D01*
X56929390Y-54352142D02*
X56977009Y-54304523D01*
X56977009Y-54304523D02*
X57024628Y-54209285D01*
X57024628Y-54209285D02*
X57024628Y-53828333D01*
X56500819Y-54685476D02*
X57500819Y-55018809D01*
X57500819Y-55018809D02*
X56500819Y-55352142D01*
X57500819Y-55733095D02*
X57500819Y-55923571D01*
X57500819Y-55923571D02*
X57453200Y-56018809D01*
X57453200Y-56018809D02*
X57405580Y-56066428D01*
X57405580Y-56066428D02*
X57262723Y-56161666D01*
X57262723Y-56161666D02*
X57072247Y-56209285D01*
X57072247Y-56209285D02*
X56691295Y-56209285D01*
X56691295Y-56209285D02*
X56596057Y-56161666D01*
X56596057Y-56161666D02*
X56548438Y-56114047D01*
X56548438Y-56114047D02*
X56500819Y-56018809D01*
X56500819Y-56018809D02*
X56500819Y-55828333D01*
X56500819Y-55828333D02*
X56548438Y-55733095D01*
X56548438Y-55733095D02*
X56596057Y-55685476D01*
X56596057Y-55685476D02*
X56691295Y-55637857D01*
X56691295Y-55637857D02*
X56929390Y-55637857D01*
X56929390Y-55637857D02*
X57024628Y-55685476D01*
X57024628Y-55685476D02*
X57072247Y-55733095D01*
X57072247Y-55733095D02*
X57119866Y-55828333D01*
X57119866Y-55828333D02*
X57119866Y-56018809D01*
X57119866Y-56018809D02*
X57072247Y-56114047D01*
X57072247Y-56114047D02*
X57024628Y-56161666D01*
X57024628Y-56161666D02*
X56929390Y-56209285D01*
X54566238Y-133695819D02*
X54899571Y-133219628D01*
X55137666Y-133695819D02*
X55137666Y-132695819D01*
X55137666Y-132695819D02*
X54756714Y-132695819D01*
X54756714Y-132695819D02*
X54661476Y-132743438D01*
X54661476Y-132743438D02*
X54613857Y-132791057D01*
X54613857Y-132791057D02*
X54566238Y-132886295D01*
X54566238Y-132886295D02*
X54566238Y-133029152D01*
X54566238Y-133029152D02*
X54613857Y-133124390D01*
X54613857Y-133124390D02*
X54661476Y-133172009D01*
X54661476Y-133172009D02*
X54756714Y-133219628D01*
X54756714Y-133219628D02*
X55137666Y-133219628D01*
X54280523Y-132695819D02*
X53947190Y-133695819D01*
X53947190Y-133695819D02*
X53613857Y-132695819D01*
X53375761Y-132695819D02*
X52756714Y-132695819D01*
X52756714Y-132695819D02*
X53090047Y-133076771D01*
X53090047Y-133076771D02*
X52947190Y-133076771D01*
X52947190Y-133076771D02*
X52851952Y-133124390D01*
X52851952Y-133124390D02*
X52804333Y-133172009D01*
X52804333Y-133172009D02*
X52756714Y-133267247D01*
X52756714Y-133267247D02*
X52756714Y-133505342D01*
X52756714Y-133505342D02*
X52804333Y-133600580D01*
X52804333Y-133600580D02*
X52851952Y-133648200D01*
X52851952Y-133648200D02*
X52947190Y-133695819D01*
X52947190Y-133695819D02*
X53232904Y-133695819D01*
X53232904Y-133695819D02*
X53328142Y-133648200D01*
X53328142Y-133648200D02*
X53375761Y-133600580D01*
X49875819Y-54399761D02*
X49399628Y-54066428D01*
X49875819Y-53828333D02*
X48875819Y-53828333D01*
X48875819Y-53828333D02*
X48875819Y-54209285D01*
X48875819Y-54209285D02*
X48923438Y-54304523D01*
X48923438Y-54304523D02*
X48971057Y-54352142D01*
X48971057Y-54352142D02*
X49066295Y-54399761D01*
X49066295Y-54399761D02*
X49209152Y-54399761D01*
X49209152Y-54399761D02*
X49304390Y-54352142D01*
X49304390Y-54352142D02*
X49352009Y-54304523D01*
X49352009Y-54304523D02*
X49399628Y-54209285D01*
X49399628Y-54209285D02*
X49399628Y-53828333D01*
X48875819Y-54685476D02*
X49875819Y-55018809D01*
X49875819Y-55018809D02*
X48875819Y-55352142D01*
X49304390Y-55828333D02*
X49256771Y-55733095D01*
X49256771Y-55733095D02*
X49209152Y-55685476D01*
X49209152Y-55685476D02*
X49113914Y-55637857D01*
X49113914Y-55637857D02*
X49066295Y-55637857D01*
X49066295Y-55637857D02*
X48971057Y-55685476D01*
X48971057Y-55685476D02*
X48923438Y-55733095D01*
X48923438Y-55733095D02*
X48875819Y-55828333D01*
X48875819Y-55828333D02*
X48875819Y-56018809D01*
X48875819Y-56018809D02*
X48923438Y-56114047D01*
X48923438Y-56114047D02*
X48971057Y-56161666D01*
X48971057Y-56161666D02*
X49066295Y-56209285D01*
X49066295Y-56209285D02*
X49113914Y-56209285D01*
X49113914Y-56209285D02*
X49209152Y-56161666D01*
X49209152Y-56161666D02*
X49256771Y-56114047D01*
X49256771Y-56114047D02*
X49304390Y-56018809D01*
X49304390Y-56018809D02*
X49304390Y-55828333D01*
X49304390Y-55828333D02*
X49352009Y-55733095D01*
X49352009Y-55733095D02*
X49399628Y-55685476D01*
X49399628Y-55685476D02*
X49494866Y-55637857D01*
X49494866Y-55637857D02*
X49685342Y-55637857D01*
X49685342Y-55637857D02*
X49780580Y-55685476D01*
X49780580Y-55685476D02*
X49828200Y-55733095D01*
X49828200Y-55733095D02*
X49875819Y-55828333D01*
X49875819Y-55828333D02*
X49875819Y-56018809D01*
X49875819Y-56018809D02*
X49828200Y-56114047D01*
X49828200Y-56114047D02*
X49780580Y-56161666D01*
X49780580Y-56161666D02*
X49685342Y-56209285D01*
X49685342Y-56209285D02*
X49494866Y-56209285D01*
X49494866Y-56209285D02*
X49399628Y-56161666D01*
X49399628Y-56161666D02*
X49352009Y-56114047D01*
X49352009Y-56114047D02*
X49304390Y-56018809D01*
X86076238Y-104744819D02*
X86409571Y-104268628D01*
X86647666Y-104744819D02*
X86647666Y-103744819D01*
X86647666Y-103744819D02*
X86266714Y-103744819D01*
X86266714Y-103744819D02*
X86171476Y-103792438D01*
X86171476Y-103792438D02*
X86123857Y-103840057D01*
X86123857Y-103840057D02*
X86076238Y-103935295D01*
X86076238Y-103935295D02*
X86076238Y-104078152D01*
X86076238Y-104078152D02*
X86123857Y-104173390D01*
X86123857Y-104173390D02*
X86171476Y-104221009D01*
X86171476Y-104221009D02*
X86266714Y-104268628D01*
X86266714Y-104268628D02*
X86647666Y-104268628D01*
X85790523Y-103744819D02*
X85457190Y-104744819D01*
X85457190Y-104744819D02*
X85123857Y-103744819D01*
X84314333Y-103744819D02*
X84790523Y-103744819D01*
X84790523Y-103744819D02*
X84838142Y-104221009D01*
X84838142Y-104221009D02*
X84790523Y-104173390D01*
X84790523Y-104173390D02*
X84695285Y-104125771D01*
X84695285Y-104125771D02*
X84457190Y-104125771D01*
X84457190Y-104125771D02*
X84361952Y-104173390D01*
X84361952Y-104173390D02*
X84314333Y-104221009D01*
X84314333Y-104221009D02*
X84266714Y-104316247D01*
X84266714Y-104316247D02*
X84266714Y-104554342D01*
X84266714Y-104554342D02*
X84314333Y-104649580D01*
X84314333Y-104649580D02*
X84361952Y-104697200D01*
X84361952Y-104697200D02*
X84457190Y-104744819D01*
X84457190Y-104744819D02*
X84695285Y-104744819D01*
X84695285Y-104744819D02*
X84790523Y-104697200D01*
X84790523Y-104697200D02*
X84838142Y-104649580D01*
D11*
%TO.C,RV6*%
X103111000Y-58450000D02*
X101592000Y-58450000D01*
X103111000Y-57150000D02*
X102352000Y-57150000D01*
X103111000Y-55851000D02*
X103111000Y-58450000D01*
X103111000Y-55851000D02*
X101592000Y-55851000D01*
X101592000Y-55851000D02*
X101592000Y-58450000D01*
X101591000Y-59685000D02*
X82301000Y-59685000D01*
X101591000Y-54615000D02*
X101591000Y-59685000D01*
X101591000Y-54615000D02*
X82301000Y-54615000D01*
X82301000Y-54615000D02*
X82301000Y-59685000D01*
%TO.C,RV7*%
X103111000Y-71785000D02*
X101592000Y-71785000D01*
X103111000Y-70485000D02*
X102352000Y-70485000D01*
X103111000Y-69186000D02*
X103111000Y-71785000D01*
X103111000Y-69186000D02*
X101592000Y-69186000D01*
X101592000Y-69186000D02*
X101592000Y-71785000D01*
X101591000Y-73020000D02*
X82301000Y-73020000D01*
X101591000Y-67950000D02*
X101591000Y-73020000D01*
X101591000Y-67950000D02*
X82301000Y-67950000D01*
X82301000Y-67950000D02*
X82301000Y-73020000D01*
%TO.C,RV4*%
X76441000Y-118140000D02*
X74922000Y-118140000D01*
X76441000Y-116840000D02*
X75682000Y-116840000D01*
X76441000Y-115541000D02*
X76441000Y-118140000D01*
X76441000Y-115541000D02*
X74922000Y-115541000D01*
X74922000Y-115541000D02*
X74922000Y-118140000D01*
X74921000Y-119375000D02*
X55631000Y-119375000D01*
X74921000Y-114305000D02*
X74921000Y-119375000D01*
X74921000Y-114305000D02*
X55631000Y-114305000D01*
X55631000Y-114305000D02*
X55631000Y-119375000D01*
%TO.C,RV9*%
X62011000Y-44590000D02*
X62011000Y-46109000D01*
X60711000Y-44590000D02*
X60711000Y-45349000D01*
X59412000Y-44590000D02*
X62011000Y-44590000D01*
X59412000Y-44590000D02*
X59412000Y-46109000D01*
X59412000Y-46109000D02*
X62011000Y-46109000D01*
X63246000Y-46110000D02*
X63246000Y-65400000D01*
X58176000Y-46110000D02*
X63246000Y-46110000D01*
X58176000Y-46110000D02*
X58176000Y-65400000D01*
X58176000Y-65400000D02*
X63246000Y-65400000D01*
%TO.C,RV3*%
X64376000Y-138206000D02*
X62857000Y-138206000D01*
X64376000Y-136906000D02*
X63617000Y-136906000D01*
X64376000Y-135607000D02*
X64376000Y-138206000D01*
X64376000Y-135607000D02*
X62857000Y-135607000D01*
X62857000Y-135607000D02*
X62857000Y-138206000D01*
X62856000Y-139441000D02*
X43566000Y-139441000D01*
X62856000Y-134371000D02*
X62856000Y-139441000D01*
X62856000Y-134371000D02*
X43566000Y-134371000D01*
X43566000Y-134371000D02*
X43566000Y-139441000D01*
%TO.C,RV8*%
X54386000Y-44590000D02*
X54386000Y-46109000D01*
X53086000Y-44590000D02*
X53086000Y-45349000D01*
X51787000Y-44590000D02*
X54386000Y-44590000D01*
X51787000Y-44590000D02*
X51787000Y-46109000D01*
X51787000Y-46109000D02*
X54386000Y-46109000D01*
X55621000Y-46110000D02*
X55621000Y-65400000D01*
X50551000Y-46110000D02*
X55621000Y-46110000D01*
X50551000Y-46110000D02*
X50551000Y-65400000D01*
X50551000Y-65400000D02*
X55621000Y-65400000D01*
%TO.C,RV5*%
X95886000Y-109255000D02*
X94367000Y-109255000D01*
X95886000Y-107955000D02*
X95127000Y-107955000D01*
X95886000Y-106656000D02*
X95886000Y-109255000D01*
X95886000Y-106656000D02*
X94367000Y-106656000D01*
X94367000Y-106656000D02*
X94367000Y-109255000D01*
X94366000Y-110490000D02*
X75076000Y-110490000D01*
X94366000Y-105420000D02*
X94366000Y-110490000D01*
X94366000Y-105420000D02*
X75076000Y-105420000D01*
X75076000Y-105420000D02*
X75076000Y-110490000D01*
%TD*%
M02*
