%TF.GenerationSoftware,KiCad,Pcbnew,7.0.8-7.0.8~ubuntu23.04.1*%
%TF.CreationDate,2023-11-19T22:38:12+01:00*%
%TF.ProjectId,vco_4,76636f5f-342e-46b6-9963-61645f706362,rev?*%
%TF.SameCoordinates,Original*%
%TF.FileFunction,Copper,L1,Top*%
%TF.FilePolarity,Positive*%
%FSLAX46Y46*%
G04 Gerber Fmt 4.6, Leading zero omitted, Abs format (unit mm)*
G04 Created by KiCad (PCBNEW 7.0.8-7.0.8~ubuntu23.04.1) date 2023-11-19 22:38:12*
%MOMM*%
%LPD*%
G01*
G04 APERTURE LIST*
G04 Aperture macros list*
%AMRoundRect*
0 Rectangle with rounded corners*
0 $1 Rounding radius*
0 $2 $3 $4 $5 $6 $7 $8 $9 X,Y pos of 4 corners*
0 Add a 4 corners polygon primitive as box body*
4,1,4,$2,$3,$4,$5,$6,$7,$8,$9,$2,$3,0*
0 Add four circle primitives for the rounded corners*
1,1,$1+$1,$2,$3*
1,1,$1+$1,$4,$5*
1,1,$1+$1,$6,$7*
1,1,$1+$1,$8,$9*
0 Add four rect primitives between the rounded corners*
20,1,$1+$1,$2,$3,$4,$5,0*
20,1,$1+$1,$4,$5,$6,$7,0*
20,1,$1+$1,$6,$7,$8,$9,0*
20,1,$1+$1,$8,$9,$2,$3,0*%
G04 Aperture macros list end*
%TA.AperFunction,ComponentPad*%
%ADD10C,2.000000*%
%TD*%
%TA.AperFunction,SMDPad,CuDef*%
%ADD11RoundRect,0.250000X-0.337500X-0.475000X0.337500X-0.475000X0.337500X0.475000X-0.337500X0.475000X0*%
%TD*%
%TA.AperFunction,SMDPad,CuDef*%
%ADD12RoundRect,0.250000X0.350000X0.450000X-0.350000X0.450000X-0.350000X-0.450000X0.350000X-0.450000X0*%
%TD*%
%TA.AperFunction,SMDPad,CuDef*%
%ADD13RoundRect,0.250000X-0.350000X-0.450000X0.350000X-0.450000X0.350000X0.450000X-0.350000X0.450000X0*%
%TD*%
%TA.AperFunction,SMDPad,CuDef*%
%ADD14RoundRect,0.250000X0.450000X-0.350000X0.450000X0.350000X-0.450000X0.350000X-0.450000X-0.350000X0*%
%TD*%
%TA.AperFunction,SMDPad,CuDef*%
%ADD15RoundRect,0.250000X0.337500X0.475000X-0.337500X0.475000X-0.337500X-0.475000X0.337500X-0.475000X0*%
%TD*%
%TA.AperFunction,ComponentPad*%
%ADD16C,1.440000*%
%TD*%
%TA.AperFunction,SMDPad,CuDef*%
%ADD17RoundRect,0.250000X0.475000X-0.337500X0.475000X0.337500X-0.475000X0.337500X-0.475000X-0.337500X0*%
%TD*%
%TA.AperFunction,SMDPad,CuDef*%
%ADD18RoundRect,0.250000X-1.050000X-0.550000X1.050000X-0.550000X1.050000X0.550000X-1.050000X0.550000X0*%
%TD*%
%TA.AperFunction,SMDPad,CuDef*%
%ADD19RoundRect,0.250000X-0.475000X0.337500X-0.475000X-0.337500X0.475000X-0.337500X0.475000X0.337500X0*%
%TD*%
%TA.AperFunction,SMDPad,CuDef*%
%ADD20RoundRect,0.250000X-0.550000X1.050000X-0.550000X-1.050000X0.550000X-1.050000X0.550000X1.050000X0*%
%TD*%
%TA.AperFunction,SMDPad,CuDef*%
%ADD21RoundRect,0.150000X-0.825000X-0.150000X0.825000X-0.150000X0.825000X0.150000X-0.825000X0.150000X0*%
%TD*%
%TA.AperFunction,SMDPad,CuDef*%
%ADD22RoundRect,0.150000X-0.512500X-0.150000X0.512500X-0.150000X0.512500X0.150000X-0.512500X0.150000X0*%
%TD*%
%TA.AperFunction,SMDPad,CuDef*%
%ADD23RoundRect,0.250000X-0.300000X-0.300000X0.300000X-0.300000X0.300000X0.300000X-0.300000X0.300000X0*%
%TD*%
%TA.AperFunction,SMDPad,CuDef*%
%ADD24RoundRect,0.150000X0.150000X-0.587500X0.150000X0.587500X-0.150000X0.587500X-0.150000X-0.587500X0*%
%TD*%
%TA.AperFunction,SMDPad,CuDef*%
%ADD25RoundRect,0.250000X-0.450000X0.350000X-0.450000X-0.350000X0.450000X-0.350000X0.450000X0.350000X0*%
%TD*%
%TA.AperFunction,SMDPad,CuDef*%
%ADD26RoundRect,0.150000X-0.587500X-0.150000X0.587500X-0.150000X0.587500X0.150000X-0.587500X0.150000X0*%
%TD*%
%TA.AperFunction,SMDPad,CuDef*%
%ADD27RoundRect,0.250000X1.050000X0.550000X-1.050000X0.550000X-1.050000X-0.550000X1.050000X-0.550000X0*%
%TD*%
%TA.AperFunction,ComponentPad*%
%ADD28C,1.600000*%
%TD*%
%TA.AperFunction,ComponentPad*%
%ADD29O,1.600000X1.600000*%
%TD*%
%TA.AperFunction,SMDPad,CuDef*%
%ADD30R,1.500000X0.400000*%
%TD*%
%TA.AperFunction,SMDPad,CuDef*%
%ADD31RoundRect,0.250000X0.300000X0.300000X-0.300000X0.300000X-0.300000X-0.300000X0.300000X-0.300000X0*%
%TD*%
%TA.AperFunction,SMDPad,CuDef*%
%ADD32RoundRect,0.150000X-0.150000X0.587500X-0.150000X-0.587500X0.150000X-0.587500X0.150000X0.587500X0*%
%TD*%
%TA.AperFunction,SMDPad,CuDef*%
%ADD33RoundRect,0.150000X0.150000X-0.825000X0.150000X0.825000X-0.150000X0.825000X-0.150000X-0.825000X0*%
%TD*%
%TA.AperFunction,SMDPad,CuDef*%
%ADD34RoundRect,0.250000X0.550000X-1.050000X0.550000X1.050000X-0.550000X1.050000X-0.550000X-1.050000X0*%
%TD*%
%TA.AperFunction,ViaPad*%
%ADD35C,1.200000*%
%TD*%
%TA.AperFunction,ViaPad*%
%ADD36C,0.800000*%
%TD*%
%TA.AperFunction,Conductor*%
%ADD37C,1.000000*%
%TD*%
%TA.AperFunction,Conductor*%
%ADD38C,0.250000*%
%TD*%
%TA.AperFunction,Conductor*%
%ADD39C,0.400000*%
%TD*%
%TA.AperFunction,Conductor*%
%ADD40C,0.500000*%
%TD*%
G04 APERTURE END LIST*
D10*
%TO.P,TP7,1,1*%
%TO.N,Net-(R31-Pad1)*%
X141224000Y-110236000D03*
%TD*%
D11*
%TO.P,C18,1*%
%TO.N,+12V*%
X162560000Y-82550000D03*
%TO.P,C18,2*%
%TO.N,GND*%
X164635000Y-82550000D03*
%TD*%
D12*
%TO.P,R45,1*%
%TO.N,-10V*%
X146272000Y-54864000D03*
%TO.P,R45,2*%
%TO.N,Net-(D2-K)*%
X144272000Y-54864000D03*
%TD*%
D13*
%TO.P,R1,1*%
%TO.N,+12V*%
X125006000Y-100584000D03*
%TO.P,R1,2*%
%TO.N,Net-(U1-K)*%
X127006000Y-100584000D03*
%TD*%
D10*
%TO.P,SW2,1*%
%TO.N,Net-(U8B-+)*%
X181356000Y-85852000D03*
%TO.P,SW2,2*%
%TO.N,Net-(R18-Pad2)*%
X181356000Y-89662000D03*
%TO.P,SW2,3*%
%TO.N,Net-(R17-Pad2)*%
X181356000Y-94742000D03*
%TO.P,SW2,4*%
%TO.N,Net-(R16-Pad2)*%
X181356000Y-99822000D03*
%TO.P,SW2,5*%
%TO.N,Net-(R15-Pad2)*%
X181356000Y-104902000D03*
%TO.P,SW2,6*%
%TO.N,Net-(U8D-+)*%
X181356000Y-109982000D03*
%TO.P,SW2,7*%
%TO.N,GND*%
X176276000Y-85852000D03*
%TO.P,SW2,8*%
%TO.N,Net-(U8A-+)*%
X176276000Y-89662000D03*
%TO.P,SW2,9*%
%TO.N,Net-(R11-Pad2)*%
X176276000Y-94742000D03*
%TO.P,SW2,10*%
%TO.N,Net-(R10-Pad2)*%
X176276000Y-99822000D03*
%TO.P,SW2,11*%
%TO.N,Net-(R10-Pad1)*%
X176276000Y-104902000D03*
%TD*%
D12*
%TO.P,R23,1*%
%TO.N,Net-(J3-Pin_1)*%
X160528000Y-134620000D03*
%TO.P,R23,2*%
%TO.N,Net-(U3A-+)*%
X158528000Y-134620000D03*
%TD*%
D14*
%TO.P,R18,1*%
%TO.N,Net-(R17-Pad2)*%
X172212000Y-82788000D03*
%TO.P,R18,2*%
%TO.N,Net-(R18-Pad2)*%
X172212000Y-80788000D03*
%TD*%
D12*
%TO.P,R21,1*%
%TO.N,Net-(J4-Pin_1)*%
X149860000Y-138684000D03*
%TO.P,R21,2*%
%TO.N,GND*%
X147860000Y-138684000D03*
%TD*%
D10*
%TO.P,J10,1,Pin_1*%
%TO.N,Net-(J10-Pin_1)*%
X128016000Y-47752000D03*
%TD*%
D11*
%TO.P,C29,1*%
%TO.N,Net-(C29-Pad1)*%
X163068000Y-53848000D03*
%TO.P,C29,2*%
%TO.N,GND*%
X165143000Y-53848000D03*
%TD*%
D15*
%TO.P,C8,1*%
%TO.N,Net-(U3A-+)*%
X155469500Y-133096000D03*
%TO.P,C8,2*%
%TO.N,/Core/summed_input*%
X153394500Y-133096000D03*
%TD*%
D16*
%TO.P,RV8,1,1*%
%TO.N,Net-(R48-Pad1)*%
X127000000Y-52822000D03*
%TO.P,RV8,2,2*%
%TO.N,Net-(U7A-+)*%
X127000000Y-55362000D03*
%TO.P,RV8,3,3*%
%TO.N,GND*%
X127000000Y-57902000D03*
%TD*%
D17*
%TO.P,C15,1*%
%TO.N,-12V*%
X138684000Y-89408000D03*
%TO.P,C15,2*%
%TO.N,GND*%
X138684000Y-87333000D03*
%TD*%
D16*
%TO.P,RV6,1,1*%
%TO.N,GND*%
X163586000Y-59944000D03*
%TO.P,RV6,2,2*%
%TO.N,Net-(C29-Pad1)*%
X161046000Y-59944000D03*
%TO.P,RV6,3,3*%
%TO.N,Net-(R37-Pad1)*%
X158506000Y-59944000D03*
%TD*%
D14*
%TO.P,R56,1*%
%TO.N,-10V*%
X174498000Y-138652000D03*
%TO.P,R56,2*%
%TO.N,Net-(R56-Pad2)*%
X174498000Y-136652000D03*
%TD*%
D11*
%TO.P,C20,1*%
%TO.N,Net-(Q3-G)*%
X166370000Y-90170000D03*
%TO.P,C20,2*%
%TO.N,GND*%
X168445000Y-90170000D03*
%TD*%
D14*
%TO.P,R16,1*%
%TO.N,Net-(R15-Pad2)*%
X172212000Y-93964000D03*
%TO.P,R16,2*%
%TO.N,Net-(R16-Pad2)*%
X172212000Y-91964000D03*
%TD*%
%TO.P,R19,1*%
%TO.N,Net-(R18-Pad2)*%
X172212000Y-77184000D03*
%TO.P,R19,2*%
%TO.N,+10V*%
X172212000Y-75184000D03*
%TD*%
D18*
%TO.P,C3,1*%
%TO.N,Net-(U1-K)*%
X130048000Y-94996000D03*
%TO.P,C3,2*%
%TO.N,GND*%
X133648000Y-94996000D03*
%TD*%
D19*
%TO.P,C10,1*%
%TO.N,GND*%
X160528000Y-126978500D03*
%TO.P,C10,2*%
%TO.N,-12V*%
X160528000Y-129053500D03*
%TD*%
D10*
%TO.P,TP9,1,1*%
%TO.N,Net-(D3-A)*%
X160020000Y-47752000D03*
%TD*%
D12*
%TO.P,R25,1*%
%TO.N,Net-(U8C--)*%
X166878000Y-131826000D03*
%TO.P,R25,2*%
%TO.N,Net-(U3A-+)*%
X164878000Y-131826000D03*
%TD*%
D20*
%TO.P,C2,1*%
%TO.N,GND*%
X170815000Y-52810000D03*
%TO.P,C2,2*%
%TO.N,-12V*%
X170815000Y-56410000D03*
%TD*%
D15*
%TO.P,C16,1*%
%TO.N,Net-(U11-A)*%
X126768000Y-83312000D03*
%TO.P,C16,2*%
%TO.N,-12V*%
X124693000Y-83312000D03*
%TD*%
D21*
%TO.P,U2,1*%
%TO.N,Net-(R53-Pad1)*%
X118197000Y-85852000D03*
%TO.P,U2,2,-*%
%TO.N,Net-(D3-A)*%
X118197000Y-87122000D03*
%TO.P,U2,3,+*%
%TO.N,Net-(U2A-+)*%
X118197000Y-88392000D03*
%TO.P,U2,4,V+*%
%TO.N,+12V*%
X118197000Y-89662000D03*
%TO.P,U2,5,+*%
%TO.N,GND*%
X118197000Y-90932000D03*
%TO.P,U2,6,-*%
%TO.N,Net-(U2B--)*%
X118197000Y-92202000D03*
%TO.P,U2,7*%
%TO.N,Net-(R54-Pad1)*%
X118197000Y-93472000D03*
%TO.P,U2,8*%
%TO.N,+10V*%
X123147000Y-93472000D03*
%TO.P,U2,9,-*%
X123147000Y-92202000D03*
%TO.P,U2,10,+*%
%TO.N,Net-(U1-K)*%
X123147000Y-90932000D03*
%TO.P,U2,11,V-*%
%TO.N,-12V*%
X123147000Y-89662000D03*
%TO.P,U2,12,+*%
%TO.N,Net-(U11-A)*%
X123147000Y-88392000D03*
%TO.P,U2,13,-*%
%TO.N,-10V*%
X123147000Y-87122000D03*
%TO.P,U2,14*%
X123147000Y-85852000D03*
%TD*%
D10*
%TO.P,TP4,1,1*%
%TO.N,-10V*%
X127000000Y-73914000D03*
%TD*%
D17*
%TO.P,C23,1*%
%TO.N,GND*%
X120904000Y-54399000D03*
%TO.P,C23,2*%
%TO.N,Net-(U7A-+)*%
X120904000Y-52324000D03*
%TD*%
D21*
%TO.P,U5,1,NULL*%
%TO.N,Net-(C26-Pad1)*%
X141797000Y-85471000D03*
%TO.P,U5,2,-*%
%TO.N,Net-(Q3-S)*%
X141797000Y-86741000D03*
%TO.P,U5,3,+*%
%TO.N,GND*%
X141797000Y-88011000D03*
%TO.P,U5,4,V-*%
%TO.N,-12V*%
X141797000Y-89281000D03*
%TO.P,U5,5,NULL*%
%TO.N,unconnected-(U5-NULL-Pad5)*%
X146747000Y-89281000D03*
%TO.P,U5,6*%
%TO.N,/Core/raw_saw*%
X146747000Y-88011000D03*
%TO.P,U5,7,V+*%
%TO.N,+12V*%
X146747000Y-86741000D03*
%TO.P,U5,8,STRB*%
%TO.N,Net-(U5-STRB)*%
X146747000Y-85471000D03*
%TD*%
D12*
%TO.P,R20,1*%
%TO.N,Net-(U8B--)*%
X166878000Y-127381000D03*
%TO.P,R20,2*%
%TO.N,Net-(U3A-+)*%
X164878000Y-127381000D03*
%TD*%
D13*
%TO.P,R42,1*%
%TO.N,Net-(U6--)*%
X158115000Y-97155000D03*
%TO.P,R42,2*%
%TO.N,GND*%
X160115000Y-97155000D03*
%TD*%
D22*
%TO.P,Q2,1,G*%
%TO.N,GND*%
X175525000Y-64455000D03*
%TO.P,Q2,2,S*%
%TO.N,+12V*%
X175525000Y-66355000D03*
%TO.P,Q2,3,D*%
%TO.N,Net-(J1-Pin_1)*%
X177800000Y-65405000D03*
%TD*%
D23*
%TO.P,D2,1,K*%
%TO.N,Net-(D2-K)*%
X144012000Y-62992000D03*
%TO.P,D2,2,A*%
%TO.N,Net-(D2-A)*%
X146812000Y-62992000D03*
%TD*%
D14*
%TO.P,R15,1*%
%TO.N,Net-(U8D-+)*%
X172212000Y-99536000D03*
%TO.P,R15,2*%
%TO.N,Net-(R15-Pad2)*%
X172212000Y-97536000D03*
%TD*%
D19*
%TO.P,C19,1*%
%TO.N,-12V*%
X154432000Y-89408000D03*
%TO.P,C19,2*%
%TO.N,GND*%
X154432000Y-91483000D03*
%TD*%
D16*
%TO.P,RV4,1,1*%
%TO.N,/Core/summed_input*%
X144272000Y-117856000D03*
%TO.P,RV4,2,2*%
%TO.N,Net-(D1-A)*%
X141732000Y-117856000D03*
%TO.P,RV4,3,3*%
%TO.N,Net-(R29-Pad1)*%
X139192000Y-117856000D03*
%TD*%
D13*
%TO.P,R44,1*%
%TO.N,Net-(Q3-G)*%
X166370000Y-86360000D03*
%TO.P,R44,2*%
%TO.N,GND*%
X168370000Y-86360000D03*
%TD*%
D24*
%TO.P,U1,1,K*%
%TO.N,Net-(U1-K)*%
X130898000Y-100505500D03*
%TO.P,U1,2,A*%
%TO.N,GND*%
X132798000Y-100505500D03*
%TO.P,U1,3*%
%TO.N,N/C*%
X131848000Y-98630500D03*
%TD*%
D25*
%TO.P,R29,1*%
%TO.N,Net-(R29-Pad1)*%
X134112000Y-117856000D03*
%TO.P,R29,2*%
%TO.N,GND*%
X134112000Y-119856000D03*
%TD*%
D13*
%TO.P,R36,1*%
%TO.N,Net-(R36-Pad1)*%
X151416000Y-52324000D03*
%TO.P,R36,2*%
%TO.N,Net-(D3-A)*%
X153416000Y-52324000D03*
%TD*%
D12*
%TO.P,R38,1*%
%TO.N,Net-(D2-A)*%
X153416000Y-59944000D03*
%TO.P,R38,2*%
%TO.N,Net-(U7D--)*%
X151416000Y-59944000D03*
%TD*%
D26*
%TO.P,Q3,1,D*%
%TO.N,/Core/raw_saw*%
X151541000Y-100650000D03*
%TO.P,Q3,2,S*%
%TO.N,Net-(Q3-S)*%
X151541000Y-102550000D03*
%TO.P,Q3,3,G*%
%TO.N,Net-(Q3-G)*%
X153416000Y-101600000D03*
%TD*%
D23*
%TO.P,D4,1,K*%
%TO.N,Net-(D4-K)*%
X132836000Y-73660000D03*
%TO.P,D4,2,A*%
%TO.N,Net-(D4-A)*%
X135636000Y-73660000D03*
%TD*%
D13*
%TO.P,R62,1*%
%TO.N,Net-(J8-Pin_1)*%
X119920000Y-69596000D03*
%TO.P,R62,2*%
%TO.N,GND*%
X121920000Y-69596000D03*
%TD*%
D17*
%TO.P,C24,1*%
%TO.N,+12V*%
X159639000Y-118618000D03*
%TO.P,C24,2*%
%TO.N,GND*%
X159639000Y-116543000D03*
%TD*%
D12*
%TO.P,R7,1*%
%TO.N,Net-(J5-Pin_1)*%
X139192000Y-134620000D03*
%TO.P,R7,2*%
%TO.N,Net-(U3A-+)*%
X137192000Y-134620000D03*
%TD*%
D13*
%TO.P,R47,1*%
%TO.N,Net-(U7A--)*%
X139192000Y-58928000D03*
%TO.P,R47,2*%
%TO.N,Net-(R47-Pad2)*%
X141192000Y-58928000D03*
%TD*%
%TO.P,R30,1*%
%TO.N,Net-(D1-K)*%
X145920000Y-108712000D03*
%TO.P,R30,2*%
%TO.N,Net-(R30-Pad2)*%
X147920000Y-108712000D03*
%TD*%
D14*
%TO.P,R12,1*%
%TO.N,Net-(R11-Pad2)*%
X174498000Y-116300000D03*
%TO.P,R12,2*%
%TO.N,Net-(U8A-+)*%
X174498000Y-114300000D03*
%TD*%
D15*
%TO.P,C22,1*%
%TO.N,-10V*%
X146347000Y-50800000D03*
%TO.P,C22,2*%
%TO.N,Net-(D2-K)*%
X144272000Y-50800000D03*
%TD*%
D16*
%TO.P,RV5,1,1*%
%TO.N,Net-(R30-Pad2)*%
X154432000Y-110236000D03*
%TO.P,RV5,2,2*%
%TO.N,Net-(C11-Pad2)*%
X154432000Y-112776000D03*
%TO.P,RV5,3,3*%
X154432000Y-115316000D03*
%TD*%
D10*
%TO.P,TP11,1,1*%
%TO.N,Net-(Q3-G)*%
X147320000Y-96520000D03*
%TD*%
D22*
%TO.P,Q1,1,G*%
%TO.N,GND*%
X175525000Y-54295000D03*
%TO.P,Q1,2,S*%
%TO.N,-12V*%
X175525000Y-56195000D03*
%TO.P,Q1,3,D*%
%TO.N,Net-(J1-Pin_3)*%
X177800000Y-55245000D03*
%TD*%
D15*
%TO.P,C11,1*%
%TO.N,Net-(U3B--)*%
X156507000Y-120904000D03*
%TO.P,C11,2*%
%TO.N,Net-(C11-Pad2)*%
X154432000Y-120904000D03*
%TD*%
D14*
%TO.P,R13,1*%
%TO.N,Net-(U8A-+)*%
X172212000Y-110712000D03*
%TO.P,R13,2*%
%TO.N,GND*%
X172212000Y-108712000D03*
%TD*%
D15*
%TO.P,C28,1*%
%TO.N,Net-(C28-Pad1)*%
X165735000Y-102870000D03*
%TO.P,C28,2*%
%TO.N,Net-(J11-Pin_1)*%
X163660000Y-102870000D03*
%TD*%
D13*
%TO.P,R37,1*%
%TO.N,Net-(R37-Pad1)*%
X156972000Y-53848000D03*
%TO.P,R37,2*%
%TO.N,+10V*%
X158972000Y-53848000D03*
%TD*%
D27*
%TO.P,C30,1*%
%TO.N,GND*%
X133648000Y-88392000D03*
%TO.P,C30,2*%
%TO.N,Net-(U11-A)*%
X130048000Y-88392000D03*
%TD*%
D14*
%TO.P,R14,1*%
%TO.N,GND*%
X172212000Y-105124000D03*
%TO.P,R14,2*%
%TO.N,Net-(U8D-+)*%
X172212000Y-103124000D03*
%TD*%
D25*
%TO.P,R27,1*%
%TO.N,Net-(R27-Pad1)*%
X134122000Y-136652000D03*
%TO.P,R27,2*%
%TO.N,+10V*%
X134122000Y-138652000D03*
%TD*%
D21*
%TO.P,U8,1*%
%TO.N,Net-(U8A--)*%
X162944000Y-114808000D03*
%TO.P,U8,2,-*%
X162944000Y-116078000D03*
%TO.P,U8,3,+*%
%TO.N,Net-(U8A-+)*%
X162944000Y-117348000D03*
%TO.P,U8,4,V+*%
%TO.N,+12V*%
X162944000Y-118618000D03*
%TO.P,U8,5,+*%
%TO.N,Net-(U8B-+)*%
X162944000Y-119888000D03*
%TO.P,U8,6,-*%
%TO.N,Net-(U8B--)*%
X162944000Y-121158000D03*
%TO.P,U8,7*%
X162944000Y-122428000D03*
%TO.P,U8,8*%
%TO.N,Net-(U8C--)*%
X167894000Y-122428000D03*
%TO.P,U8,9,-*%
X167894000Y-121158000D03*
%TO.P,U8,10,+*%
%TO.N,Net-(U8C-+)*%
X167894000Y-119888000D03*
%TO.P,U8,11,V-*%
%TO.N,-12V*%
X167894000Y-118618000D03*
%TO.P,U8,12,+*%
%TO.N,Net-(U8D-+)*%
X167894000Y-117348000D03*
%TO.P,U8,13,-*%
%TO.N,Net-(U8D--)*%
X167894000Y-116078000D03*
%TO.P,U8,14*%
X167894000Y-114808000D03*
%TD*%
D12*
%TO.P,R55,1*%
%TO.N,Net-(U2B--)*%
X115300000Y-101092000D03*
%TO.P,R55,2*%
%TO.N,Net-(J9-Pin_1)*%
X113300000Y-101092000D03*
%TD*%
D10*
%TO.P,J2,1,Pin_1*%
%TO.N,Net-(J1-Pin_1)*%
X183515000Y-80645000D03*
%TO.P,J2,2,Pin_2*%
%TO.N,GND*%
X183515000Y-75565000D03*
%TO.P,J2,3,Pin_3*%
%TO.N,Net-(J1-Pin_3)*%
X183515000Y-70485000D03*
%TD*%
D12*
%TO.P,R22,1*%
%TO.N,Net-(J3-Pin_1)*%
X160512000Y-138684000D03*
%TO.P,R22,2*%
%TO.N,GND*%
X158512000Y-138684000D03*
%TD*%
D17*
%TO.P,C9,1*%
%TO.N,+12V*%
X150368000Y-123952000D03*
%TO.P,C9,2*%
%TO.N,GND*%
X150368000Y-121877000D03*
%TD*%
D10*
%TO.P,J6,1,Pin_1*%
%TO.N,Net-(D3-A)*%
X153416000Y-47752000D03*
%TD*%
%TO.P,TP10,1,1*%
%TO.N,/Core/raw_saw*%
X140970000Y-96520000D03*
%TD*%
D13*
%TO.P,R53,1*%
%TO.N,Net-(R53-Pad1)*%
X113300000Y-97536000D03*
%TO.P,R53,2*%
%TO.N,Net-(U2B--)*%
X115300000Y-97536000D03*
%TD*%
D14*
%TO.P,R17,1*%
%TO.N,Net-(R16-Pad2)*%
X172212000Y-88376000D03*
%TO.P,R17,2*%
%TO.N,Net-(R17-Pad2)*%
X172212000Y-86376000D03*
%TD*%
D10*
%TO.P,RV2,1,1*%
%TO.N,Net-(U8D--)*%
X183642000Y-126238000D03*
%TO.P,RV2,2,2*%
%TO.N,Net-(U8C-+)*%
X183642000Y-121158000D03*
%TO.P,RV2,3,3*%
%TO.N,Net-(U8A--)*%
X183642000Y-116078000D03*
%TD*%
D12*
%TO.P,R54,1*%
%TO.N,Net-(R54-Pad1)*%
X115300000Y-104648000D03*
%TO.P,R54,2*%
%TO.N,Net-(J9-Pin_1)*%
X113300000Y-104648000D03*
%TD*%
D17*
%TO.P,C6,1*%
%TO.N,+12V*%
X114576000Y-89662000D03*
%TO.P,C6,2*%
%TO.N,GND*%
X114576000Y-87587000D03*
%TD*%
D10*
%TO.P,J3,1,Pin_1*%
%TO.N,Net-(J3-Pin_1)*%
X164592000Y-138684000D03*
%TD*%
%TO.P,TP1,1,1*%
%TO.N,+12V*%
X176276000Y-60960000D03*
%TD*%
D11*
%TO.P,C14,1*%
%TO.N,+12V*%
X149860000Y-86868000D03*
%TO.P,C14,2*%
%TO.N,GND*%
X151935000Y-86868000D03*
%TD*%
D13*
%TO.P,R28,1*%
%TO.N,Net-(R28-Pad1)*%
X133112000Y-132080000D03*
%TO.P,R28,2*%
%TO.N,Net-(U3A-+)*%
X135112000Y-132080000D03*
%TD*%
D16*
%TO.P,RV9,1,1*%
%TO.N,Net-(J7-Pin_1)*%
X134620000Y-52832000D03*
%TO.P,RV9,2,2*%
X134620000Y-55372000D03*
%TO.P,RV9,3,3*%
%TO.N,Net-(R47-Pad2)*%
X134620000Y-57912000D03*
%TD*%
D10*
%TO.P,J4,1,Pin_1*%
%TO.N,Net-(J4-Pin_1)*%
X153924000Y-138684000D03*
%TD*%
D13*
%TO.P,R49,1*%
%TO.N,Net-(R49-Pad1)*%
X139224000Y-51816000D03*
%TO.P,R49,2*%
%TO.N,Net-(J7-Pin_1)*%
X141224000Y-51816000D03*
%TD*%
D11*
%TO.P,C27,1*%
%TO.N,+12V*%
X124968500Y-97028000D03*
%TO.P,C27,2*%
%TO.N,Net-(U1-K)*%
X127043500Y-97028000D03*
%TD*%
D17*
%TO.P,C25,1*%
%TO.N,GND*%
X171704000Y-120693000D03*
%TO.P,C25,2*%
%TO.N,-12V*%
X171704000Y-118618000D03*
%TD*%
D13*
%TO.P,R59,1*%
%TO.N,Net-(D4-K)*%
X133096000Y-69596000D03*
%TO.P,R59,2*%
%TO.N,Net-(J10-Pin_1)*%
X135096000Y-69596000D03*
%TD*%
D12*
%TO.P,R61,1*%
%TO.N,Net-(U2A-+)*%
X121920000Y-76454000D03*
%TO.P,R61,2*%
%TO.N,Net-(R61-Pad2)*%
X119920000Y-76454000D03*
%TD*%
D10*
%TO.P,J1,1,Pin_1*%
%TO.N,Net-(J1-Pin_1)*%
X183515000Y-65405000D03*
%TO.P,J1,2,Pin_2*%
%TO.N,GND*%
X183515000Y-60325000D03*
%TO.P,J1,3,Pin_3*%
%TO.N,Net-(J1-Pin_3)*%
X183515000Y-55245000D03*
%TD*%
D17*
%TO.P,C7,1*%
%TO.N,GND*%
X126768000Y-91737000D03*
%TO.P,C7,2*%
%TO.N,-12V*%
X126768000Y-89662000D03*
%TD*%
D28*
%TO.P,R6,1*%
%TO.N,Net-(U3A-+)*%
X144780000Y-130810000D03*
D29*
%TO.P,R6,2*%
%TO.N,/Core/summed_input*%
X144780000Y-123190000D03*
%TD*%
D10*
%TO.P,TP6,1,1*%
%TO.N,Net-(D1-A)*%
X135128000Y-110236000D03*
%TD*%
%TO.P,J9,1,Pin_1*%
%TO.N,Net-(J9-Pin_1)*%
X120396000Y-106172000D03*
%TD*%
D11*
%TO.P,C26,1*%
%TO.N,Net-(C26-Pad1)*%
X143256000Y-81788000D03*
%TO.P,C26,2*%
%TO.N,Net-(U5-STRB)*%
X145331000Y-81788000D03*
%TD*%
D13*
%TO.P,R52,1*%
%TO.N,Net-(J8-Pin_1)*%
X119920000Y-66294000D03*
%TO.P,R52,2*%
%TO.N,Net-(U2A-+)*%
X121920000Y-66294000D03*
%TD*%
D16*
%TO.P,RV7,1,1*%
%TO.N,Net-(R35-Pad2)*%
X163576000Y-72644000D03*
%TO.P,RV7,2,2*%
%TO.N,Net-(D2-A)*%
X161036000Y-72644000D03*
%TO.P,RV7,3,3*%
X158496000Y-72644000D03*
%TD*%
D13*
%TO.P,R50,1*%
%TO.N,Net-(R50-Pad1)*%
X119888000Y-80010000D03*
%TO.P,R50,2*%
%TO.N,-10V*%
X121888000Y-80010000D03*
%TD*%
D28*
%TO.P,C13,1*%
%TO.N,Net-(Q3-S)*%
X144272000Y-102850000D03*
%TO.P,C13,2*%
%TO.N,/Core/raw_saw*%
X144272000Y-100350000D03*
%TD*%
D30*
%TO.P,U4,1*%
%TO.N,Net-(D1-A)*%
X143450000Y-126350000D03*
%TO.P,U4,2*%
%TO.N,GND*%
X143450000Y-127000000D03*
%TO.P,U4,3*%
%TO.N,Net-(Q3-S)*%
X143450000Y-127650000D03*
%TO.P,U4,4*%
%TO.N,Net-(R31-Pad1)*%
X146110000Y-127650000D03*
%TO.P,U4,5*%
X146110000Y-127000000D03*
%TO.P,U4,6*%
%TO.N,Net-(U3B--)*%
X146110000Y-126350000D03*
%TD*%
D10*
%TO.P,TP3,1,1*%
%TO.N,-12V*%
X173990000Y-47752000D03*
%TD*%
%TO.P,J7,1,Pin_1*%
%TO.N,Net-(J7-Pin_1)*%
X134620000Y-47752000D03*
%TD*%
%TO.P,TP13,1,1*%
%TO.N,Net-(J9-Pin_1)*%
X120396000Y-112268000D03*
%TD*%
D14*
%TO.P,R11,1*%
%TO.N,Net-(R10-Pad2)*%
X174498000Y-121888000D03*
%TO.P,R11,2*%
%TO.N,Net-(R11-Pad2)*%
X174498000Y-119888000D03*
%TD*%
D13*
%TO.P,R39,1*%
%TO.N,Net-(U7D--)*%
X151416000Y-55880000D03*
%TO.P,R39,2*%
%TO.N,Net-(D3-A)*%
X153416000Y-55880000D03*
%TD*%
D10*
%TO.P,J5,1,Pin_1*%
%TO.N,Net-(J5-Pin_1)*%
X143256000Y-138684000D03*
%TD*%
D14*
%TO.P,R31,1*%
%TO.N,Net-(R31-Pad1)*%
X149860000Y-118348000D03*
%TO.P,R31,2*%
%TO.N,Net-(C11-Pad2)*%
X149860000Y-116348000D03*
%TD*%
D13*
%TO.P,R57,1*%
%TO.N,Net-(U6--)*%
X163735000Y-95504000D03*
%TO.P,R57,2*%
%TO.N,Net-(C28-Pad1)*%
X165735000Y-95504000D03*
%TD*%
D10*
%TO.P,TP5,1,1*%
%TO.N,+10V*%
X120418000Y-100076000D03*
%TD*%
D13*
%TO.P,R33,1*%
%TO.N,Net-(C29-Pad1)*%
X156972000Y-66548000D03*
%TO.P,R33,2*%
%TO.N,Net-(U7C-+)*%
X158972000Y-66548000D03*
%TD*%
D28*
%TO.P,R32,1*%
%TO.N,+10V*%
X130048000Y-124968000D03*
D29*
%TO.P,R32,2*%
%TO.N,Net-(U3B--)*%
X137668000Y-124968000D03*
%TD*%
D12*
%TO.P,R41,1*%
%TO.N,+10V*%
X160115000Y-93345000D03*
%TO.P,R41,2*%
%TO.N,Net-(U6--)*%
X158115000Y-93345000D03*
%TD*%
D16*
%TO.P,RV3,1,1*%
%TO.N,Net-(R27-Pad1)*%
X128534000Y-136652000D03*
%TO.P,RV3,2,2*%
%TO.N,Net-(R28-Pad1)*%
X125994000Y-136652000D03*
%TO.P,RV3,3,3*%
%TO.N,Net-(R26-Pad2)*%
X123454000Y-136652000D03*
%TD*%
D14*
%TO.P,R10,1*%
%TO.N,Net-(R10-Pad1)*%
X174498000Y-127476000D03*
%TO.P,R10,2*%
%TO.N,Net-(R10-Pad2)*%
X174498000Y-125476000D03*
%TD*%
D13*
%TO.P,R35,1*%
%TO.N,Net-(U7C--)*%
X163068000Y-66548000D03*
%TO.P,R35,2*%
%TO.N,Net-(R35-Pad2)*%
X165068000Y-66548000D03*
%TD*%
D12*
%TO.P,R46,1*%
%TO.N,Net-(D2-K)*%
X141192000Y-62992000D03*
%TO.P,R46,2*%
%TO.N,Net-(U7A--)*%
X139192000Y-62992000D03*
%TD*%
D21*
%TO.P,U6,1,GND*%
%TO.N,-12V*%
X157545000Y-85471000D03*
%TO.P,U6,2,+*%
%TO.N,Net-(U6-+)*%
X157545000Y-86741000D03*
%TO.P,U6,3,-*%
%TO.N,Net-(U6--)*%
X157545000Y-88011000D03*
%TO.P,U6,4,V-*%
%TO.N,-12V*%
X157545000Y-89281000D03*
%TO.P,U6,5,BAL*%
%TO.N,unconnected-(U6-BAL-Pad5)*%
X162495000Y-89281000D03*
%TO.P,U6,6,STRB*%
%TO.N,unconnected-(U6-STRB-Pad6)*%
X162495000Y-88011000D03*
%TO.P,U6,7*%
%TO.N,Net-(Q3-G)*%
X162495000Y-86741000D03*
%TO.P,U6,8,V+*%
%TO.N,+12V*%
X162495000Y-85471000D03*
%TD*%
D13*
%TO.P,R58,1*%
%TO.N,Net-(J11-Pin_1)*%
X163735000Y-99060000D03*
%TO.P,R58,2*%
%TO.N,GND*%
X165735000Y-99060000D03*
%TD*%
D14*
%TO.P,R9,1*%
%TO.N,Net-(R56-Pad2)*%
X174498000Y-133064000D03*
%TO.P,R9,2*%
%TO.N,Net-(R10-Pad1)*%
X174498000Y-131064000D03*
%TD*%
D19*
%TO.P,C12,1*%
%TO.N,+12V*%
X139700000Y-70082500D03*
%TO.P,C12,2*%
%TO.N,GND*%
X139700000Y-72157500D03*
%TD*%
D13*
%TO.P,R34,1*%
%TO.N,/Core/raw_saw*%
X151400000Y-74168000D03*
%TO.P,R34,2*%
%TO.N,Net-(U7C--)*%
X153400000Y-74168000D03*
%TD*%
D21*
%TO.P,U7,1*%
%TO.N,Net-(R49-Pad1)*%
X143386000Y-66294000D03*
%TO.P,U7,2,-*%
%TO.N,Net-(U7A--)*%
X143386000Y-67564000D03*
%TO.P,U7,3,+*%
%TO.N,Net-(U7A-+)*%
X143386000Y-68834000D03*
%TO.P,U7,4,V+*%
%TO.N,+12V*%
X143386000Y-70104000D03*
%TO.P,U7,5,+*%
%TO.N,GND*%
X143386000Y-71374000D03*
%TO.P,U7,6,-*%
%TO.N,Net-(D3-A)*%
X143386000Y-72644000D03*
%TO.P,U7,7*%
%TO.N,Net-(D4-A)*%
X143386000Y-73914000D03*
%TO.P,U7,8*%
%TO.N,Net-(D2-A)*%
X148336000Y-73914000D03*
%TO.P,U7,9,-*%
%TO.N,Net-(U7C--)*%
X148336000Y-72644000D03*
%TO.P,U7,10,+*%
%TO.N,Net-(U7C-+)*%
X148336000Y-71374000D03*
%TO.P,U7,11,V-*%
%TO.N,-12V*%
X148336000Y-70104000D03*
%TO.P,U7,12,+*%
%TO.N,GND*%
X148336000Y-68834000D03*
%TO.P,U7,13,-*%
%TO.N,Net-(U7D--)*%
X148336000Y-67564000D03*
%TO.P,U7,14*%
%TO.N,Net-(R36-Pad1)*%
X148336000Y-66294000D03*
%TD*%
D12*
%TO.P,R8,1*%
%TO.N,Net-(J5-Pin_1)*%
X139144000Y-138684000D03*
%TO.P,R8,2*%
%TO.N,GND*%
X137144000Y-138684000D03*
%TD*%
D31*
%TO.P,D1,1,K*%
%TO.N,Net-(D1-K)*%
X148720000Y-112776000D03*
%TO.P,D1,2,A*%
%TO.N,Net-(D1-A)*%
X145920000Y-112776000D03*
%TD*%
D32*
%TO.P,U11,1,K*%
%TO.N,GND*%
X132798000Y-81358500D03*
%TO.P,U11,2,A*%
%TO.N,Net-(U11-A)*%
X130898000Y-81358500D03*
%TO.P,U11,3*%
%TO.N,N/C*%
X131848000Y-83233500D03*
%TD*%
D10*
%TO.P,TP14,1,1*%
%TO.N,GND*%
X127254000Y-66802000D03*
%TD*%
%TO.P,TP2,1,1*%
%TO.N,GND*%
X166624000Y-47752000D03*
%TD*%
D13*
%TO.P,R40,1*%
%TO.N,/Core/raw_saw*%
X148336000Y-81788000D03*
%TO.P,R40,2*%
%TO.N,Net-(U6-+)*%
X150336000Y-81788000D03*
%TD*%
D11*
%TO.P,C17,1*%
%TO.N,Net-(U6-+)*%
X155405000Y-78740000D03*
%TO.P,C17,2*%
%TO.N,Net-(Q3-G)*%
X157480000Y-78740000D03*
%TD*%
D12*
%TO.P,R26,1*%
%TO.N,-10V*%
X125444000Y-131064000D03*
%TO.P,R26,2*%
%TO.N,Net-(R26-Pad2)*%
X123444000Y-131064000D03*
%TD*%
D14*
%TO.P,R48,1*%
%TO.N,Net-(R48-Pad1)*%
X120904000Y-49244000D03*
%TO.P,R48,2*%
%TO.N,+10V*%
X120904000Y-47244000D03*
%TD*%
D13*
%TO.P,R51,1*%
%TO.N,Net-(R51-Pad1)*%
X119888000Y-72898000D03*
%TO.P,R51,2*%
%TO.N,+10V*%
X121888000Y-72898000D03*
%TD*%
D10*
%TO.P,TP8,1,1*%
%TO.N,Net-(D2-A)*%
X152908000Y-65278000D03*
%TD*%
%TO.P,J8,1,Pin_1*%
%TO.N,Net-(J8-Pin_1)*%
X114300000Y-67056000D03*
%TD*%
D23*
%TO.P,D3,1,K*%
%TO.N,Net-(D2-K)*%
X144012000Y-58928000D03*
%TO.P,D3,2,A*%
%TO.N,Net-(D3-A)*%
X146812000Y-58928000D03*
%TD*%
D10*
%TO.P,TP12,1,1*%
%TO.N,Net-(J7-Pin_1)*%
X141224000Y-47752000D03*
%TD*%
D13*
%TO.P,R60,1*%
%TO.N,Net-(J10-Pin_1)*%
X133096000Y-66040000D03*
%TO.P,R60,2*%
%TO.N,GND*%
X135096000Y-66040000D03*
%TD*%
D15*
%TO.P,C21,1*%
%TO.N,GND*%
X153459000Y-70104000D03*
%TO.P,C21,2*%
%TO.N,-12V*%
X151384000Y-70104000D03*
%TD*%
D33*
%TO.P,U3,1*%
%TO.N,/Core/summed_input*%
X153035000Y-128967000D03*
%TO.P,U3,2,-*%
%TO.N,GND*%
X154305000Y-128967000D03*
%TO.P,U3,3,+*%
%TO.N,Net-(U3A-+)*%
X155575000Y-128967000D03*
%TO.P,U3,4,V-*%
%TO.N,-12V*%
X156845000Y-128967000D03*
%TO.P,U3,5,+*%
%TO.N,GND*%
X156845000Y-124017000D03*
%TO.P,U3,6,-*%
%TO.N,Net-(U3B--)*%
X155575000Y-124017000D03*
%TO.P,U3,7*%
%TO.N,Net-(C11-Pad2)*%
X154305000Y-124017000D03*
%TO.P,U3,8,V+*%
%TO.N,+12V*%
X153035000Y-124017000D03*
%TD*%
D10*
%TO.P,RV10,1,1*%
%TO.N,Net-(R50-Pad1)*%
X115570000Y-81534000D03*
%TO.P,RV10,2,2*%
%TO.N,Net-(R61-Pad2)*%
X115570000Y-76454000D03*
%TO.P,RV10,3,3*%
%TO.N,Net-(R51-Pad1)*%
X115570000Y-71374000D03*
%TD*%
%TO.P,J11,1,Pin_1*%
%TO.N,Net-(J11-Pin_1)*%
X159385000Y-102870000D03*
%TD*%
D12*
%TO.P,R43,1*%
%TO.N,Net-(U11-A)*%
X126768000Y-79756000D03*
%TO.P,R43,2*%
%TO.N,-12V*%
X124768000Y-79756000D03*
%TD*%
D34*
%TO.P,C1,1*%
%TO.N,+12V*%
X170815000Y-66570000D03*
%TO.P,C1,2*%
%TO.N,GND*%
X170815000Y-62970000D03*
%TD*%
D12*
%TO.P,R24,1*%
%TO.N,Net-(J4-Pin_1)*%
X149860000Y-134620000D03*
%TO.P,R24,2*%
%TO.N,Net-(U3A-+)*%
X147860000Y-134620000D03*
%TD*%
D35*
%TO.N,+12V*%
X159639000Y-120080000D03*
D36*
X168656000Y-66548000D03*
D35*
X138176000Y-70104000D03*
X149860000Y-85344000D03*
X114554000Y-91186000D03*
X150368000Y-125476000D03*
X125006000Y-98806000D03*
X162560000Y-80772000D03*
%TO.N,GND*%
X171704000Y-121920000D03*
X154432000Y-131064000D03*
X165608000Y-97536000D03*
X158496000Y-123952000D03*
X126746000Y-93218000D03*
X141986000Y-127000000D03*
X116332000Y-87630000D03*
X151892000Y-85344000D03*
X167132000Y-53848000D03*
X138684000Y-85852000D03*
X168370000Y-88392000D03*
X146558000Y-138684000D03*
X159638500Y-115062000D03*
X116332000Y-90961500D03*
X151892000Y-121920000D03*
D36*
X173736000Y-64516000D03*
D35*
X156464000Y-138684000D03*
X154940000Y-70104000D03*
X136652000Y-66040000D03*
X167640000Y-83312000D03*
D36*
X173736000Y-54356000D03*
D35*
X141478000Y-71882000D03*
X134366000Y-81280000D03*
X135636000Y-138684000D03*
X152908000Y-91440000D03*
X146304000Y-69088000D03*
X133648000Y-97790000D03*
X172212000Y-106934000D03*
X135636000Y-119888000D03*
X160020000Y-98552000D03*
%TO.N,-12V*%
X152654000Y-89408000D03*
X171958000Y-116586000D03*
X150622000Y-68834000D03*
X160528000Y-130556000D03*
X124768000Y-81280000D03*
D36*
X168656000Y-56388000D03*
D35*
X128396782Y-90424000D03*
X136652000Y-89408000D03*
D36*
%TO.N,+10V*%
X118364000Y-74930000D03*
X144018000Y-105664000D03*
X160020000Y-95250000D03*
X124206000Y-66294000D03*
X160020000Y-91186000D03*
X121412000Y-92202000D03*
X170180000Y-75184000D03*
X124206000Y-72898000D03*
X132112000Y-138652000D03*
X139192000Y-55880000D03*
X142748000Y-53340000D03*
X155702000Y-52070000D03*
%TO.N,-10V*%
X131572000Y-129286000D03*
X146050000Y-56134000D03*
X125476000Y-109728000D03*
X124968000Y-87122000D03*
X168910000Y-137414000D03*
%TO.N,/Core/summed_input*%
X151384000Y-129032000D03*
%TO.N,Net-(U3B--)*%
X143764000Y-124968000D03*
%TO.N,Net-(U5-STRB)*%
X146812000Y-84328000D03*
X145288000Y-83058000D03*
%TO.N,Net-(D1-A)*%
X141732000Y-122936000D03*
%TO.N,Net-(D2-A)*%
X148036000Y-62992000D03*
X150114000Y-73914000D03*
%TO.N,Net-(D3-A)*%
X144526000Y-75438000D03*
X153416000Y-57404000D03*
X148760500Y-58928000D03*
X120737500Y-85852000D03*
%TO.N,Net-(J10-Pin_1)*%
X133096000Y-63500000D03*
%TO.N,Net-(R10-Pad1)*%
X178054000Y-113792000D03*
%TO.N,Net-(R10-Pad2)*%
X177038000Y-113792000D03*
%TO.N,Net-(R11-Pad2)*%
X176022000Y-113792000D03*
%TO.N,Net-(R31-Pad1)*%
X147828000Y-121920000D03*
X147828000Y-127000000D03*
X147828000Y-116840000D03*
%TO.N,Net-(U6--)*%
X159004000Y-92164500D03*
X161460500Y-92202000D03*
X159258000Y-88900000D03*
%TO.N,Net-(R49-Pad1)*%
X139224000Y-53308000D03*
X143256000Y-64516000D03*
%TO.N,Net-(Q3-S)*%
X144145000Y-91440000D03*
X140208000Y-122936000D03*
%TO.N,Net-(U2A-+)*%
X123190000Y-76454000D03*
X119888000Y-88392000D03*
X123190000Y-66294000D03*
%TO.N,Net-(U8B-+)*%
X164338000Y-119888000D03*
%TO.N,Net-(U8C-+)*%
X169672000Y-119888000D03*
%TO.N,Net-(U8A--)*%
X164592000Y-114808000D03*
%TO.N,Net-(U8D--)*%
X170434000Y-116840000D03*
X181102000Y-118872000D03*
%TO.N,Net-(U8D-+)*%
X179070000Y-118872000D03*
X169672000Y-117518500D03*
%TO.N,Net-(U8A-+)*%
X170688000Y-110744000D03*
%TD*%
D37*
%TO.N,+12V*%
X139700000Y-70082500D02*
X138197500Y-70082500D01*
X114576000Y-91164000D02*
X114554000Y-91186000D01*
X159639000Y-118618000D02*
X159639000Y-120080000D01*
X146747000Y-86741000D02*
X149733000Y-86741000D01*
X162560000Y-82550000D02*
X162560000Y-80772000D01*
X162944000Y-118618000D02*
X159639000Y-118618000D01*
X143386000Y-70104000D02*
X139721500Y-70104000D01*
X149860000Y-86868000D02*
X149860000Y-85344000D01*
X118197000Y-89662000D02*
X114576000Y-89662000D01*
X170815000Y-66570000D02*
X168656000Y-66548000D01*
X159577000Y-120142000D02*
X159639000Y-120080000D01*
X125006000Y-100584000D02*
X125006000Y-97065500D01*
X150368000Y-123952000D02*
X150368000Y-125476000D01*
X153035000Y-124017000D02*
X150433000Y-124017000D01*
X125006000Y-97065500D02*
X124968500Y-97028000D01*
X150433000Y-124017000D02*
X150368000Y-123952000D01*
X175525000Y-66355000D02*
X171030000Y-66355000D01*
X114576000Y-89662000D02*
X114576000Y-91164000D01*
X162495000Y-82615000D02*
X162560000Y-82550000D01*
X171030000Y-66355000D02*
X170815000Y-66570000D01*
X139721500Y-70104000D02*
X139700000Y-70082500D01*
X162495000Y-85471000D02*
X162495000Y-82615000D01*
X138197500Y-70082500D02*
X138176000Y-70104000D01*
X149733000Y-86741000D02*
X149860000Y-86868000D01*
X168656000Y-66548000D02*
X168678000Y-66570000D01*
%TO.N,GND*%
X133648000Y-88392000D02*
X135829522Y-88392000D01*
X160528000Y-125476000D02*
X159004000Y-123952000D01*
X141202500Y-72157500D02*
X139700000Y-72157500D01*
X168148000Y-53848000D02*
X165143000Y-53848000D01*
X147860000Y-138684000D02*
X146558000Y-138684000D01*
X154305000Y-128967000D02*
X154305000Y-130937000D01*
X151935000Y-85387000D02*
X151892000Y-85344000D01*
X116361500Y-90932000D02*
X116332000Y-90961500D01*
X168370000Y-90095000D02*
X168445000Y-90170000D01*
X133648000Y-98762000D02*
X133648000Y-94996000D01*
X141797000Y-88011000D02*
X139362000Y-88011000D01*
X160528000Y-126978500D02*
X160528000Y-125476000D01*
X168370000Y-84042000D02*
X168370000Y-86360000D01*
X158431000Y-124017000D02*
X158496000Y-123952000D01*
X118197000Y-90932000D02*
X116361500Y-90932000D01*
X169186000Y-52810000D02*
X168148000Y-53848000D01*
X132798000Y-81358500D02*
X134287500Y-81358500D01*
X168667000Y-88095000D02*
X168370000Y-88392000D01*
X120904000Y-54399000D02*
X123497000Y-54399000D01*
X121920000Y-69596000D02*
X124460000Y-69596000D01*
X150368000Y-121877000D02*
X151849000Y-121877000D01*
X126768000Y-91737000D02*
X126768000Y-93196000D01*
X141986000Y-71374000D02*
X141202500Y-72157500D01*
X173736000Y-54356000D02*
X172361000Y-54356000D01*
X132798000Y-99612000D02*
X133648000Y-98762000D01*
X154432000Y-91483000D02*
X152951000Y-91483000D01*
X151935000Y-86868000D02*
X151935000Y-85387000D01*
D38*
X143409579Y-126959579D02*
X143450000Y-127000000D01*
D37*
X151849000Y-121877000D02*
X151892000Y-121920000D01*
X135604000Y-119856000D02*
X135636000Y-119888000D01*
X159004000Y-123952000D02*
X158496000Y-123952000D01*
X126768000Y-93196000D02*
X126746000Y-93218000D01*
X173797000Y-64455000D02*
X173736000Y-64516000D01*
X138684000Y-87333000D02*
X138684000Y-85852000D01*
X136888522Y-87333000D02*
X138684000Y-87333000D01*
X175525000Y-64455000D02*
X173797000Y-64455000D01*
X160115000Y-97155000D02*
X160115000Y-98457000D01*
X137144000Y-138684000D02*
X135636000Y-138684000D01*
X159639000Y-115062500D02*
X159638500Y-115062000D01*
X135096000Y-66040000D02*
X136652000Y-66040000D01*
X134112000Y-119856000D02*
X135604000Y-119856000D01*
X158512000Y-138684000D02*
X156464000Y-138684000D01*
X164635000Y-82550000D02*
X166878000Y-82550000D01*
X139362000Y-88011000D02*
X138684000Y-87333000D01*
X132798000Y-100505500D02*
X132798000Y-99612000D01*
X146558000Y-68834000D02*
X146304000Y-69088000D01*
X148336000Y-68834000D02*
X146558000Y-68834000D01*
X165735000Y-97663000D02*
X165608000Y-97536000D01*
X114576000Y-87587000D02*
X116289000Y-87587000D01*
X172212000Y-108712000D02*
X172212000Y-105124000D01*
D39*
X143450000Y-127000000D02*
X142240000Y-127000000D01*
D37*
X123497000Y-54399000D02*
X127000000Y-57902000D01*
X134287500Y-81358500D02*
X134366000Y-81280000D01*
X135829522Y-88392000D02*
X136888522Y-87333000D01*
X143386000Y-71374000D02*
X141986000Y-71374000D01*
X168370000Y-86360000D02*
X168370000Y-90095000D01*
X172361000Y-54356000D02*
X170815000Y-52810000D01*
X160115000Y-98457000D02*
X160020000Y-98552000D01*
X166878000Y-82550000D02*
X168370000Y-84042000D01*
X156845000Y-124017000D02*
X158431000Y-124017000D01*
X172361000Y-64516000D02*
X170815000Y-62970000D01*
X153459000Y-70104000D02*
X154940000Y-70104000D01*
D39*
X142240000Y-127000000D02*
X141986000Y-127000000D01*
D37*
X165735000Y-99060000D02*
X165735000Y-97663000D01*
X159639000Y-116543000D02*
X159639000Y-115062500D01*
X175525000Y-54295000D02*
X173797000Y-54295000D01*
X173797000Y-54295000D02*
X173736000Y-54356000D01*
X154305000Y-130937000D02*
X154432000Y-131064000D01*
X116289000Y-87587000D02*
X116332000Y-87630000D01*
X171704000Y-120693000D02*
X171704000Y-121920000D01*
X173736000Y-64516000D02*
X172361000Y-64516000D01*
X170815000Y-52810000D02*
X169186000Y-52810000D01*
X124460000Y-69596000D02*
X127254000Y-66802000D01*
X152951000Y-91483000D02*
X152908000Y-91440000D01*
%TO.N,-12V*%
X160528000Y-129053500D02*
X160528000Y-130556000D01*
X124768000Y-83237000D02*
X124693000Y-83312000D01*
X157545000Y-89281000D02*
X155448000Y-89281000D01*
X160441500Y-128967000D02*
X160528000Y-129053500D01*
X171769000Y-116586000D02*
X171958000Y-116586000D01*
X155448000Y-89281000D02*
X154559000Y-89281000D01*
X128396782Y-90424000D02*
X128262056Y-89662000D01*
X156845000Y-128967000D02*
X160441500Y-128967000D01*
X123147000Y-89662000D02*
X126768000Y-89662000D01*
X154559000Y-89281000D02*
X154432000Y-89408000D01*
X154432000Y-89408000D02*
X152654000Y-89408000D01*
X151384000Y-69596000D02*
X150622000Y-68834000D01*
X138684000Y-89408000D02*
X136652000Y-89408000D01*
X128262056Y-89662000D02*
X126768000Y-89662000D01*
X141797000Y-89281000D02*
X138811000Y-89281000D01*
X175525000Y-56195000D02*
X171030000Y-56195000D01*
X170815000Y-56410000D02*
X168656000Y-56388000D01*
X171030000Y-56195000D02*
X170815000Y-56410000D01*
X155448000Y-86360000D02*
X155448000Y-89281000D01*
X157545000Y-85471000D02*
X156337000Y-85471000D01*
X168656000Y-56388000D02*
X168678000Y-56410000D01*
X171769000Y-118553000D02*
X171704000Y-118618000D01*
X148336000Y-70104000D02*
X151384000Y-70104000D01*
X151384000Y-70104000D02*
X151384000Y-69596000D01*
X156337000Y-85471000D02*
X155448000Y-86360000D01*
X171769000Y-116586000D02*
X171769000Y-118553000D01*
X124768000Y-79756000D02*
X124768000Y-83237000D01*
X171704000Y-118618000D02*
X167894000Y-118618000D01*
X138811000Y-89281000D02*
X138684000Y-89408000D01*
D40*
%TO.N,Net-(U1-K)*%
X127084500Y-100505500D02*
X127006000Y-100584000D01*
X127043500Y-97028000D02*
X127043500Y-95714500D01*
X125222000Y-93893000D02*
X127043500Y-95714500D01*
X127006000Y-97065500D02*
X127043500Y-97028000D01*
X125222000Y-91694000D02*
X125222000Y-93893000D01*
X127762000Y-94996000D02*
X130048000Y-94996000D01*
X127006000Y-100584000D02*
X127006000Y-97065500D01*
X130898000Y-100505500D02*
X127084500Y-100505500D01*
X124460000Y-90932000D02*
X125222000Y-91694000D01*
X123147000Y-90932000D02*
X124460000Y-90932000D01*
X127043500Y-95714500D02*
X127762000Y-94996000D01*
%TO.N,+10V*%
X123147000Y-92202000D02*
X123147000Y-93472000D01*
X120418000Y-100076000D02*
X120418000Y-102638000D01*
X160115000Y-91281000D02*
X160020000Y-91186000D01*
X159004000Y-52578000D02*
X158496000Y-52070000D01*
X118872000Y-48260000D02*
X118872000Y-57912000D01*
X140208000Y-55880000D02*
X139192000Y-55880000D01*
X118872000Y-74422000D02*
X121412000Y-74422000D01*
X158496000Y-52070000D02*
X155702000Y-52070000D01*
X159004000Y-53784000D02*
X159004000Y-52578000D01*
X120418000Y-102638000D02*
X130048000Y-112268000D01*
X119888000Y-47244000D02*
X118872000Y-48260000D01*
X124206000Y-63246000D02*
X124206000Y-66294000D01*
X130048000Y-112268000D02*
X130048000Y-106680000D01*
X121888000Y-73946000D02*
X121888000Y-72898000D01*
X120904000Y-47244000D02*
X119888000Y-47244000D01*
X160020000Y-93440000D02*
X160115000Y-93345000D01*
X123147000Y-93472000D02*
X123147000Y-97347000D01*
X134122000Y-138652000D02*
X132112000Y-138652000D01*
X130048000Y-106680000D02*
X131064000Y-105664000D01*
X124206000Y-72898000D02*
X121888000Y-72898000D01*
X121412000Y-92202000D02*
X123147000Y-92202000D01*
X118364000Y-74930000D02*
X118872000Y-74422000D01*
X130048000Y-112268000D02*
X130048000Y-124968000D01*
X160020000Y-95250000D02*
X160020000Y-93440000D01*
X131064000Y-105664000D02*
X144018000Y-105664000D01*
X123147000Y-97347000D02*
X120418000Y-100076000D01*
X170180000Y-75184000D02*
X172212000Y-75184000D01*
X158972000Y-53816000D02*
X159004000Y-53784000D01*
X158972000Y-53848000D02*
X158972000Y-53816000D01*
X118872000Y-57912000D02*
X124206000Y-63246000D01*
X160115000Y-93345000D02*
X160115000Y-91281000D01*
X121412000Y-74422000D02*
X121888000Y-73946000D01*
X140208000Y-55880000D02*
X142748000Y-53340000D01*
%TO.N,-10V*%
X129794000Y-131064000D02*
X125444000Y-131064000D01*
X123147000Y-87122000D02*
X124968000Y-87122000D01*
X123147000Y-87122000D02*
X123147000Y-85852000D01*
X125444000Y-109760000D02*
X125476000Y-109728000D01*
X123147000Y-84031000D02*
X121888000Y-82772000D01*
X170148000Y-138652000D02*
X168910000Y-137414000D01*
X174498000Y-138652000D02*
X170148000Y-138652000D01*
X127000000Y-73914000D02*
X121888000Y-79026000D01*
X146272000Y-55912000D02*
X146050000Y-56134000D01*
X123147000Y-85852000D02*
X123147000Y-84031000D01*
X121888000Y-79026000D02*
X121888000Y-80010000D01*
X131572000Y-129286000D02*
X129794000Y-131064000D01*
X146347000Y-50800000D02*
X146347000Y-54789000D01*
X146272000Y-54864000D02*
X146272000Y-55912000D01*
X121888000Y-82772000D02*
X121888000Y-80010000D01*
X125444000Y-131064000D02*
X125444000Y-109760000D01*
%TO.N,Net-(U3A-+)*%
X158528000Y-133096000D02*
X158528000Y-132556000D01*
X142748000Y-130810000D02*
X144780000Y-130810000D01*
X155469500Y-134090500D02*
X154940000Y-134620000D01*
X154940000Y-134620000D02*
X152400000Y-134620000D01*
X155575000Y-128967000D02*
X155575000Y-132990500D01*
X159258000Y-131826000D02*
X164878000Y-131826000D01*
X158528000Y-134620000D02*
X158528000Y-133096000D01*
X137160000Y-132080000D02*
X141478000Y-132080000D01*
X164878000Y-127381000D02*
X164878000Y-131826000D01*
X147860000Y-134620000D02*
X147860000Y-132874000D01*
X155469500Y-133096000D02*
X158528000Y-133096000D01*
X150654000Y-132874000D02*
X152400000Y-134620000D01*
X135112000Y-132080000D02*
X137160000Y-132080000D01*
X158528000Y-132556000D02*
X159258000Y-131826000D01*
X137192000Y-134620000D02*
X137192000Y-132112000D01*
X141478000Y-132080000D02*
X142748000Y-130810000D01*
X145796000Y-130810000D02*
X144780000Y-130810000D01*
X155469500Y-133096000D02*
X155469500Y-134090500D01*
X147860000Y-132874000D02*
X145796000Y-130810000D01*
X147860000Y-132874000D02*
X150654000Y-132874000D01*
X137192000Y-132112000D02*
X137160000Y-132080000D01*
X155575000Y-132990500D02*
X155469500Y-133096000D01*
%TO.N,/Core/summed_input*%
X151384000Y-129032000D02*
X152970000Y-129032000D01*
X144780000Y-123190000D02*
X144780000Y-121158000D01*
X144780000Y-121158000D02*
X144272000Y-120650000D01*
X153035000Y-128967000D02*
X153035000Y-130937000D01*
X153035000Y-130937000D02*
X153394500Y-131296500D01*
X153394500Y-131296500D02*
X153394500Y-133096000D01*
X144272000Y-120650000D02*
X144272000Y-117856000D01*
X152970000Y-129032000D02*
X153035000Y-128967000D01*
%TO.N,Net-(U3B--)*%
X147828000Y-124968000D02*
X146050000Y-124968000D01*
X146050000Y-124968000D02*
X146050000Y-126290000D01*
X154906000Y-126526000D02*
X149386000Y-126526000D01*
X146050000Y-124968000D02*
X143764000Y-124968000D01*
X155575000Y-125857000D02*
X154906000Y-126526000D01*
X156507000Y-121877000D02*
X155575000Y-122809000D01*
X156507000Y-120904000D02*
X156507000Y-121877000D01*
X146050000Y-126290000D02*
X146060000Y-126300000D01*
X155575000Y-122809000D02*
X155575000Y-124017000D01*
X155575000Y-124017000D02*
X155575000Y-125857000D01*
X146060000Y-126300000D02*
X146110000Y-126300000D01*
X149386000Y-126526000D02*
X147828000Y-124968000D01*
%TO.N,Net-(C11-Pad2)*%
X154432000Y-120904000D02*
X154432000Y-117380000D01*
X154432000Y-112776000D02*
X154432000Y-115316000D01*
X149860000Y-116348000D02*
X153400000Y-116348000D01*
X154432000Y-117380000D02*
X153400000Y-116348000D01*
X153400000Y-116348000D02*
X154432000Y-115316000D01*
X154305000Y-124017000D02*
X154305000Y-121031000D01*
X154305000Y-121031000D02*
X154432000Y-120904000D01*
%TO.N,/Core/raw_saw*%
X151400000Y-74168000D02*
X151400000Y-76438000D01*
X147594000Y-100350000D02*
X144272000Y-100350000D01*
X140970000Y-96520000D02*
X144272000Y-96520000D01*
X148336000Y-82804000D02*
X148336000Y-81788000D01*
X145034000Y-84836000D02*
X146558000Y-83312000D01*
X144272000Y-100350000D02*
X144272000Y-96520000D01*
X144272000Y-93980000D02*
X145034000Y-93218000D01*
X145161000Y-88011000D02*
X145034000Y-88138000D01*
X145034000Y-88138000D02*
X145034000Y-84836000D01*
X146747000Y-88011000D02*
X145161000Y-88011000D01*
X146558000Y-83312000D02*
X147828000Y-83312000D01*
X151400000Y-76438000D02*
X148336000Y-79502000D01*
X145034000Y-93218000D02*
X145034000Y-88138000D01*
X147828000Y-83312000D02*
X148336000Y-82804000D01*
X151541000Y-100650000D02*
X147894000Y-100650000D01*
X148336000Y-79502000D02*
X148336000Y-81788000D01*
X144272000Y-96520000D02*
X144272000Y-93980000D01*
X147894000Y-100650000D02*
X147594000Y-100350000D01*
%TO.N,Net-(U6-+)*%
X155405000Y-78740000D02*
X155405000Y-81745000D01*
X155448000Y-81788000D02*
X150336000Y-81788000D01*
X155405000Y-81745000D02*
X155448000Y-81788000D01*
X159512000Y-82550000D02*
X158750000Y-81788000D01*
X158877000Y-86741000D02*
X159512000Y-86106000D01*
X158750000Y-81788000D02*
X155448000Y-81788000D01*
X159512000Y-86106000D02*
X159512000Y-82550000D01*
X157545000Y-86741000D02*
X158877000Y-86741000D01*
%TO.N,Net-(D2-K)*%
X141192000Y-62992000D02*
X144012000Y-62992000D01*
X144012000Y-58928000D02*
X144012000Y-57156000D01*
X144272000Y-54864000D02*
X144272000Y-50800000D01*
X144012000Y-62992000D02*
X144012000Y-58928000D01*
X144272000Y-56896000D02*
X144272000Y-54864000D01*
X144012000Y-57156000D02*
X144272000Y-56896000D01*
%TO.N,Net-(U7C-+)*%
X148336000Y-71374000D02*
X155904828Y-71374000D01*
X155904828Y-71374000D02*
X158972000Y-68306828D01*
X158972000Y-68306828D02*
X158972000Y-66548000D01*
%TO.N,Net-(C26-Pad1)*%
X143256000Y-83058000D02*
X143256000Y-81788000D01*
X141797000Y-84517000D02*
X143256000Y-83058000D01*
X141797000Y-85471000D02*
X141797000Y-84517000D01*
%TO.N,Net-(U5-STRB)*%
X145331000Y-81788000D02*
X145331000Y-83015000D01*
X146747000Y-84393000D02*
X146812000Y-84328000D01*
X146747000Y-85471000D02*
X146747000Y-84393000D01*
X145331000Y-83015000D02*
X145288000Y-83058000D01*
D38*
X145331000Y-83101000D02*
X145288000Y-83058000D01*
D40*
%TO.N,Net-(C28-Pad1)*%
X167386000Y-102108000D02*
X167386000Y-96266000D01*
X165735000Y-95504000D02*
X166624000Y-95504000D01*
X166624000Y-102870000D02*
X167386000Y-102108000D01*
X165735000Y-102870000D02*
X166624000Y-102870000D01*
X167386000Y-96266000D02*
X166624000Y-95504000D01*
%TO.N,Net-(J11-Pin_1)*%
X163660000Y-99135000D02*
X163735000Y-99060000D01*
X163660000Y-102870000D02*
X163660000Y-99135000D01*
X159385000Y-102870000D02*
X163660000Y-102870000D01*
%TO.N,Net-(C29-Pad1)*%
X156972000Y-66548000D02*
X156972000Y-64018000D01*
X156972000Y-64018000D02*
X161046000Y-59944000D01*
X163068000Y-57922000D02*
X161046000Y-59944000D01*
X163068000Y-53848000D02*
X163068000Y-57922000D01*
%TO.N,Net-(D1-K)*%
X148720000Y-112776000D02*
X148720000Y-111636000D01*
X148720000Y-111636000D02*
X147828000Y-110744000D01*
X145920000Y-110106000D02*
X145920000Y-108712000D01*
X147828000Y-110744000D02*
X146558000Y-110744000D01*
X146558000Y-110744000D02*
X145920000Y-110106000D01*
%TO.N,Net-(D1-A)*%
X141732000Y-122936000D02*
X141732000Y-124206000D01*
X141732000Y-117856000D02*
X141732000Y-116840000D01*
X140970000Y-116078000D02*
X135128000Y-110236000D01*
X141732000Y-116078000D02*
X140970000Y-116078000D01*
X145920000Y-112776000D02*
X145034000Y-112776000D01*
X145034000Y-112776000D02*
X141732000Y-116078000D01*
X143450000Y-125924000D02*
X143450000Y-126259579D01*
X141732000Y-124206000D02*
X143450000Y-125924000D01*
X141732000Y-116078000D02*
X141732000Y-116840000D01*
%TO.N,Net-(D2-A)*%
X146812000Y-62992000D02*
X148036000Y-62992000D01*
X152908000Y-62484000D02*
X152908000Y-65278000D01*
X148336000Y-73914000D02*
X150114000Y-73914000D01*
X161036000Y-72644000D02*
X158496000Y-72644000D01*
X153416000Y-61976000D02*
X152908000Y-62484000D01*
X153416000Y-59944000D02*
X153416000Y-61976000D01*
%TO.N,Net-(D3-A)*%
X153416000Y-55880000D02*
X153416000Y-57404000D01*
X160020000Y-47752000D02*
X153416000Y-47752000D01*
X145796000Y-58928000D02*
X146812000Y-58928000D01*
X145254000Y-71916000D02*
X145254000Y-59470000D01*
X145254000Y-72644000D02*
X145254000Y-74710000D01*
X146812000Y-58928000D02*
X148760500Y-58928000D01*
X118197000Y-87122000D02*
X119380000Y-87122000D01*
X153416000Y-55880000D02*
X153416000Y-52324000D01*
X120650000Y-85852000D02*
X120737500Y-85852000D01*
X153416000Y-52324000D02*
X153416000Y-47752000D01*
X119380000Y-87122000D02*
X120650000Y-85852000D01*
X145254000Y-74710000D02*
X144526000Y-75438000D01*
X143386000Y-72644000D02*
X145254000Y-72644000D01*
X145254000Y-59470000D02*
X145796000Y-58928000D01*
X145254000Y-71916000D02*
X145254000Y-72644000D01*
%TO.N,Net-(D4-K)*%
X133096000Y-71374000D02*
X133096000Y-69596000D01*
X132836000Y-73660000D02*
X132836000Y-71634000D01*
X132836000Y-71634000D02*
X133096000Y-71374000D01*
%TO.N,Net-(D4-A)*%
X140208000Y-73914000D02*
X143386000Y-73914000D01*
X135636000Y-73660000D02*
X139954000Y-73660000D01*
X139954000Y-73660000D02*
X140208000Y-73914000D01*
D37*
%TO.N,Net-(J1-Pin_1)*%
X183515000Y-65405000D02*
X177800000Y-65405000D01*
%TO.N,Net-(J1-Pin_3)*%
X183515000Y-55245000D02*
X177800000Y-55245000D01*
D40*
%TO.N,Net-(J3-Pin_1)*%
X160512000Y-134636000D02*
X160528000Y-134620000D01*
X164592000Y-138684000D02*
X160512000Y-138684000D01*
X160512000Y-138684000D02*
X160512000Y-134636000D01*
%TO.N,Net-(J4-Pin_1)*%
X153924000Y-138684000D02*
X149860000Y-138684000D01*
X149860000Y-138684000D02*
X149860000Y-134620000D01*
%TO.N,Net-(J5-Pin_1)*%
X139192000Y-134620000D02*
X139192000Y-138636000D01*
X143256000Y-138684000D02*
X139144000Y-138684000D01*
X139192000Y-138636000D02*
X139144000Y-138684000D01*
%TO.N,Net-(J7-Pin_1)*%
X134620000Y-47752000D02*
X134620000Y-52832000D01*
X134620000Y-55372000D02*
X134620000Y-52832000D01*
X141224000Y-47752000D02*
X141224000Y-51816000D01*
X134620000Y-47752000D02*
X141224000Y-47752000D01*
%TO.N,Net-(J8-Pin_1)*%
X119920000Y-66294000D02*
X116840000Y-66294000D01*
X116840000Y-66294000D02*
X116078000Y-67056000D01*
X119920000Y-66294000D02*
X119920000Y-69596000D01*
X116078000Y-67056000D02*
X114300000Y-67056000D01*
%TO.N,Net-(J9-Pin_1)*%
X114046000Y-106172000D02*
X120396000Y-106172000D01*
X113300000Y-105426000D02*
X114046000Y-106172000D01*
X113300000Y-101092000D02*
X113300000Y-104648000D01*
X120396000Y-112268000D02*
X120396000Y-106172000D01*
X113300000Y-104648000D02*
X113300000Y-105426000D01*
%TO.N,Net-(J10-Pin_1)*%
X135096000Y-69596000D02*
X135096000Y-68548000D01*
X134366000Y-67818000D02*
X133350000Y-67818000D01*
X133350000Y-67818000D02*
X133096000Y-67564000D01*
X133096000Y-67564000D02*
X133096000Y-66040000D01*
X133096000Y-63500000D02*
X133096000Y-66040000D01*
X135096000Y-68548000D02*
X134366000Y-67818000D01*
%TO.N,Net-(R56-Pad2)*%
X174498000Y-136652000D02*
X174498000Y-133064000D01*
%TO.N,Net-(R10-Pad1)*%
X176308000Y-127476000D02*
X178054000Y-125730000D01*
X174498000Y-127476000D02*
X176308000Y-127476000D01*
X178054000Y-125730000D02*
X178054000Y-113792000D01*
X174498000Y-131064000D02*
X174498000Y-127476000D01*
%TO.N,Net-(R10-Pad2)*%
X177038000Y-120396000D02*
X177038000Y-113792000D01*
X174498000Y-125476000D02*
X174498000Y-121888000D01*
X174498000Y-121888000D02*
X175546000Y-121888000D01*
X175546000Y-121888000D02*
X177038000Y-120396000D01*
%TO.N,Net-(R11-Pad2)*%
X175546000Y-116300000D02*
X176022000Y-115824000D01*
X176022000Y-115824000D02*
X176022000Y-113792000D01*
X174498000Y-119888000D02*
X174498000Y-116300000D01*
X174498000Y-116300000D02*
X175546000Y-116300000D01*
%TO.N,Net-(R15-Pad2)*%
X172212000Y-97536000D02*
X172212000Y-93964000D01*
X175260000Y-102362000D02*
X178816000Y-102362000D01*
X173990000Y-98298000D02*
X173990000Y-101092000D01*
X178816000Y-102362000D02*
X181356000Y-104902000D01*
X173990000Y-101092000D02*
X175260000Y-102362000D01*
X173228000Y-97536000D02*
X173990000Y-98298000D01*
X172212000Y-97536000D02*
X173228000Y-97536000D01*
%TO.N,Net-(R16-Pad2)*%
X172212000Y-91964000D02*
X172212000Y-88376000D01*
X174244000Y-92710000D02*
X174244000Y-96012000D01*
X172212000Y-91964000D02*
X173498000Y-91964000D01*
X175768000Y-97536000D02*
X179070000Y-97536000D01*
X173498000Y-91964000D02*
X174244000Y-92710000D01*
X179070000Y-97536000D02*
X181356000Y-99822000D01*
X174244000Y-96012000D02*
X175768000Y-97536000D01*
%TO.N,Net-(R17-Pad2)*%
X179324000Y-92710000D02*
X181356000Y-94742000D01*
X174244000Y-87122000D02*
X174244000Y-90932000D01*
X172212000Y-86376000D02*
X172212000Y-82788000D01*
X173498000Y-86376000D02*
X174244000Y-87122000D01*
X172212000Y-86376000D02*
X173498000Y-86376000D01*
X174244000Y-90932000D02*
X176022000Y-92710000D01*
X176022000Y-92710000D02*
X179324000Y-92710000D01*
%TO.N,Net-(R18-Pad2)*%
X172212000Y-80788000D02*
X172212000Y-77184000D01*
X181356000Y-88138000D02*
X174006000Y-80788000D01*
X181356000Y-89662000D02*
X181356000Y-88138000D01*
X174006000Y-80788000D02*
X172212000Y-80788000D01*
%TO.N,Net-(R26-Pad2)*%
X123454000Y-136652000D02*
X123454000Y-131074000D01*
X123454000Y-131074000D02*
X123444000Y-131064000D01*
%TO.N,Net-(R27-Pad1)*%
X128534000Y-136652000D02*
X134122000Y-136652000D01*
%TO.N,Net-(R28-Pad1)*%
X133112000Y-132080000D02*
X130566000Y-132080000D01*
X130566000Y-132080000D02*
X125994000Y-136652000D01*
%TO.N,Net-(R29-Pad1)*%
X139192000Y-117856000D02*
X134112000Y-117856000D01*
%TO.N,Net-(R30-Pad2)*%
X147920000Y-108712000D02*
X152908000Y-108712000D01*
X152908000Y-108712000D02*
X154432000Y-110236000D01*
%TO.N,Net-(R31-Pad1)*%
X147828000Y-121920000D02*
X147828000Y-121412000D01*
X146110000Y-127000000D02*
X147828000Y-127000000D01*
X148320000Y-118348000D02*
X147828000Y-117856000D01*
X149860000Y-118348000D02*
X148320000Y-118348000D01*
X146110000Y-127650000D02*
X146110000Y-127000000D01*
X149860000Y-119380000D02*
X149860000Y-118348000D01*
X147828000Y-121412000D02*
X149860000Y-119380000D01*
X147828000Y-117856000D02*
X147828000Y-116840000D01*
%TO.N,Net-(U7A-+)*%
X120904000Y-52324000D02*
X123962000Y-52324000D01*
X123962000Y-52324000D02*
X127000000Y-55362000D01*
X141192000Y-68834000D02*
X143386000Y-68834000D01*
X127720000Y-55362000D02*
X141192000Y-68834000D01*
X127000000Y-55362000D02*
X127720000Y-55362000D01*
%TO.N,Net-(U7A--)*%
X143386000Y-67564000D02*
X141732000Y-67564000D01*
X141732000Y-67564000D02*
X139192000Y-65024000D01*
X139192000Y-65024000D02*
X139192000Y-62992000D01*
X139192000Y-62992000D02*
X139192000Y-58928000D01*
%TO.N,Net-(R35-Pad2)*%
X165068000Y-71152000D02*
X163576000Y-72644000D01*
X165068000Y-66548000D02*
X165068000Y-71152000D01*
%TO.N,Net-(R36-Pad1)*%
X150366000Y-65784000D02*
X150366000Y-54612000D01*
X150368000Y-65786000D02*
X150366000Y-65784000D01*
X150366000Y-54612000D02*
X151416000Y-53562000D01*
X149860000Y-66294000D02*
X150368000Y-65786000D01*
X148336000Y-66294000D02*
X149860000Y-66294000D01*
X151416000Y-53562000D02*
X151416000Y-52324000D01*
%TO.N,Net-(R37-Pad1)*%
X156972000Y-53848000D02*
X156972000Y-58410000D01*
X156972000Y-58410000D02*
X158506000Y-59944000D01*
%TO.N,Net-(U7D--)*%
X151416000Y-66516000D02*
X151416000Y-59944000D01*
X150368000Y-67564000D02*
X151416000Y-66516000D01*
X148336000Y-67564000D02*
X150368000Y-67564000D01*
X151416000Y-59944000D02*
X151416000Y-55880000D01*
%TO.N,Net-(U6--)*%
X163735000Y-95504000D02*
X163735000Y-94476500D01*
X159258000Y-88392000D02*
X159258000Y-88900000D01*
X163735000Y-94476500D02*
X161460500Y-92202000D01*
X158115000Y-97155000D02*
X158115000Y-93345000D01*
X158877000Y-88011000D02*
X159258000Y-88392000D01*
X158115000Y-93345000D02*
X158115000Y-92583000D01*
X157545000Y-88011000D02*
X158877000Y-88011000D01*
X158533500Y-92164500D02*
X158115000Y-92583000D01*
X159004000Y-92164500D02*
X158533500Y-92164500D01*
%TO.N,Net-(U7C--)*%
X153400000Y-74168000D02*
X153400000Y-72660000D01*
X148336000Y-72644000D02*
X153416000Y-72644000D01*
X153400000Y-72660000D02*
X153416000Y-72644000D01*
X161720778Y-66548000D02*
X163068000Y-66548000D01*
X155624778Y-72644000D02*
X161720778Y-66548000D01*
X153416000Y-72644000D02*
X155624778Y-72644000D01*
%TO.N,Net-(R47-Pad2)*%
X138176000Y-57150000D02*
X137414000Y-57912000D01*
X137414000Y-57912000D02*
X134620000Y-57912000D01*
X140462000Y-57150000D02*
X138176000Y-57150000D01*
X141192000Y-58928000D02*
X141192000Y-57880000D01*
X141192000Y-57880000D02*
X140462000Y-57150000D01*
%TO.N,Net-(R48-Pad1)*%
X120904000Y-49244000D02*
X123422000Y-49244000D01*
X123422000Y-49244000D02*
X127000000Y-52822000D01*
%TO.N,Net-(R49-Pad1)*%
X143256000Y-66164000D02*
X143386000Y-66294000D01*
X139224000Y-51816000D02*
X139224000Y-53308000D01*
X143256000Y-64516000D02*
X143256000Y-66164000D01*
%TO.N,Net-(R50-Pad1)*%
X119888000Y-80010000D02*
X117094000Y-80010000D01*
X117094000Y-80010000D02*
X115570000Y-81534000D01*
%TO.N,Net-(R51-Pad1)*%
X117094000Y-72898000D02*
X115570000Y-71374000D01*
X119888000Y-72898000D02*
X117094000Y-72898000D01*
%TO.N,Net-(R53-Pad1)*%
X113300000Y-97536000D02*
X113300000Y-87060550D01*
X114508550Y-85852000D02*
X118197000Y-85852000D01*
X113300000Y-87060550D02*
X114508550Y-85852000D01*
%TO.N,Net-(R54-Pad1)*%
X115300000Y-104648000D02*
X115300000Y-103394000D01*
X116840000Y-101854000D02*
X116840000Y-96774000D01*
X116840000Y-96774000D02*
X118197000Y-95417000D01*
X115300000Y-103394000D02*
X116840000Y-101854000D01*
X118197000Y-95417000D02*
X118197000Y-93472000D01*
%TO.N,Net-(R61-Pad2)*%
X119920000Y-76454000D02*
X115570000Y-76454000D01*
%TO.N,Net-(Q3-S)*%
X147386000Y-102550000D02*
X147086000Y-102850000D01*
X140970000Y-129032000D02*
X142748000Y-129032000D01*
X141797000Y-86741000D02*
X143129000Y-86741000D01*
X143450000Y-128330000D02*
X143450000Y-127659579D01*
X144145000Y-87757000D02*
X144145000Y-91440000D01*
X151541000Y-102550000D02*
X147386000Y-102550000D01*
X140208000Y-122936000D02*
X140208000Y-128270000D01*
X147086000Y-102850000D02*
X144272000Y-102850000D01*
X140208000Y-128270000D02*
X140970000Y-129032000D01*
X142748000Y-129032000D02*
X143450000Y-128330000D01*
X143129000Y-86741000D02*
X144145000Y-87757000D01*
%TO.N,Net-(Q3-G)*%
X160528000Y-79502000D02*
X159766000Y-78740000D01*
X160528000Y-89154000D02*
X160528000Y-86614000D01*
X166370000Y-90170000D02*
X166370000Y-86360000D01*
X159766000Y-78740000D02*
X157480000Y-78740000D01*
X153416000Y-96520000D02*
X153416000Y-94996000D01*
X160528000Y-86614000D02*
X160528000Y-79502000D01*
X159512000Y-90170000D02*
X160528000Y-89154000D01*
X147320000Y-96520000D02*
X153416000Y-96520000D01*
X165100000Y-86360000D02*
X164719000Y-86741000D01*
X153416000Y-94996000D02*
X158242000Y-90170000D01*
X164719000Y-86741000D02*
X162495000Y-86741000D01*
X158242000Y-90170000D02*
X159512000Y-90170000D01*
X166370000Y-86360000D02*
X165100000Y-86360000D01*
X162495000Y-86741000D02*
X160655000Y-86741000D01*
X153416000Y-101600000D02*
X153416000Y-96520000D01*
X160655000Y-86741000D02*
X160528000Y-86614000D01*
%TO.N,Net-(U2A-+)*%
X118197000Y-88392000D02*
X119888000Y-88392000D01*
X123190000Y-76454000D02*
X121920000Y-76454000D01*
X123190000Y-66294000D02*
X121920000Y-66294000D01*
%TO.N,Net-(U2B--)*%
X118197000Y-92202000D02*
X116332000Y-92202000D01*
X115300000Y-93234000D02*
X115300000Y-97536000D01*
X116332000Y-92202000D02*
X115300000Y-93234000D01*
X115300000Y-101092000D02*
X115300000Y-97536000D01*
%TO.N,Net-(U11-A)*%
X126768000Y-83312000D02*
X126768000Y-88370000D01*
X129618500Y-81358500D02*
X128016000Y-79756000D01*
X126768000Y-88370000D02*
X126790000Y-88392000D01*
X126768000Y-88370000D02*
X126746000Y-88392000D01*
X126790000Y-88392000D02*
X130048000Y-88392000D01*
X126768000Y-83312000D02*
X126768000Y-79756000D01*
X126746000Y-88392000D02*
X123147000Y-88392000D01*
X130898000Y-81358500D02*
X129618500Y-81358500D01*
X128016000Y-79756000D02*
X126768000Y-79756000D01*
%TO.N,Net-(U8B-+)*%
X162944000Y-119888000D02*
X164338000Y-119888000D01*
%TO.N,Net-(U8C-+)*%
X167894000Y-119888000D02*
X169672000Y-119888000D01*
%TO.N,Net-(U8A--)*%
X162944000Y-114808000D02*
X164592000Y-114808000D01*
X162944000Y-116078000D02*
X162944000Y-114808000D01*
%TO.N,Net-(U8D--)*%
X181102000Y-118872000D02*
X181102000Y-123698000D01*
X167894000Y-116078000D02*
X167894000Y-114808000D01*
X169672000Y-116078000D02*
X170434000Y-116840000D01*
X167894000Y-116078000D02*
X169672000Y-116078000D01*
X181102000Y-123698000D02*
X183642000Y-126238000D01*
%TO.N,Net-(U8C--)*%
X167894000Y-124206000D02*
X167928000Y-124240000D01*
X167894000Y-122428000D02*
X167894000Y-121158000D01*
X167928000Y-128998000D02*
X166878000Y-130048000D01*
X166878000Y-130048000D02*
X166878000Y-131826000D01*
X167928000Y-124240000D02*
X167928000Y-128998000D01*
X167894000Y-122428000D02*
X167894000Y-124206000D01*
%TO.N,Net-(U8D-+)*%
X179070000Y-110217390D02*
X179305390Y-109982000D01*
X167894000Y-117348000D02*
X169501500Y-117348000D01*
X173990000Y-104666610D02*
X179305390Y-109982000D01*
X172212000Y-103124000D02*
X172212000Y-99536000D01*
X172212000Y-103124000D02*
X173228000Y-103124000D01*
X179305390Y-109982000D02*
X181356000Y-109982000D01*
X169501500Y-117348000D02*
X169672000Y-117518500D01*
X173228000Y-103124000D02*
X173990000Y-103886000D01*
X179070000Y-118872000D02*
X179070000Y-110217390D01*
X173990000Y-103886000D02*
X173990000Y-104666610D01*
%TO.N,Net-(U8B--)*%
X162944000Y-121158000D02*
X162944000Y-122428000D01*
X162944000Y-123828000D02*
X164846000Y-125730000D01*
X166878000Y-126238000D02*
X166878000Y-127381000D01*
X164846000Y-125730000D02*
X166370000Y-125730000D01*
X162944000Y-122428000D02*
X162944000Y-123828000D01*
X166370000Y-125730000D02*
X166878000Y-126238000D01*
%TO.N,Net-(U8A-+)*%
X162944000Y-117348000D02*
X165608000Y-117348000D01*
X172212000Y-113792000D02*
X172212000Y-110712000D01*
X170688000Y-110744000D02*
X172180000Y-110744000D01*
X165608000Y-117348000D02*
X166116000Y-116840000D01*
X166116000Y-114300000D02*
X166624000Y-113792000D01*
X166116000Y-116840000D02*
X166116000Y-114300000D01*
X166624000Y-113792000D02*
X172212000Y-113792000D01*
X172180000Y-110744000D02*
X172212000Y-110712000D01*
X172720000Y-114300000D02*
X172212000Y-113792000D01*
X174498000Y-114300000D02*
X172720000Y-114300000D01*
%TD*%
M02*
