%TF.GenerationSoftware,KiCad,Pcbnew,7.0.9-7.0.9~ubuntu23.04.1*%
%TF.CreationDate,2024-01-02T14:37:14+01:00*%
%TF.ProjectId,vco_1,76636f5f-312e-46b6-9963-61645f706362,rev?*%
%TF.SameCoordinates,Original*%
%TF.FileFunction,Copper,L4,Bot*%
%TF.FilePolarity,Positive*%
%FSLAX46Y46*%
G04 Gerber Fmt 4.6, Leading zero omitted, Abs format (unit mm)*
G04 Created by KiCad (PCBNEW 7.0.9-7.0.9~ubuntu23.04.1) date 2024-01-02 14:37:14*
%MOMM*%
%LPD*%
G01*
G04 APERTURE LIST*
%TA.AperFunction,ComponentPad*%
%ADD10C,2.000000*%
%TD*%
%TA.AperFunction,ComponentPad*%
%ADD11C,1.600000*%
%TD*%
%TA.AperFunction,ComponentPad*%
%ADD12O,1.600000X1.600000*%
%TD*%
%TA.AperFunction,ComponentPad*%
%ADD13C,1.800000*%
%TD*%
%TA.AperFunction,ViaPad*%
%ADD14C,1.200000*%
%TD*%
%TA.AperFunction,ViaPad*%
%ADD15C,0.800000*%
%TD*%
%TA.AperFunction,Conductor*%
%ADD16C,0.500000*%
%TD*%
%TA.AperFunction,Conductor*%
%ADD17C,0.250000*%
%TD*%
G04 APERTURE END LIST*
D10*
%TO.P,TP7,1,1*%
%TO.N,Net-(R31-Pad1)*%
X67564000Y-109347000D03*
%TD*%
%TO.P,SW2,1*%
%TO.N,Net-(U4B-+)*%
X107696000Y-84963000D03*
%TO.P,SW2,2*%
%TO.N,Net-(R18-Pad2)*%
X107696000Y-88773000D03*
%TO.P,SW2,3*%
%TO.N,Net-(R17-Pad2)*%
X107696000Y-93853000D03*
%TO.P,SW2,4*%
%TO.N,Net-(R16-Pad2)*%
X107696000Y-98933000D03*
%TO.P,SW2,5*%
%TO.N,Net-(R15-Pad2)*%
X107696000Y-104013000D03*
%TO.P,SW2,6*%
%TO.N,Net-(U4D-+)*%
X107696000Y-109093000D03*
%TO.P,SW2,7*%
%TO.N,GND*%
X102616000Y-84963000D03*
%TO.P,SW2,8*%
%TO.N,Net-(U4A-+)*%
X102616000Y-88773000D03*
%TO.P,SW2,9*%
%TO.N,Net-(R11-Pad2)*%
X102616000Y-93853000D03*
%TO.P,SW2,10*%
%TO.N,Net-(R10-Pad2)*%
X102616000Y-98933000D03*
%TO.P,SW2,11*%
%TO.N,Net-(R10-Pad1)*%
X102616000Y-104013000D03*
%TD*%
%TO.P,J10,1,Pin_1*%
%TO.N,Net-(J10-Pin_1)*%
X37465000Y-101600000D03*
%TD*%
D11*
%TO.P,TH1,1*%
%TO.N,/Core/summed_input*%
X71120000Y-122301000D03*
D12*
%TO.P,TH1,2*%
%TO.N,Net-(U5A--)*%
X71120000Y-129921000D03*
%TD*%
D10*
%TO.P,TP9,1,1*%
%TO.N,Net-(D3-A)*%
X86360000Y-46863000D03*
%TD*%
%TO.P,TP4,1,1*%
%TO.N,-10V*%
X51181000Y-120520000D03*
%TD*%
%TO.P,TP11,1,1*%
%TO.N,Net-(Q3-G)*%
X73660000Y-95631000D03*
%TD*%
%TO.P,J2,1,Pin_1*%
%TO.N,Net-(J1-Pin_1)*%
X109855000Y-79756000D03*
%TO.P,J2,2,Pin_2*%
%TO.N,GND*%
X109855000Y-74676000D03*
%TO.P,J2,3,Pin_3*%
%TO.N,Net-(J1-Pin_3)*%
X109855000Y-69596000D03*
%TD*%
%TO.P,J6,1,Pin_1*%
%TO.N,Net-(D3-A)*%
X79756000Y-46863000D03*
%TD*%
%TO.P,TP10,1,1*%
%TO.N,/Core/raw_saw*%
X67310000Y-95631000D03*
%TD*%
%TO.P,RV2,1,1*%
%TO.N,Net-(U4D--)*%
X109982000Y-125349000D03*
%TO.P,RV2,2,2*%
%TO.N,Net-(U4C-+)*%
X109982000Y-120269000D03*
%TO.P,RV2,3,3*%
%TO.N,Net-(U4A--)*%
X109982000Y-115189000D03*
%TD*%
%TO.P,J3,1,Pin_1*%
%TO.N,Net-(J3-Pin_1)*%
X90932000Y-137795000D03*
%TD*%
%TO.P,TP1,1,1*%
%TO.N,+12V*%
X102616000Y-60071000D03*
%TD*%
%TO.P,J4,1,Pin_1*%
%TO.N,Net-(J4-Pin_1)*%
X80264000Y-137795000D03*
%TD*%
%TO.P,J1,1,Pin_1*%
%TO.N,Net-(J1-Pin_1)*%
X109855000Y-64516000D03*
%TO.P,J1,2,Pin_2*%
%TO.N,GND*%
X109855000Y-59436000D03*
%TO.P,J1,3,Pin_3*%
%TO.N,Net-(J1-Pin_3)*%
X109855000Y-54356000D03*
%TD*%
%TO.P,TP6,1,1*%
%TO.N,Net-(D1-A)*%
X61468000Y-109347000D03*
%TD*%
%TO.P,J9,1,Pin_1*%
%TO.N,Net-(J9-Pin_1)*%
X37465000Y-90170000D03*
%TD*%
D11*
%TO.P,C13,1*%
%TO.N,Net-(Q3-S)*%
X70612000Y-101961000D03*
%TO.P,C13,2*%
%TO.N,/Core/raw_saw*%
X70612000Y-99461000D03*
%TD*%
D10*
%TO.P,TP3,1,1*%
%TO.N,-12V*%
X100330000Y-46863000D03*
%TD*%
%TO.P,J7,1,Pin_1*%
%TO.N,Net-(J7-Pin_1)*%
X46990000Y-46863000D03*
%TD*%
%TO.P,TP13,1,1*%
%TO.N,Net-(J9-Pin_1)*%
X37465000Y-95885000D03*
%TD*%
%TO.P,J5,1,Pin_1*%
%TO.N,Net-(J5-Pin_1)*%
X69596000Y-137795000D03*
%TD*%
%TO.P,TP5,1,1*%
%TO.N,+10V*%
X37846000Y-115440000D03*
%TD*%
D11*
%TO.P,R32,1*%
%TO.N,+10V*%
X56388000Y-124079000D03*
D12*
%TO.P,R32,2*%
%TO.N,Net-(U5B--)*%
X64008000Y-124079000D03*
%TD*%
D10*
%TO.P,TP14,1,1*%
%TO.N,GND*%
X60960000Y-102870000D03*
%TD*%
%TO.P,TP2,1,1*%
%TO.N,GND*%
X92964000Y-46863000D03*
%TD*%
%TO.P,TP8,1,1*%
%TO.N,Net-(D2-A)*%
X79248000Y-64389000D03*
%TD*%
%TO.P,J8,1,Pin_1*%
%TO.N,Net-(J8-Pin_1)*%
X37465000Y-58420000D03*
%TD*%
%TO.P,TP12,1,1*%
%TO.N,Net-(J7-Pin_1)*%
X67564000Y-46863000D03*
%TD*%
%TO.P,RV10,1,1*%
%TO.N,Net-(R50-Pad1)*%
X38735000Y-79375000D03*
%TO.P,RV10,2,2*%
%TO.N,Net-(R61-Pad2)*%
X38735000Y-74295000D03*
%TO.P,RV10,3,3*%
%TO.N,Net-(R51-Pad1)*%
X38735000Y-69215000D03*
%TD*%
%TO.P,J11,1,Pin_1*%
%TO.N,Net-(J11-Pin_1)*%
X85725000Y-101981000D03*
%TD*%
D13*
%TO.P,RV6,1,1*%
%TO.N,GND*%
X85471000Y-58420000D03*
%TO.P,RV6,2,2*%
%TO.N,Net-(C29-Pad1)*%
X93091000Y-55880000D03*
%TO.P,RV6,3,3*%
%TO.N,Net-(R37-Pad1)*%
X98171000Y-58420000D03*
%TD*%
%TO.P,RV7,1,1*%
%TO.N,Net-(R35-Pad2)*%
X85471000Y-71755000D03*
%TO.P,RV7,2,2*%
%TO.N,Net-(D2-A)*%
X93091000Y-69215000D03*
%TO.P,RV7,3,3*%
X98171000Y-71755000D03*
%TD*%
%TO.P,RV4,1,1*%
%TO.N,/Core/summed_input*%
X58801000Y-118110000D03*
%TO.P,RV4,2,2*%
%TO.N,Net-(D1-A)*%
X66421000Y-115570000D03*
%TO.P,RV4,3,3*%
%TO.N,Net-(R29-Pad1)*%
X71501000Y-118110000D03*
%TD*%
%TO.P,RV9,1,1*%
%TO.N,Net-(J7-Pin_1)*%
X61981000Y-62230000D03*
%TO.P,RV9,2,2*%
X59441000Y-54610000D03*
%TO.P,RV9,3,3*%
%TO.N,Net-(R47-Pad2)*%
X61981000Y-49530000D03*
%TD*%
%TO.P,RV3,1,1*%
%TO.N,Net-(R27-Pad1)*%
X46736000Y-138176000D03*
%TO.P,RV3,2,2*%
%TO.N,Net-(R28-Pad1)*%
X54356000Y-135636000D03*
%TO.P,RV3,3,3*%
%TO.N,Net-(R26-Pad2)*%
X59436000Y-138176000D03*
%TD*%
%TO.P,RV8,1,1*%
%TO.N,Net-(R48-Pad1)*%
X54356000Y-62230000D03*
%TO.P,RV8,2,2*%
%TO.N,Net-(U9A-+)*%
X51816000Y-54610000D03*
%TO.P,RV8,3,3*%
%TO.N,GND*%
X54356000Y-49530000D03*
%TD*%
%TO.P,RV5,1,1*%
%TO.N,Net-(R30-Pad2)*%
X78246000Y-109225000D03*
%TO.P,RV5,2,2*%
%TO.N,Net-(C11-Pad2)*%
X85866000Y-106685000D03*
%TO.P,RV5,3,3*%
X90946000Y-109225000D03*
%TD*%
D14*
%TO.N,+12V*%
X85979000Y-119191000D03*
D15*
X94996000Y-65659000D03*
D14*
X64516000Y-69215000D03*
X76200000Y-84455000D03*
X76708000Y-124587000D03*
X57785000Y-78105000D03*
X43815000Y-108585000D03*
X88900000Y-79883000D03*
%TO.N,GND*%
X98044000Y-121031000D03*
X91948000Y-96647000D03*
X84836000Y-123063000D03*
X68326000Y-126111000D03*
X78232000Y-84455000D03*
X93472000Y-52959000D03*
X61595000Y-80010000D03*
X65024000Y-84963000D03*
X94710000Y-87503000D03*
X72898000Y-137795000D03*
X85978500Y-114173000D03*
X49276000Y-55245000D03*
X35560000Y-104775000D03*
X52705000Y-107950000D03*
X78232000Y-121031000D03*
D15*
X100076000Y-63627000D03*
D14*
X82804000Y-137795000D03*
X81280000Y-69215000D03*
X53975000Y-85090000D03*
X46736000Y-128651000D03*
X38100000Y-128905000D03*
X60325000Y-93345000D03*
X93980000Y-82423000D03*
X43180000Y-85725000D03*
D15*
X100076000Y-53467000D03*
D14*
X67818000Y-70993000D03*
X61976000Y-137795000D03*
X79248000Y-90551000D03*
X72644000Y-68199000D03*
X98552000Y-106045000D03*
X69596000Y-117475000D03*
X40005000Y-110490000D03*
X86360000Y-97663000D03*
X46990000Y-72390000D03*
%TO.N,-12V*%
X48260000Y-123825000D03*
X78994000Y-88519000D03*
X98298000Y-115697000D03*
X45215000Y-85725000D03*
X76962000Y-67945000D03*
X86868000Y-129667000D03*
D15*
X94996000Y-55499000D03*
D14*
X62992000Y-88519000D03*
D15*
%TO.N,+10V*%
X70358000Y-104775000D03*
X86360000Y-94361000D03*
X86995000Y-53340000D03*
X86360000Y-90297000D03*
X96520000Y-74295000D03*
X55245000Y-55245000D03*
X36830000Y-63500000D03*
X41275000Y-59055000D03*
X82042000Y-51181000D03*
%TO.N,-10V*%
X41275000Y-120650000D03*
X38100000Y-81280000D03*
X57785000Y-134620000D03*
X72390000Y-55245000D03*
X40005000Y-88900000D03*
X95250000Y-136525000D03*
%TO.N,/Core/summed_input*%
X77724000Y-128143000D03*
%TO.N,Net-(U5B--)*%
X70104000Y-124079000D03*
%TO.N,Net-(U2-A)*%
X53086000Y-126365000D03*
X44831000Y-122555000D03*
%TO.N,Net-(D2-A)*%
X74376000Y-62103000D03*
X76454000Y-73025000D03*
%TO.N,Net-(D3-A)*%
X70866000Y-74549000D03*
X55880000Y-82550000D03*
X79756000Y-56515000D03*
X75100500Y-58039000D03*
%TO.N,Net-(J9-Pin_1)*%
X57785000Y-76200000D03*
X51435000Y-86995000D03*
%TO.N,Net-(R10-Pad1)*%
X104394000Y-112903000D03*
%TO.N,Net-(R10-Pad2)*%
X103378000Y-112903000D03*
%TO.N,Net-(R11-Pad2)*%
X102362000Y-112903000D03*
%TO.N,Net-(R31-Pad1)*%
X74168000Y-121031000D03*
X74168000Y-126111000D03*
X74168000Y-115951000D03*
%TO.N,Net-(R37-Pad1)*%
X88265000Y-55880000D03*
%TO.N,Net-(R49-Pad1)*%
X69502500Y-56515000D03*
X69596000Y-64135000D03*
%TO.N,Net-(U9A-+)*%
X63881000Y-60960000D03*
%TO.N,Net-(U7-STRB)*%
X73152000Y-83439000D03*
X71628000Y-82169000D03*
%TO.N,Net-(U4A-+)*%
X97028000Y-109855000D03*
%TO.N,Net-(Q3-S)*%
X70485000Y-90551000D03*
X64516000Y-116840000D03*
%TO.N,Net-(U4D-+)*%
X105410000Y-117983000D03*
X96012000Y-116629500D03*
%TO.N,Net-(U8--)*%
X85344000Y-91275500D03*
X87800500Y-91313000D03*
X85598000Y-88011000D03*
%TO.N,Net-(U4D--)*%
X96774000Y-115951000D03*
X107442000Y-117983000D03*
%TO.N,Net-(U4C-+)*%
X96012000Y-118999000D03*
%TO.N,Net-(U4A--)*%
X90932000Y-113919000D03*
%TO.N,Net-(U4B-+)*%
X90678000Y-118999000D03*
%TD*%
D16*
%TO.N,+10V*%
X95504000Y-68199000D02*
X86995000Y-59690000D01*
X86995000Y-59690000D02*
X86995000Y-53340000D01*
X82042000Y-51181000D02*
X59309000Y-51181000D01*
X95504000Y-74295000D02*
X95504000Y-68199000D01*
X41275000Y-59055000D02*
X36830000Y-63500000D01*
X95504000Y-74295000D02*
X96520000Y-74295000D01*
X80772000Y-94361000D02*
X86360000Y-94361000D01*
X70358000Y-104775000D02*
X80772000Y-94361000D01*
X91186000Y-78613000D02*
X95504000Y-74295000D01*
X91186000Y-85471000D02*
X91186000Y-78613000D01*
X59309000Y-51181000D02*
X55245000Y-55245000D01*
X86360000Y-90297000D02*
X91186000Y-85471000D01*
%TO.N,-10V*%
X49175051Y-81280000D02*
X66040000Y-64415051D01*
X58420000Y-133985000D02*
X58420000Y-129540000D01*
X66040000Y-64415051D02*
X66040000Y-57785000D01*
X51181000Y-122301000D02*
X51181000Y-120520000D01*
X58420000Y-133985000D02*
X92710000Y-133985000D01*
X68580000Y-55245000D02*
X72390000Y-55245000D01*
X40005000Y-88900000D02*
X41275000Y-90170000D01*
X58420000Y-129540000D02*
X51181000Y-122301000D01*
X66040000Y-57785000D02*
X68580000Y-55245000D01*
X41275000Y-90170000D02*
X41275000Y-120650000D01*
X92710000Y-133985000D02*
X95250000Y-136525000D01*
X57785000Y-134620000D02*
X58420000Y-133985000D01*
X38100000Y-81280000D02*
X49175051Y-81280000D01*
%TO.N,/Core/summed_input*%
X72136000Y-128143000D02*
X71120000Y-127127000D01*
X58801000Y-118110000D02*
X66929000Y-118110000D01*
X71120000Y-127127000D02*
X71120000Y-122301000D01*
X77724000Y-128143000D02*
X72136000Y-128143000D01*
X66929000Y-118110000D02*
X71120000Y-122301000D01*
%TO.N,Net-(U5B--)*%
X70104000Y-124079000D02*
X64008000Y-124079000D01*
%TO.N,Net-(U2-A)*%
X44831000Y-122555000D02*
X49276000Y-122555000D01*
X49276000Y-122555000D02*
X53086000Y-126365000D01*
%TO.N,Net-(D2-A)*%
X79248000Y-68453000D02*
X79248000Y-67945000D01*
X79248000Y-67945000D02*
X79248000Y-67437000D01*
X76962000Y-62103000D02*
X79248000Y-64389000D01*
X76454000Y-71247000D02*
X79248000Y-68453000D01*
X91821000Y-67945000D02*
X93091000Y-69215000D01*
X74376000Y-62103000D02*
X76962000Y-62103000D01*
X79248000Y-67437000D02*
X79248000Y-64389000D01*
X79248000Y-67945000D02*
X91821000Y-67945000D01*
X76454000Y-73025000D02*
X76454000Y-71247000D01*
%TO.N,Net-(D3-A)*%
X75184201Y-58122701D02*
X75100500Y-58039000D01*
X55880000Y-82550000D02*
X62865000Y-82550000D01*
X79756000Y-56515000D02*
X78232000Y-58039000D01*
X62865000Y-82550000D02*
X70866000Y-74549000D01*
X78232000Y-58039000D02*
X75100500Y-58039000D01*
%TO.N,Net-(J9-Pin_1)*%
X51435000Y-82550000D02*
X51435000Y-80010000D01*
X51435000Y-80010000D02*
X55245000Y-76200000D01*
X51435000Y-86995000D02*
X51435000Y-82550000D01*
X55245000Y-76200000D02*
X57785000Y-76200000D01*
%TO.N,Net-(R10-Pad1)*%
X104394000Y-105791000D02*
X102616000Y-104013000D01*
X104394000Y-112903000D02*
X104394000Y-105791000D01*
%TO.N,Net-(R10-Pad2)*%
X101166000Y-100383000D02*
X102616000Y-98933000D01*
X103378000Y-107823000D02*
X101166000Y-105611000D01*
X101166000Y-105611000D02*
X101166000Y-100383000D01*
X103378000Y-112903000D02*
X103378000Y-107823000D01*
%TO.N,Net-(R11-Pad2)*%
X100076000Y-96393000D02*
X102616000Y-93853000D01*
X102362000Y-112903000D02*
X102362000Y-108331000D01*
X100076000Y-106045000D02*
X100076000Y-96393000D01*
X102362000Y-108331000D02*
X100076000Y-106045000D01*
%TO.N,Net-(R31-Pad1)*%
X67564000Y-109347000D02*
X74168000Y-115951000D01*
X74168000Y-126111000D02*
X74168000Y-121031000D01*
%TO.N,Net-(R37-Pad1)*%
X90805000Y-58420000D02*
X98171000Y-58420000D01*
X88265000Y-55880000D02*
X90805000Y-58420000D01*
%TO.N,Net-(R49-Pad1)*%
X69596000Y-56608500D02*
X69502500Y-56515000D01*
X69596000Y-64135000D02*
X69596000Y-56608500D01*
%TO.N,Net-(U9A-+)*%
X62611000Y-59690000D02*
X56896000Y-59690000D01*
X63881000Y-60960000D02*
X62611000Y-59690000D01*
X56896000Y-59690000D02*
X51816000Y-54610000D01*
%TO.N,Net-(U7-STRB)*%
X72898000Y-83439000D02*
X71628000Y-82169000D01*
X73152000Y-83439000D02*
X72898000Y-83439000D01*
%TO.N,Net-(U4A-+)*%
X102616000Y-88773000D02*
X97028000Y-94361000D01*
X97028000Y-94361000D02*
X97028000Y-109855000D01*
%TO.N,Net-(Q3-S)*%
X68834000Y-105283000D02*
X68834000Y-101981000D01*
X68834000Y-101981000D02*
X68834000Y-92202000D01*
X65532000Y-108585000D02*
X68834000Y-105283000D01*
D17*
X70612000Y-101961000D02*
X68854000Y-101961000D01*
D16*
X64516000Y-111633000D02*
X65532000Y-110617000D01*
D17*
X68854000Y-101961000D02*
X68834000Y-101981000D01*
D16*
X64516000Y-116840000D02*
X64516000Y-111633000D01*
X68834000Y-92202000D02*
X70485000Y-90551000D01*
X65532000Y-110617000D02*
X65532000Y-108585000D01*
%TO.N,Net-(U4D-+)*%
X96012000Y-116629500D02*
X97365500Y-117983000D01*
X97365500Y-117983000D02*
X105410000Y-117983000D01*
%TO.N,Net-(U8--)*%
X85344000Y-88265000D02*
X85344000Y-91275500D01*
X85598000Y-88011000D02*
X85344000Y-88265000D01*
X85469500Y-91401000D02*
X85344000Y-91275500D01*
X87800500Y-91313000D02*
X87712500Y-91401000D01*
X85381500Y-91313000D02*
X85344000Y-91275500D01*
X87800500Y-91313000D02*
X85381500Y-91313000D01*
X85344000Y-91275500D02*
X85344000Y-91313000D01*
%TO.N,Net-(U4D--)*%
X106426000Y-116967000D02*
X107442000Y-117983000D01*
X97790000Y-116967000D02*
X106426000Y-116967000D01*
X96774000Y-115951000D02*
X97790000Y-116967000D01*
%TO.N,Net-(U4C-+)*%
X108712000Y-118999000D02*
X109982000Y-120269000D01*
X96012000Y-118999000D02*
X108712000Y-118999000D01*
%TO.N,Net-(U4A--)*%
X90932000Y-113919000D02*
X98552000Y-113919000D01*
X98552000Y-113919000D02*
X99822000Y-115189000D01*
X99822000Y-115189000D02*
X109982000Y-115189000D01*
%TO.N,Net-(U4B-+)*%
X95758000Y-93853000D02*
X100584000Y-89027000D01*
X90678000Y-116967000D02*
X89408000Y-115697000D01*
X101854000Y-86995000D02*
X105664000Y-86995000D01*
X89408000Y-113665000D02*
X95758000Y-107315000D01*
X95758000Y-107315000D02*
X95758000Y-93853000D01*
X89408000Y-115697000D02*
X89408000Y-113665000D01*
X90678000Y-118999000D02*
X90678000Y-116967000D01*
X105664000Y-86995000D02*
X107696000Y-84963000D01*
X100584000Y-88265000D02*
X101854000Y-86995000D01*
X100584000Y-89027000D02*
X100584000Y-88265000D01*
%TD*%
M02*
